<svg id="Слой_1" data-name="Слой 1" xmlns="http://www.w3.org/2000/svg" viewBox="0 0 156 150"><defs><style>.cls-1{fill:#ef7d21;}.cls-2{fill:#ddd;}</style></defs><path class="cls-1" d="M153.8,62A47.63,47.63,0,0,0,107,14.39h0l-58.9,1.84-.26.16.26.19,40.51,1.18a47.41,47.41,0,0,0-13.87,8.58h0L49.24,27.6l-.29.16.29.19,22.7,1A46.68,46.68,0,0,0,65,38.13l0,0c0-.06.07-.12.11-.17L38.75,39.23l-.33.17.33.18,24.8,1.31.08-.17a46.89,46.89,0,0,0-3.37,8.87l-26.19,1.3-.33.2.33.15,25.5,1.26a48.18,48.18,0,0,0-.94,8.1l-41.1,1.58-.29.17.29.18,41.15,1.85a46.61,46.61,0,0,0,1.12,8.16l-40,1.22-.31.18.31.17,40.87,1.53A47.14,47.14,0,0,0,64.05,84L24.73,85.33l-.28.17.28.18,41.06,1.37a46.46,46.46,0,0,0,6.5,8.27L16.88,96.59l-.22.17.22.18L75.73,98.5a48,48,0,0,0,8.39,5.61L2.49,106.62l-.29.17.29.18,103.06,2.58h.66A47.63,47.63,0,0,0,153.8,62Zm-50.38,41.9a42,42,0,0,1-3.69-83.38h0L111,20.26h0a42,42,0,0,1-7.58,83.61Z"/><path class="cls-1" d="M136.24,42.14,110.48,56.45a5.6,5.6,0,0,0-.85-.59,7.11,7.11,0,0,0-3.42-.88,7,7,0,1,0,7,7,2.7,2.7,0,0,0,0-.46A5.25,5.25,0,0,0,113,60.4l23.32-17.84a.2.2,0,0,0,0-.28ZM109,62a2.67,2.67,0,0,1-1.41,2.42,2.8,2.8,0,1,1-1.38-5.24A2.76,2.76,0,0,1,109,61.87Z"/><path class="cls-2" d="M79.34,52.67a26.94,26.94,0,0,1,22.38-17.39c9.73-1.17,18.8,2.51,23.67,9.61l.1.14,8.29-5.29-.14-.15a39,39,0,0,0-11.55-8.33,33.39,33.39,0,0,0-29.49.13A31.68,31.68,0,0,0,74.33,59.52c-.4,11.74,5,22.21,14.12,27.3l.19-.3C88.47,86.4,71.46,73.46,79.34,52.67Z"/></svg>