<svg id="Слой_1" data-name="Слой 1" xmlns="http://www.w3.org/2000/svg" viewBox="0 0 78.45966 75.21244"><title>TO</title><path style="fill:#CCCCCC" d="M67.525,16.55343h-.44c.01.16.01.33.01.5s0,.34-.01.5h.44a3.82819,3.82819,0,0,1,3.83,3.82v27.89a3.82819,3.82819,0,0,1-3.83,3.82h-17.85a3.82818,3.82818,0,0,1-3.83-3.82v-27.89a3.82818,3.82818,0,0,1,3.83-3.82h.32c-.01-.16-.01-.33-.01-.5s0-.34.01-.5h-.32a4.83113,4.83113,0,0,0-4.83,4.82v27.89a4.83114,4.83114,0,0,0,4.83,4.82h17.85a4.83114,4.83114,0,0,0,4.83-4.82v-27.89A4.83114,4.83114,0,0,0,67.525,16.55343Zm-5.45,1c-.01-.16-.01-.33-.01-.5s0-.34.01-.5h-1.04c.01.16.01.33.01.5s0,.34-.01.5Zm-6.05,0c-.01-.16-.01-.33-.01-.5s0-.34.01-.5h-1.02c.01.16.01.33.01.5s0,.34-.01.5Z"/><path style="fill:#CCCCCC" d="M36.16492,28.95142a18.0407,18.0407,0,0,1,5.34-.17c.5.02.99.05005,1.48.08v-.71c-.09-.01-.19-.01-.28-.02-2.5-.15-5.02-.42-7.49.31-3.51,1.04-7.03,2.05-10.55005,3.08a23.36958,23.36958,0,0,1-3.11.9c-1.79.25-3.62.23-5.41.45a54.95706,54.95706,0,0,0-13.8,3.61c-.57.23-.63.52-.43006,1.04.46,1.15.87006,2.33,1.31,3.49.18005.49.27.93-.23,1.34a4.44878,4.44878,0,0,0-.77.94,6.13953,6.13953,0,0,0-.4.86005,3.99162,3.99162,0,0,0,.88.2c1.77.02,3.53.02,5.3.01.39,0,.79-.06,1.19-.09a5.71594,5.71594,0,0,0,10.02.04h23.77v-.68q-6.86994,0-13.73-.03a4.50461,4.50461,0,0,1-2.07-.52,21.39528,21.39528,0,0,1-3.12-2.03,3.549,3.549,0,0,1-1.3-3.69,9.985,9.985,0,0,1,1.66-3.75.636.636,0,0,1,.53-.24,82.71226,82.71226,0,0,0,12.38.73c1.88995.03,3.77.07,5.65.02v-.77q-1.33492.06006-2.67.06c-3.03-.02-6.06-.11-9.09-.17-.25-.01-.5-.07-.86-.12.67-.64,1.9-.77,1.32-2.12,2.16-.46,4.21-1.4,6.48-1.17,1.6.16,3.2.32,4.82.48v-.7c-1.55-.16-3.1-.32-4.65-.5a14.22085,14.22085,0,0,0-4.73.67c-1.14.26-2.27.6-3.43.79.42-.13.84-.27,1.26-.39C33.015,29.77143,34.585,29.35139,36.16492,28.95142Zm-28.47,6.37c-1.29,1.42-3.13,2.16-4.3,1.46C4.81495,36.3014,6.16492,35.84144,7.695,35.32142Zm-2.61,7.63c-.11005.1-.42-.01-.78-.03,1.27-1.13.09-2.14.04-3.38a16.7766,16.7766,0,0,1,1.61,2.3C6.05494,42.03138,5.43494,42.6114,5.085,42.95142Zm9.25,3.58a5.016,5.016,0,1,1-.01-10.03,5.0163,5.0163,0,0,1,.01,10.03Zm7.96-9.98a4.27035,4.27035,0,0,0,.84,4.62,15.71175,15.71175,0,0,0,1.96,1.55c.37.28.77.51,1.31994.86H20.215a6.19947,6.19947,0,0,0-1.77-6.74,6.23126,6.23126,0,0,0-4.6-1.66,6.462,6.462,0,0,0-5.68006,8.41H5.825c.33-.46.62-.82.87-1.21.1-.16.22-.44.16-.53-.84-1.12-1.35-2.54-2.76-3.16a5.45865,5.45865,0,0,0-1.09-.19c-.08-.26-.2-.66-.35-1.16a9.901,9.901,0,0,0,1.32.4,3.45164,3.45164,0,0,0,2.63-.66c.64-.47,1.32-.88,1.9-1.4a7.6745,7.6745,0,0,1,3.88-1.47,56.73356,56.73356,0,0,1,9.29-1.07,8.16536,8.16536,0,0,0,1.76-.46c.27-.08.54-.18.65-.21C23.49494,33.79139,22.785,35.13142,22.29493,36.5514Zm6.42-3.44c-.77-.07-1.71-.15-2.65-.24-.01-.05-.01-.11-.02-.16.96-.3,1.93-.6,2.87-.89C28.845,32.25141,28.79493,32.62141,28.715,33.1114Zm2.31-1.57c.04.07.07.13.11.2-.47.25-.93.5-1.4.76a1.71166,1.71166,0,0,0-.07-.21C30.04493,31.90144,30.345,31.35139,31.025,31.54139Z"/><path style="fill:#CCCCCC" d="M14.195,36.9314a4.595,4.595,0,1,0,4.59,4.59A4.70338,4.70338,0,0,0,14.195,36.9314Zm1.17,1.21a2.22416,2.22416,0,0,1,1.04.2,1.48914,1.48914,0,0,1,.64.84c.04.13-.39.45-.65.59a7.82785,7.82785,0,0,1-1.18.38c-.03-.62006-.07-1.13-.07-1.65C15.145,38.38142,15.29493,38.14143,15.36494,38.14143Zm-3.38.21a1.18654,1.18654,0,0,1,.89-.25c.45.07.45.49.42.87s-.07.76-.11,1.21c-.54-.16-1-.28-1.44-.45-.16-.06-.42-.32-.39-.37A3.2576,3.2576,0,0,1,11.98493,38.35139Zm-.44,5.18c-.22-.03-.6-.00995-.65-.12a7.79061,7.79061,0,0,1-.44-1.56995.99908.99908,0,0,1,.67-.26,11.30978,11.30978,0,0,1,1.51.46c-.37.52-.7.99-1.03,1.45C11.585,43.51142,11.565,43.53138,11.54493,43.53138Zm3.45,1.73a7.42954,7.42954,0,0,1-1.63-.08.93523.93523,0,0,1-.05-.69,12.43887,12.43887,0,0,1,.9-1.31c.36.48.67.89.97,1.3.04.06.12.13.1.17005C15.205,44.87141,15.10493,45.25141,14.99494,45.26142Zm1.27-.5c-.56-.77-1.11-1.52-1.65-2.27-.29-.39-.55-.34-.8.02-.53.75-1.06,1.5-1.61,2.28-.14-.1-.3-.21-.44-.3.56-.77,1.1-1.52,1.64-2.27.25-.34.19-.62-.2-.74-.89-.29-1.8-.54-2.76-.82.06-.17.13-.37.18-.53.91.29,1.79.57,2.67.85.49.15.66-.12.66-.57v-2.71h.54c0,.96.01,1.88-.01,2.8-.01.45.16.57.58.44.88-.28,1.76-.55,2.69-.85.05.12994.12.31.18.49-.87.28-1.7.55-2.53.81-.56.18-.65.48-.29.94.52.68,1.02,1.37,1.59,2.12C16.55494,44.56141,16.395,44.67139,16.265,44.76142Zm1.12-1.28a1.04553,1.04553,0,0,1-.65-.2,12.949,12.949,0,0,1-.94995-1.25995c.56-.19,1.04-.36,1.52-.52.04-.01.1-.06.12-.04.21.15.6.35.58.45A8.40162,8.40162,0,0,1,17.385,43.48139Z"/><path d="M52.86064,29.01013c.66063-1.00466,1.17842-1.83253,1.74631-2.62447.12611-.17586.42887-.225.65029-.33254-.02022.23414.03778.51744-.07345.69437-.67968,1.08118-1.39775,2.13822-2.15237,3.27783-.68916-.68485-1.35237-1.32814-1.98895-1.99678-.07834-.08228-.01447-.29995-.01651-.45488.18954.00693.45422-.0638.55558.03427C52.01723,28.02944,52.40492,28.50056,52.86064,29.01013Z" style="fill:#ef7d21"/><rect x="50.19802" y="24.77228" width="6.01485" height="6.01485" style="fill:none;stroke:#CCCCCC;stroke-miterlimit:10;stroke-width:0.5px"/><rect x="50.19802" y="41.24135" width="6.01485" height="6.01485" style="fill:none;stroke:#CCCCCC;stroke-miterlimit:10;stroke-width:0.5px"/><rect x="60.5772" y="32.89604" width="6.01485" height="6.01485" style="fill:none;stroke:#CCCCCC;stroke-miterlimit:10;stroke-width:0.5px"/><ellipse cx="52.50087" cy="17.0495" rx="1.41207" ry="2.55056" style="fill:none;stroke:#CCCCCC;stroke-miterlimit:10;stroke-width:0.5px"/><ellipse cx="58.52663" cy="17.0495" rx="1.41207" ry="2.55056" style="fill:none;stroke:#CCCCCC;stroke-miterlimit:10;stroke-width:0.5px"/><ellipse cx="64.5781" cy="17.0495" rx="1.41207" ry="2.55056" style="fill:none;stroke:#CCCCCC;stroke-miterlimit:10;stroke-width:0.5px"/><line x1="58.59995" y1="25.18805" x2="67.78898" y2="25.18805" style="fill:none;stroke:#CCCCCC;stroke-miterlimit:10"/><line x1="58.59995" y1="28.45545" x2="67.78898" y2="28.45545" style="fill:none;stroke:#CCCCCC;stroke-miterlimit:10;stroke-width:0.75px"/><line x1="58.59995" y1="30.78713" x2="67.78898" y2="30.78713" style="fill:none;stroke:#CCCCCC;stroke-miterlimit:10;stroke-width:0.75px"/><line x1="58.59995" y1="41.65712" x2="67.78898" y2="41.65712" style="fill:none;stroke:#CCCCCC;stroke-miterlimit:10"/><line x1="58.59995" y1="44.92452" x2="67.78898" y2="44.92452" style="fill:none;stroke:#CCCCCC;stroke-miterlimit:10;stroke-width:0.75px"/><line x1="58.59995" y1="47.2562" x2="67.78898" y2="47.2562" style="fill:none;stroke:#CCCCCC;stroke-miterlimit:10;stroke-width:0.75px"/><line x1="48.53578" y1="33.31181" x2="57.72481" y2="33.31181" style="fill:none;stroke:#CCCCCC;stroke-miterlimit:10"/><line x1="48.53578" y1="36.57921" x2="57.72481" y2="36.57921" style="fill:none;stroke:#CCCCCC;stroke-miterlimit:10;stroke-width:0.75px"/><line x1="48.53578" y1="38.91089" x2="57.72481" y2="38.91089" style="fill:none;stroke:#CCCCCC;stroke-miterlimit:10;stroke-width:0.75px"/></svg>