<svg id="Слой_1" data-name="Слой 1" xmlns="http://www.w3.org/2000/svg" viewBox="0 0 269.29134 32.79208"><title>logo2</title><path d="M26.93945,27.68363H22.53027a6.50147,6.50147,0,0,1-4.749-2.04l-5.0874-5.10009v7.14013h-6.834v-15.334H3.51367V5.58353H18.791a7.18325,7.18325,0,0,1,5.2788,2.19776,7.23558,7.23558,0,0,1,2.18995,5.29883,7.326,7.326,0,0,1-1.207,4.07275,7.48,7.48,0,0,1-3.21289,2.77686,1.68219,1.68219,0,0,0,1.69971.98779h3.3999ZM19.42578,13.06352q0-1.69923-2.02-1.69971H12.69385v3.3999h4.71191Q19.425,14.76371,19.42578,13.06352Z" style="fill:#676766"/><path d="M49.03955,27.68363H28.63965V5.58353h20.3999v6.76612H35.47363v1.73388h10.166v5.1001h-10.166v1.73389H49.03955Z" style="fill:#676766"/><path d="M71.13916,12.34965H57.57324v1.73388h10.166v5.1001h-10.166v8.5h-6.834V5.58353h20.3999Z" style="fill:#676766"/><path d="M93.91846,27.68363H89.50928a6.50151,6.50151,0,0,1-4.749-2.04l-5.0874-5.10009v7.14013h-6.834V5.58353H85.75879A7.20094,7.20094,0,0,1,91.0459,7.78129a7.23075,7.23075,0,0,1,2.19287,5.29883,7.32594,7.32594,0,0,1-1.207,4.07275,7.48008,7.48008,0,0,1-3.21289,2.77686,1.68218,1.68218,0,0,0,1.6997.98779h3.39991ZM86.40479,13.06352q0-1.69923-2.02-1.69971H79.67285v3.3999h4.71192Q86.40406,14.76371,86.40479,13.06352Z" style="fill:#676766"/><path d="M116.01855,27.68363H95.61865V5.58353h20.3999v6.76612H102.45264v1.73388h10.166v5.1001h-10.166v1.73389h13.56591Z" style="fill:#676766"/><path d="M138.11719,12.34965h-8.97461a.40017.40017,0,0,0-.30664.40918.6531.6531,0,0,0,.10156.34033l2.65234,1.499q4.14844,2.3174,4.14844,6.27051a6.79678,6.79678,0,0,1-6.80078,6.81494H117.71826V20.91752h8.97559A.39988.39988,0,0,0,127,20.50834a.6557.6557,0,0,0-.10156-.34033l-2.65235-1.499q-4.14843-2.31738-4.14795-6.2705a6.578,6.578,0,0,1,1.98877-4.82129,6.54667,6.54667,0,0,1,4.81153-1.99366h11.21875Z" style="fill:#676766"/><path d="M160.21777,27.68363h-6.834v-8.5h-6.73145v8.5h-6.834V5.58353h6.834v8.5h6.73145v-8.5h6.834Z" style="fill:#676766"/><path d="M199.31836,27.68363H192.1748l-.92089-2.72021h-7.67969l-.917,2.72021h-7.13965l5.168-15.334H173.1377V5.58353h18.69921Zm-9.63867-7.48-2.25586-6.55615-2.2461,6.55615Z" style="fill:#676766"/><path d="M221.417,17.48344a9.82462,9.82462,0,0,1-2.99121,7.208,10.17792,10.17792,0,0,1-14.416,0,9.82175,9.82175,0,0,1-2.99219-7.208V5.58353h6.834V17.51029a3.29773,3.29773,0,0,0,.99317,2.40235,3.30444,3.30444,0,0,0,4.74609,0,3.30067,3.30067,0,0,0,.99219-2.40235V5.58353h6.834Z" style="fill:#676766"/><path d="M243.5166,12.34965H236.751v15.334h-6.834v-15.334h-6.7998V5.58353H243.5166Z" style="fill:#676766"/><path d="M257.27,8.95426c-.06-.01-.12-.01-.17-.02-.12,0-.24-.01-.36-.02s-.24-.01-.36-.01c-.16,0-.31,0-.46.01-.12.01-.24.02-.36.02a.98419.98419,0,0,1-.17.02,8.63875,8.63875,0,0,0-.79,17.07c.14.03.28.06.42.08.28.04.56.07.85.09.15.01.31.01.46.01.16,0,.31,0,.46-.01.29-.02.57-.05.85-.09a3.1016,3.1016,0,0,0,.42-.08,8.657,8.657,0,0,0-.79-17.07Zm.5,8.05c-.12-.01-.33-.22-.31-.3a.56011.56011,0,0,1,.32-.35c.12994-.01.27.17.52.35C258.04,16.85423,257.9,17.00425,257.77,17.00425Zm.03,1.08a.10906.10906,0,0,1,.05.00995.492.492,0,0,1,.26.29c.01.09-.06.18-.14.31h-.01a2.29249,2.29249,0,0,0-.15.23,3.22427,3.22427,0,0,1-.32-.43.09516.09516,0,0,1-.02-.07.25617.25617,0,0,1,.1-.18A.44113.44113,0,0,1,257.8,18.08427Zm.48,2.91c.02.01.05.01.07.02,1.13.25,2.21.51,3.38.77a6.83933,6.83933,0,0,1-4.42,2.59.18546.18546,0,0,1-.07.02C257.59,23.23423,257.93,22.13425,258.28,20.99424Zm3.34-.33-.01.01c-.83-.19-1.67-.38-2.51-.57.26-.47.51-.9.8-1.4l.05.05c.57.62,1.14,1.23,1.7,1.83A.13276.13276,0,0,0,261.62,20.66422Zm.05-6.17c-.63.68-1.18,1.26-1.72,1.85l-.05.05c-.28-.48-.53-.93-.8-1.39.85-.2,1.69-.39,2.67-.62C261.73,14.42423,261.7,14.46427,261.67,14.49424Zm1.01.46a.185.185,0,0,1,.02.07,6.83472,6.83472,0,0,1,.01,5.07c-.01.02-.01.04-.02.06-.83-.9-1.62-1.74-2.43-2.6C261.06,16.69425,261.85,15.84422,262.68,14.95426Zm-5.36-4.23a6.92309,6.92309,0,0,1,4.42,2.59c-1.15.26-2.24.52-3.38.78-.03.01-.05.01-.08.02-.34-1.12-.68-2.22-1.05-3.41C257.26,10.71427,257.29,10.71427,257.32,10.72422Zm-1.08.66h.1c.25.81.49,1.63.75,2.46h-1.6C255.75,13.00425,255.99,12.19425,256.24,11.38425Zm.09,8.21a.09014.09014,0,0,1-.05.01.417.417,0,0,1-.25-.21h-.01a.47014.47014,0,0,1-.06-.15.10919.10919,0,0,1,.01-.05.495.495,0,0,1,.31006-.24.05514.05514,0,0,1,.05.02c.1.01.21.12.36.22a.39241.39241,0,0,0,.1.08l-.15.12h-.01A.80785.80785,0,0,1,256.33,19.59422Zm.32-3.68-.01.01c-.13.12-.22.21-.31.22a.03692.03692,0,0,1-.03.00995.44364.44364,0,0,1-.28-.23.0098.0098,0,0,1-.01-.01.91181.91181,0,0,1-.05-.1c-.01-.03.02-.08.06-.13a.0098.0098,0,0,0,.01-.01.44085.44085,0,0,1,.22-.16.24843.24843,0,0,1,.08.01,1.37764,1.37764,0,0,1,.3.15l.01.01c.05.03.1.07.16.1C256.75,15.82426,256.7,15.87425,256.65,15.91422Zm.44,5.36005c-.26.81-.49,1.58-.76,2.47-.01.04-.03.09-.04.13-.29-.95-.54-1.75-.8-2.6Zm-1.75-10.55c-.35,1.18-.69,2.25-1.04,3.37v.01c-1.15-.26-2.26-.52-3.46-.79a7.04867,7.04867,0,0,1,4.50995-2.62C255.35,10.70426,255.34,10.71427,255.34,10.72422Zm-.17005,7.77c-.16.13-.27.23-.37.23a.19265.19265,0,0,1-.1-.03h-.01c-.11-.06-.22-.17-.22-.23a.52147.52147,0,0,1,.3-.37h.04a.86189.86189,0,0,1,.28.15,2.09911,2.09911,0,0,0,.22.15C255.26,18.43424,255.21,18.46427,255.17,18.49424Zm-.28-1.49c-.13,0-.27-.15-.53-.3.25-.18.39-.36.52-.35a.56042.56042,0,0,1,.32.35C255.22,16.78422,255.01,16.99424,254.89,17.00425Zm-3.9-2.51c.01-.02.01-.04.02-.05.82.18,1.64.37,2.47.56-.27.47-.51.89-.77,1.34-.01.02-.02.03-.03.05-.57-.61-1.15-1.23-1.72-1.85A.22048.22048,0,0,0,250.99,14.49424Zm1.72,4.26c.26.45.5.88.77,1.35-.83.19-1.63995.37-2.44.56-.02,0-.04.01-.06.01a.92655.92655,0,0,1-.05-.08c.57-.62,1.15-1.24,1.75-1.89C252.69,18.72422,252.7,18.73423,252.71,18.75425Zm-2.82-3.8a.46162.46162,0,0,0,.07.07c.8.86,1.57,1.68,2.36,2.53-.79.84-1.56,1.67-2.37,2.54l-.06.06A6.9294,6.9294,0,0,1,249.89,14.95426Zm4.41,6.04c0,.01,0,.01.01.02.34,1.12.67,2.19,1.04,3.36v.02a7.03,7.03,0,0,1-4.50995-2.6C252.02,21.51426,253.14,21.25425,254.3,20.99424Zm-2.38,3.26a7.59393,7.59393,0,0,1-2.57995-10.13,8.02317,8.02317,0,0,0,.07995,6.51,7.4549,7.4549,0,0,0,3.1,3.42,7.65223,7.65223,0,0,0,3.81,1.05,7.97282,7.97282,0,0,0,5.68-2.34,7.26982,7.26982,0,0,1-5.68,2.76A7.72737,7.72737,0,0,1,251.92,24.25425Z" style="fill:#fd7e14"/><path d="M256.28408,6.32405a11.07788,11.07788,0,1,0,11.08226,11.08221A11.076,11.076,0,0,0,256.28408,6.32405Zm.04961,19.78872a8.57608,8.57608,0,1,1,8.52639-8.60578A8.61961,8.61961,0,0,1,256.33369,26.11277Z" style="fill:#fd7e14"/></svg>