<?xml version="1.0" encoding="utf-8"?>
<!-- Generator: Adobe Illustrator 24.3.0, SVG Export Plug-In . SVG Version: 6.00 Build 0)  -->
<svg version="1.1" id="Layer_1" xmlns="http://www.w3.org/2000/svg" xmlns:xlink="http://www.w3.org/1999/xlink" x="0px" y="0px"
	 viewBox="0 0 191.8 159.5" style="enable-background:new 0 0 191.8 159.5;" xml:space="preserve">
<style type="text/css">
	.st0{fill-rule:evenodd;clip-rule:evenodd;fill:none;stroke:#252525;stroke-width:0.3506;stroke-miterlimit:2.6131;}
	.st1{fill-rule:evenodd;clip-rule:evenodd;fill:none;stroke:#000000;stroke-width:0.3506;stroke-miterlimit:2.6131;}
	.st2{fill-rule:evenodd;clip-rule:evenodd;fill:#252525;}
	.st3{fill:none;stroke:#252525;stroke-width:1.0001;stroke-linecap:round;stroke-miterlimit:2.6131;}
</style>
<path class="st0" d="M105.9,104.2l-0.5-1.2l0.4,1C105.8,104.1,105.9,104.1,105.9,104.2c0,0.1,0.1,0.2,0.1,0.3L105.9,104.2z"/>
<path class="st0" d="M106.9,105.8c-0.3,0.1-0.6,0.2-0.9,0.2c0.1-0.4,0.1-1-0.1-1.6C106.2,105.1,106.5,105.5,106.9,105.8z"/>
<path class="st0" d="M99.9,97.4l0.7,2.9l-0.6-2.7C99.9,97.5,99.9,97.5,99.9,97.4z"/>
<path class="st0" d="M101.8,105.3c0.2,0.7,0.4,1.2,0.8,1.5c-0.3,0.1-0.6,0.1-0.9,0.2c0.2-0.5,0.2-1.1,0-1.9c0,0,0,0,0,0l-1.1-4.6
	l1.1,4.7L101.8,105.3z"/>
<path class="st0" d="M97.4,105.6l-0.1-1.5L97.4,105.6C97.5,105.6,97.5,105.6,97.4,105.6c0,0,0,0.1,0,0.2L97.4,105.6z"/>
<path class="st0" d="M97.5,105.8c0.1,0.7,0.2,1.2,0.5,1.6c-0.3,0-0.5,0.1-0.8,0.1h0c0.1-0.2,0.2-0.4,0.3-0.7
	C97.4,106.5,97.5,106.2,97.5,105.8z"/>
<path class="st0" d="M93.3,104.2l-0.1,1.4l0,0.2c0,0,0-0.1,0-0.2c0,0,0,0,0,0L93.3,104.2z"/>
<path class="st0" d="M93.3,106.8c0.1,0.3,0.2,0.5,0.3,0.7h0c-0.3,0-0.5,0-0.8-0.1c0.3-0.4,0.4-0.9,0.5-1.5
	C93.2,106.2,93.2,106.5,93.3,106.8z"/>
<path class="st0" d="M89,105.1c-0.2,0.8-0.1,1.4,0,1.9c-0.3,0-0.6-0.1-0.9-0.2c0.3-0.3,0.6-0.8,0.8-1.5L89,105.1l1.1-4.8L89,105.1
	C89,105.1,89,105.1,89,105.1z"/>
<path class="st0" d="M90.2,99.9l0.6-2.5c0,0.1,0,0.1,0,0.2L90.2,99.9z"/>
<path class="st0" d="M84.7,104.4c-0.2,0.6-0.2,1.2-0.1,1.6c-0.3-0.1-0.6-0.2-0.9-0.2C84.1,105.5,84.4,105.1,84.7,104.4z"/>
<path class="st0" d="M84.8,104l0.4-0.9l-0.4,1.1l0,0l-0.1,0.2c0-0.1,0-0.2,0.1-0.3C84.8,104.1,84.8,104.1,84.8,104z"/>
<path class="st0" d="M68.2,75.3c-0.5,0.6-1.2,1.4-2.3,0.6C64.6,75,66.3,73.8,67,73c0.6-0.4,2.2-1.8,2.9-1
	C70.7,72.8,68.7,74.7,68.2,75.3z"/>
<path class="st0" d="M72.1,73.4c-0.5,1-0.8,2.1-1,3.2c-0.4,0.4-1,0.7-1.5,0.5c-0.6-0.3-1-0.8-0.4-1.8c0.6-1,2.1-2.6,2.8-2
	C72,73.3,72,73.4,72.1,73.4z"/>
<path class="st0" d="M65.1,73.8c-0.4,0.4-0.9,0.5-1.3,0.5c-1.2,0-2.1-0.9-0.4-2c0.3-0.2,0.8-0.5,1.3-0.8c0.8-0.5,1.8-1,2.2-0.5
	C67.6,71.9,65.9,73.2,65.1,73.8z"/>
<path class="st0" d="M68.3,79c0.5,0.2,1.2,0.4,1.7,0.6c-0.7,2.5-3.5,5-5,5.8c-0.3,0.2-0.6,0.2-0.9,0.2h0c-0.9-0.1-1.1-1.2-0.5-1.9
	c0,0,0,0,0,0c0,0,0,0,0,0C65.1,82.4,67,80.3,68.3,79z"/>
<path class="st0" d="M84.8,95.9l-3.9,6.7c0,0.1-0.1,0.1-0.1,0.2c-0.4,0.7-0.5,1.3-0.4,1.8c-8.6-3.5-15.2-10-17.7-17.8h0
	c0.6,0.2,1.3,0.3,2,0.2c1.1-0.1,2.1-0.4,2.8-0.8c1,2.2,4,1.7,5.7,1C75.6,91.1,79.7,94.1,84.8,95.9z"/>
<path class="st0" d="M87.8,96.8l-2.6,6.3l2.4-6c0.1-0.1,0.1-0.2,0.1-0.3C87.7,96.7,87.8,96.8,87.8,96.8z"/>
<path class="st0" d="M90.8,97.3C90.8,97.3,90.8,97.4,90.8,97.3C90.8,97.4,90.8,97.3,90.8,97.3C90.8,97.3,90.8,97.3,90.8,97.3z"/>
<path class="st0" d="M93.8,97.6C93.8,97.6,93.8,97.6,93.8,97.6l-0.5,6.6l0.4-6.4C93.8,97.8,93.7,97.7,93.8,97.6
	C93.8,97.6,93.8,97.6,93.8,97.6z"/>
<path class="st0" d="M97.3,104l-0.5-6.3c0,0,0,0,0-0.1h0.1c0,0.1,0,0.2,0,0.2L97.3,104z"/>
<path class="st0" d="M99.9,97.3C99.9,97.3,99.9,97.4,99.9,97.3C99.9,97.4,99.9,97.3,99.9,97.3C99.9,97.3,99.9,97.3,99.9,97.3z"/>
<path class="st0" d="M105.4,103l-2.6-6.2c0.1,0,0.1,0,0.2,0c0,0.1,0,0.2,0.1,0.3L105.4,103z"/>
<path class="st0" d="M107.5,84.3c0,5.5-5.5,7.5-11.5,7.6c-6,0.2-9.8-1.5-12.1-3.3c0.7-0.8,1-1.5,1.1-2.4V71.4c0-0.8-0.6-1.5-1.2-2
	c2.4-2.3,6.4-3.5,11.3-3.5c8.2,0,11,4,11,6.7c0,2.8-2.8,4.9-3.3,5.2c-0.5,0.3-0.6,0.9,0,1C105.3,79.6,107.5,82,107.5,84.3z"/>
<path class="st0" d="M122.2,77.1c-0.5,0.3-1.5-0.3-1.7-0.9c-0.2-0.5-1.4-2.2-0.7-2.9c0.8-0.6,2.3,1,2.8,2
	C123.2,76.2,122.8,76.8,122.2,77.1z"/>
<path class="st0" d="M122.2,86c-0.6,0.2-1.8,0.9-3.2-1.8c0-0.1-0.1-0.1-0.1-0.2l0.5-1.2l0.8-1.8c1,1.3,2.1,2.3,2.7,3.2
	C123.7,85,122.8,85.8,122.2,86z"/>
<path class="st0" d="M125.8,75.9c-1.1,0.8-1.8,0-2.3-0.6c-0.5-0.5-2.5-2.5-1.7-3.3c0.7-0.8,2.3,0.6,2.9,1
	C125.4,73.8,127.1,75,125.8,75.9z"/>
<path class="st0" d="M128,87c-2.6,7.7-9.1,14.1-17.7,17.6c0.1-0.5,0-1.1-0.4-1.8c0-0.1-0.1-0.1-0.1-0.2l-3.9-6.7
	c5.2-1.9,9.4-5,11.8-8.9c1.5,0.8,5.5,1.9,6.6-0.7c0.5,0.2,1.1,0.5,1.8,0.6h0C126.7,87,127.3,87.1,128,87L128,87z"/>
<path class="st0" d="M126.8,85.3c-0.1,0-0.1-0.1-0.2-0.1c-1.6-0.8-4.2-3.2-4.8-5.6c0.6-0.2,1.2-0.3,1.7-0.6c1,1,2.4,2.5,3.6,3.7l0,0
	c0.3,0.3,0.6,0.6,0.9,0.8C129,84.4,128.3,86,126.8,85.3z"/>
<path class="st0" d="M116.8,70.4c-4.2-5.6-12.2-9.4-21.5-9.4c-8.2,0-15.5,3-20,7.6c1.1-4.1,4.1-5.6,5.2-6.5c1.3-1.1,2.4-2.1,1-5
	c-0.2-0.4-0.6-0.8-1.1-1.1c-0.6-0.4-1.3-0.7-2.2-1c5-2.5,10.9-3.9,17.1-3.9c6.4,0,12.4,1.5,17.6,4.1c-0.8,0.3-1.5,0.7-1.9,1.1
	c-0.3,0.3-0.5,0.5-0.6,0.8c-1.5,2.9-0.3,3.9,1,5C112.4,63.2,116.1,65,116.8,70.4z"/>
<path class="st0" d="M105.9,104.2l-0.5-1.2l0.4,1C105.8,104.1,105.9,104.1,105.9,104.2C105.9,104.2,105.9,104.2,105.9,104.2z"/>
<path class="st0" d="M99.9,97.4l0.7,2.9l-0.6-2.7C99.9,97.5,99.9,97.5,99.9,97.4z"/>
<path class="st0" d="M100.6,100.5l1.1,4.7c0,0,0,0-0.1,0c0,0,0,0,0,0L100.6,100.5z"/>
<path class="st0" d="M97.3,104.1l0.1,1.5c0,0,0,0,0,0c0,0,0,0,0,0L97.3,104.1z"/>
<path class="st0" d="M93.2,105.6l0.1-1.3L93.2,105.6C93.2,105.6,93.2,105.6,93.2,105.6C93.2,105.6,93.2,105.6,93.2,105.6z"/>
<path class="st0" d="M88.9,105.1l1.1-4.8L88.9,105.1C89,105.1,89,105.1,88.9,105.1C89,105.1,88.9,105.1,88.9,105.1z"/>
<path class="st0" d="M90.2,99.9l0.6-2.5c0,0.1,0,0.1,0,0.2L90.2,99.9z"/>
<path class="st0" d="M84.8,104l0.4-0.9l-0.4,1.1l0,0c0,0,0,0,0,0C84.8,104.1,84.8,104.1,84.8,104z"/>
<path class="st0" d="M68.2,75.3c-0.5,0.6-1.2,1.4-2.3,0.6C64.6,75,66.3,73.8,67,73c0.6-0.4,2.2-1.8,2.9-1
	C70.7,72.8,68.7,74.7,68.2,75.3z"/>
<path class="st0" d="M72.1,73.4c-0.5,1-0.8,2.1-1,3.2c-0.4,0.4-1,0.7-1.5,0.5c-0.6-0.3-1-0.8-0.4-1.8c0.6-1,2.1-2.6,2.8-2
	C72,73.3,72,73.4,72.1,73.4z"/>
<path class="st0" d="M84.8,95.9l-3.9,6.7c0,0.1-0.1,0.1-0.1,0.2c-7.7-3.2-13.6-8.9-16.1-15.7c1.1-0.1,2.1-0.4,2.8-0.8
	c1,2.2,4,1.7,5.7,1C75.6,91.1,79.7,94.1,84.8,95.9z"/>
<path class="st0" d="M87.8,96.8l-2.6,6.3l2.4-6c0.1-0.1,0.1-0.2,0.1-0.3C87.7,96.7,87.8,96.8,87.8,96.8z"/>
<path class="st0" d="M90.8,97.3C90.8,97.3,90.8,97.4,90.8,97.3C90.8,97.4,90.8,97.3,90.8,97.3C90.8,97.3,90.8,97.3,90.8,97.3z"/>
<path class="st0" d="M93.8,97.6C93.8,97.6,93.8,97.6,93.8,97.6l-0.5,6.6l0.4-6.4C93.8,97.8,93.7,97.7,93.8,97.6
	C93.8,97.6,93.8,97.6,93.8,97.6z"/>
<path class="st0" d="M97.3,104l-0.5-6.3c0,0,0,0,0-0.1h0.1c0,0.1,0,0.2,0,0.2L97.3,104z"/>
<path class="st0" d="M99.9,97.3C99.9,97.3,99.9,97.4,99.9,97.3C99.9,97.4,99.9,97.3,99.9,97.3C99.9,97.3,99.9,97.3,99.9,97.3z"/>
<path class="st0" d="M105.4,103l-2.6-6.2c0.1,0,0.1,0,0.2,0c0,0.1,0,0.2,0.1,0.3L105.4,103z"/>
<path class="st0" d="M107.5,84.3c0,5.5-5.5,7.5-11.5,7.6c-6,0.2-9.8-1.5-12.1-3.3c0.7-0.8,1-1.5,1.1-2.4V71.4c0-0.8-0.6-1.5-1.2-2
	c2.4-2.3,6.4-3.5,11.3-3.5c8.2,0,11,4,11,6.7c0,2.8-2.8,4.9-3.3,5.2c-0.5,0.3-0.6,0.9,0,1C105.3,79.6,107.5,82,107.5,84.3z"/>
<path class="st0" d="M116.8,70.4c-4.2-5.6-12.2-9.4-21.5-9.4c-8.2,0-15.5,3-20,7.6c1.1-4.1,4.1-5.6,5.2-6.5c1.3-1.1,2.4-2.1,1-5
	c-0.2-0.4-0.6-0.8-1.1-1.1c4.5-1.9,9.5-3,14.9-3c5.7,0,11,1.2,15.6,3.3c-0.3,0.3-0.5,0.5-0.6,0.8c-1.5,2.9-0.3,3.9,1,5
	C112.4,63.2,116.1,65,116.8,70.4z"/>
<path class="st0" d="M122.2,77.1c-0.5,0.3-1.5-0.3-1.7-0.9c-0.2-0.5-1.4-2.2-0.7-2.9c0.8-0.6,2.3,1,2.8,2
	C123.2,76.2,122.8,76.8,122.2,77.1z"/>
<path class="st0" d="M122.2,86c-0.6,0.2-1.8,0.9-3.2-1.8c0-0.1-0.1-0.1-0.1-0.2l0.5-1.2l0.8-1.8c1,1.3,2.1,2.3,2.7,3.2
	C123.7,85,122.8,85.8,122.2,86z"/>
<path class="st0" d="M125.8,75.9c-1.1,0.8-1.8,0-2.3-0.6c-0.5-0.5-2.5-2.5-1.7-3.3c0.7-0.8,2.3,0.6,2.9,1
	C125.4,73.8,127.1,75,125.8,75.9z"/>
<path class="st0" d="M126.1,86.9c-2.5,6.9-8.4,12.7-16.2,15.9c0-0.1-0.1-0.1-0.1-0.2l-3.9-6.7c5.2-1.9,9.4-5,11.8-8.9
	c1.5,0.8,5.5,1.9,6.6-0.7C124.8,86.5,125.4,86.7,126.1,86.9L126.1,86.9z"/>
<path class="st1" d="M93.3,104.2l-0.1,1.4l0,0.2c0,0,0-0.1,0-0.2c0,0,0,0,0,0L93.3,104.2z"/>
<path class="st1" d="M95.3,108.4c-0.7,0-1.4-0.3-1.7-0.9h0c-0.1-0.2-0.2-0.4-0.3-0.7c0.1,0.3,0.2,0.5,0.3,0.7
	C93.9,108,94.5,108.3,95.3,108.4z"/>
<path class="st1" d="M97.5,105.6C97.5,105.6,97.5,105.6,97.5,105.6c0,0.1,0,0.1,0,0.2V105.6l-0.1-1.5L97.5,105.6z"/>
<path class="st0" d="M97.5,105.8c0,0.4,0,0.7-0.1,1c-0.1,0.3-0.2,0.5-0.3,0.7c-0.4,0.6-1,0.9-1.7,0.9h-0.1c-0.7,0-1.3-0.3-1.7-0.9
	c-0.1-0.2-0.2-0.4-0.3-0.7c-0.1-0.3-0.1-0.6-0.1-0.9c0,0,0-0.1,0-0.1l0-0.2l0.1-1.4l0,0l0.5-6.6c0-0.7,1.1-1.2,1.5-1.2
	s1.5,0.5,1.5,1.2l0.5,6.3v0.1l0.1,1.5L97.5,105.8C97.5,105.8,97.5,105.8,97.5,105.8z"/>
<path class="st0" d="M93.3,104.2l-0.1,1.4l0,0.2c0,0,0-0.1,0-0.2c0,0,0,0,0,0L93.3,104.2z"/>
<path class="st0" d="M97.1,107.4c0.1-0.2,0.2-0.4,0.3-0.7C97.3,107,97.2,107.3,97.1,107.4L97.1,107.4c-0.3,0.6-1,0.9-1.7,0.9
	C96.1,108.3,96.7,108,97.1,107.4z"/>
<path class="st0" d="M97.5,105.6C97.5,105.6,97.5,105.6,97.5,105.6c0,0.1,0,0.1,0,0.2V105.6l-0.1-1.5L97.5,105.6z"/>
<path class="st0" d="M101.6,107c-0.3,0.7-0.9,1.1-1.6,1.2c-0.9,0.1-1.6-0.1-2.1-0.8h0c-0.3-0.4-0.4-0.9-0.5-1.6c0,0,0,0,0-0.1
	c0,0,0-0.1,0-0.2c0,0,0,0,0,0l-0.1-1.5V104l-0.4-6.2c-0.1-0.7,0.9-1.3,1.3-1.4c0.4-0.1,1.5,0.3,1.7,0.9v0c0,0.1,0,0.2,0,0.2l0.6,2.7
	l0,0.2l1.1,4.6c0,0,0,0,0,0C101.8,105.9,101.8,106.5,101.6,107z"/>
<path class="st0" d="M97.5,105.6C97.5,105.6,97.5,105.6,97.5,105.6c0,0.1,0,0.1,0,0.2V105.6l-0.1-1.5L97.5,105.6z"/>
<path class="st0" d="M100.6,100.3l-0.6-2.7c0-0.1,0-0.2,0-0.2L100.6,100.3z"/>
<path class="st0" d="M106,106c-0.2,0.6-0.7,1.1-1.3,1.3c-0.8,0.3-1.6,0.2-2.2-0.5c-0.3-0.3-0.6-0.8-0.8-1.5l0-0.2l-1.1-4.7l0-0.2
	l-0.7-2.9v0c0-0.6,0.7-1.2,1.1-1.4c0.4-0.1,1.6,0,1.8,0.7l2.6,6.3l0.5,1.2l0.1,0.3v0C106.2,105.1,106.2,105.6,106,106z"/>
<path class="st0" d="M100.6,100.3l-0.6-2.7c0-0.1,0-0.2,0-0.2L100.6,100.3z"/>
<path class="st0" d="M106,104.4l-0.1-0.3l-0.5-1.2l0.4,1c0,0.1,0.1,0.1,0.1,0.2C105.9,104.3,106,104.4,106,104.4z"/>
<path class="st0" d="M110.3,104.6c-0.1,0.6-0.5,1.1-1.1,1.4c-0.8,0.4-1.6,0.4-2.3-0.2c-0.3-0.3-0.7-0.7-0.9-1.4v0
	c0-0.1,0-0.2-0.1-0.3c0-0.1,0-0.1-0.1-0.2l-0.4-1l-2.3-5.9c-0.3-0.6,0.5-1.5,0.9-1.7c0.4-0.2,1.5-0.2,1.9,0.4l4,6.8
	c0,0.1,0.1,0.1,0.1,0.2C110.3,103.5,110.4,104.1,110.3,104.6z"/>
<path class="st0" d="M106,104.4l-0.1-0.3l-0.5-1.2l0.4,1c0,0.1,0.1,0.1,0.1,0.2C105.9,104.3,106,104.4,106,104.4z"/>
<path class="st0" d="M93.7,97.8l-0.4,6.4l0,0l-0.1,1.3c0,0,0,0,0,0c0,0,0,0.1,0,0.2c0,0,0,0.1,0,0.1c-0.1,0.7-0.2,1.2-0.5,1.5h0
	c-0.5,0.7-1.2,0.9-2.1,0.8c-0.7-0.1-1.3-0.5-1.6-1.2c-0.2-0.5-0.2-1.1,0-1.9c0,0,0,0,0,0l1.1-4.8l0.1-0.4l0.5-2.3c0-0.1,0-0.1,0-0.2
	v0c0.1-0.7,1.2-1,1.7-0.9C92.9,96.5,93.8,97.1,93.7,97.8z"/>
<path class="st0" d="M90.8,97.4c0,0.1,0,0.1,0,0.2l-0.5,2.3L90.8,97.4z"/>
<path class="st0" d="M93.3,104.2l-0.1,1.4l0,0.2c0,0,0-0.1,0-0.2c0,0,0,0,0,0L93.3,104.2z"/>
<path class="st0" d="M90.8,97.4L90.8,97.4l-0.6,2.5l-0.1,0.4l-1.1,4.8l0,0.2c-0.2,0.7-0.4,1.2-0.8,1.5c-0.6,0.6-1.4,0.7-2.2,0.5
	c-0.6-0.2-1.1-0.6-1.3-1.3c-0.1-0.4-0.1-1,0.1-1.6v0l0.1-0.2l0,0l0.4-1.1l0,0l2.6-6.4c0.2-0.7,1.4-0.8,1.8-0.7
	C90,96.2,90.7,96.8,90.8,97.4z"/>
<path class="st0" d="M85.2,103.1l-0.4,1.1l0,0l-0.1,0.2c0-0.1,0-0.2,0.1-0.3c0-0.1,0.1-0.1,0.1-0.2L85.2,103.1z"/>
<path class="st0" d="M90.8,97.4c0,0.1,0,0.1,0,0.2l-0.5,2.3L90.8,97.4z"/>
<path class="st0" d="M87.6,97.1l-2.4,6l0,0l-0.4,0.9c0,0.1,0,0.1-0.1,0.2c0,0.1-0.1,0.2-0.1,0.3v0c-0.3,0.6-0.6,1.1-0.9,1.4
	c-0.7,0.5-1.5,0.5-2.3,0.2c-0.6-0.3-1-0.8-1.1-1.4c-0.1-0.5,0-1.1,0.4-1.8c0-0.1,0.1-0.1,0.1-0.2l4-6.8c0.3-0.6,1.5-0.6,1.9-0.4
	C87.1,95.5,87.9,96.4,87.6,97.1z"/>
<path class="st0" d="M85.2,103.1l-0.4,1.1l0,0l-0.1,0.2c0-0.1,0-0.2,0.1-0.3c0-0.1,0.1-0.1,0.1-0.2L85.2,103.1z"/>
<path class="st2" d="M105.8,95.7c-0.3-0.6-1.5-0.6-1.9-0.4c-0.3,0.2-0.9,0.8-0.9,1.4c1-0.2,2-0.5,2.9-0.9L105.8,95.7z M102.8,96.7
	c-0.2-0.7-1.4-0.8-1.8-0.7c-0.4,0.1-1,0.7-1.1,1.3C100.9,97.2,101.9,97,102.8,96.7L102.8,96.7z M98.2,96.4c-0.4,0.1-1.2,0.6-1.3,1.2
	c1,0,2-0.1,3-0.3C99.7,96.7,98.7,96.4,98.2,96.4z M95.3,96.5c-0.4,0-1.4,0.5-1.5,1.1c0.5,0,1,0,1.5,0c0.5,0,1,0,1.5,0
	C96.8,96.9,95.8,96.5,95.3,96.5z M92.4,96.4c-0.4-0.1-1.5,0.2-1.7,0.9c1,0.1,2,0.2,3,0.3C93.6,97,92.8,96.5,92.4,96.4z M89.7,96
	c-0.4-0.1-1.6,0-1.8,0.7l0,0.1c1,0.2,1.9,0.4,2.9,0.5C90.7,96.7,90,96.2,89.7,96z M86.7,95.3c-0.4-0.2-1.5-0.2-1.9,0.4l-0.1,0.2
	c0.9,0.3,1.9,0.6,2.9,0.8C87.6,96.1,87.1,95.5,86.7,95.3z"/>
<path class="st2" d="M188.2,56.7c0-1.6-1.3-2.9-2.7-2.9c-1.5,0-6.9,0.8-8.9,0.8s-25.3-0.5-30.7-0.2c-5.5,0.3-12.4,0.2-15.8-0.2
	c-2.7-0.3-12.4-0.8-17.2,1c-0.8,0.3-1.5,0.7-1.9,1.1c-0.3,0.3-0.5,0.5-0.6,0.8c-1.5,2.9-0.3,3.9,1,5c1.2,1,4.8,2.9,5.5,8.2
	c-4.2-5.6-12.2-9.4-21.5-9.4c-8.2,0-15.5,3-20,7.6c1.1-4.1,4.1-5.6,5.2-6.5c1.3-1.1,2.4-2.1,1-5c-0.2-0.4-0.6-0.8-1.1-1.1
	c-0.6-0.4-1.3-0.7-2.2-1h0c-5-1.5-14-1-16.5-0.8c-3.4,0.3-10.3,0.5-15.8,0.2c-5.5-0.3-28.8,0.2-30.7,0.2c-1.9,0-7.4-0.8-8.9-0.8
	c-1.4,0-2.7,1.3-2.7,2.9c0,1.6,2.7,2.8,4.3,3.7c-0.6,2.8,2.4,4.9,5.1,5.7c0,1.9,3.7,4.9,6.4,5.2c-0.6,2.4,4.7,4.5,7.7,4.5
	c0,3.6,5.3,4,8.4,4c0.6,3.7,5.8,3.4,9.3,2.9c0.6,3.9,6.6,2.4,9,1.8c1.1,3.1,4.2,1.8,6.9,1.1c0.5,0.6,1.1,1,1.8,1.2h0
	c0.6,0.2,1.3,0.3,2,0.2c1.1-0.1,2.1-0.4,2.8-0.8c1,2.2,4,1.7,5.7,1c2.4,3.7,6.5,6.8,11.6,8.6l0.1-0.2c0.3-0.6,1.5-0.6,1.9-0.4
	c0.3,0.2,0.9,0.8,0.9,1.4c0,0,0.1,0,0.2,0l0-0.1c0.2-0.7,1.4-0.8,1.8-0.7c0.4,0.1,1,0.7,1.1,1.3c0,0,0,0,0,0
	c0.2-0.6,1.2-0.9,1.7-0.9c0.4,0.1,1.2,0.6,1.3,1.2c0,0,0.1,0,0.1,0c0.1-0.7,1.1-1.1,1.5-1.1s1.4,0.5,1.5,1.1h0.1
	c0.1-0.6,0.9-1.1,1.3-1.2c0.4-0.1,1.5,0.3,1.7,0.9c0,0,0,0,0,0c0.1-0.6,0.7-1.2,1.1-1.3c0.4-0.1,1.6,0,1.8,0.7l0,0.1
	c0.1,0,0.1,0,0.2,0c0-0.6,0.6-1.2,0.9-1.4c0.4-0.2,1.5-0.2,1.9,0.4l0.1,0.1c5.2-1.9,9.4-5,11.8-8.9c1.5,0.8,5.5,1.9,6.6-0.7
	c0.5,0.2,1.1,0.5,1.8,0.6h0c0.6,0.1,1.2,0.2,1.9,0.2h0c1.1,0,2.2-0.4,2.9-1.4c2.7,0.7,5.8,2,6.9-1.1c2.4,0.6,8.4,2.1,9-1.8
	c3.5,0.5,8.7,0.8,9.3-2.9c3.1,0,8.4-0.5,8.4-4c3.1,0,8.4-2.1,7.7-4.5c2.7-0.3,6.4-3.2,6.4-5.2c2.7-0.8,5.8-2.9,5.2-5.7
	C185.5,59.4,188.2,58.3,188.2,56.7z M6.9,57.5c-1.6-2.1,0.4-2,1.9-2.1c5,0,16.6,0.3,18.8,0.3s18.2,1.8,20.7,2.6
	c1.1,0.3,1.4,1.5,0,1.5c-1.4,0.1-17.8,0.3-20.2,0.3C25.6,60.1,9.1,60.4,6.9,57.5z M11.2,62.7c-0.8-1.1,0.1-1,0.5-1
	c2.9,0.1,17.4,0.2,19.1,0.1c1.7-0.1,14.8-0.8,16.3-0.9c1.5-0.1,3,0.3,3,0.8c0,0.5-0.3,0.9-2.1,1.3c-1.8,0.4-18.1,2.3-30.5,2
	C15.2,65.1,12,63.9,11.2,62.7z M17.3,67c2,0,25.8-1.8,30.7-2.8c1.7-0.2,2.8-0.3,3,0.5c0.2,0.7,0.1,1-1.4,1.5
	c-1.4,0.4-19.1,3.7-28,3.9C18.7,69.9,15.3,67.1,17.3,67z M57.5,68.9c2.4-1.3,5-1.9,5.4-1.1c0.3,0.8-1.3,2-3.6,3.1
	C56.9,72,56.4,69.5,57.5,68.9z M55.6,66.7c0.8-0.5,1.9-1,2.8-1.4c0.3,0,1.2-0.4,1.7,0.3s0.3,1.8-2.8,2.6
	C54.2,69.1,54.8,67.2,55.6,66.7z M63.5,69.6c0,0,0.1,0,0.1,0c0.3-0.1,0.8-0.3,1,0.1c0.6,0.9-1.6,2.5-2.3,2.9c0,0,0,0,0,0
	c0,0-0.1,0-0.1,0.1c-0.5,0.3-1.6,0.9-2.2,0.2C59,71.3,62.3,70.1,63.5,69.6z M63.4,72.4c0.3-0.2,0.8-0.5,1.3-0.8
	c0.8-0.5,1.8-1,2.2-0.5c0.8,0.9-0.9,2.2-1.7,2.8c-0.4,0.4-0.9,0.5-1.3,0.5C62.6,74.4,61.7,73.4,63.4,72.4z M67,73
	c0.6-0.4,2.2-1.8,2.9-1c0.7,0.8-1.2,2.8-1.7,3.3c-0.5,0.6-1.2,1.4-2.3,0.6C64.6,75,66.3,73.8,67,73z M69.4,69.9
	c-0.7,0.5-1.9-0.3-0.8-1.5c-1,0.6-2.2,0.7-2.4-0.1c-0.1-0.3,0-0.6,0.2-1.1c-0.6,0.5-1.5,0.8-2,0.6c-0.5-0.2-0.7-0.8-0.1-2
	c-0.8,0.7-3.1,0.6-1.6-1.4c-1.2,0.4-2.6-0.3-1.7-1.5c-1.5,0.2-2.4-0.9-0.8-1.8c-1.5,0.4-1.9-1.4-1-1.5c1.7,0,7.9-0.2,9.7,0.2
	c0.5,0.1,1.1,0.2,1.6,0.4c0.7,0.2,1.3,0.4,1.9,0.8c0.6,0.3,1,0.8,1.4,1.3c0.8,1.4-0.6,3.6-1.2,4.5C72,67.5,70.1,69.3,69.4,69.9z
	 M59.2,63.8c0.2,0.5,0.3,0.8-1.7,1.8c-2,1-3.8,0.8-4.1-0.1c-0.2-0.7,0.5-1.3,1.3-1.4C56.8,63.7,59,63.2,59.2,63.8z M54.4,63.5
	c-2.1,0.3-2.7-0.4-2.9-0.8c-0.2-0.4-0.1-1,1.1-1.2c1.3-0.1,5-0.6,5,0.2C57.6,62.4,56.5,63.2,54.4,63.5z M52.6,61.2
	c-2.4,0.1-2.4-2.2-0.3-2.2c1.6,0,4.4,0.1,4.4,0.9C56.8,60.6,54.5,61.1,52.6,61.2z M23.3,72.9c-1-0.7,0.1-0.9,0.1-0.9
	c2.8-0.3,21.6-3.3,26.6-4.7c2-0.5,3-0.2,3.2,0.3c0.2,0.6,0.2,1.5-1.2,2c-1.4,0.5-18,4.4-21.1,4.5C27.9,74.4,24.3,73.7,23.3,72.9z
	 M36.1,78.4c-2.2,0-3.9-0.8-4.9-1.3c-0.6-0.3-0.4-0.3-0.2-0.9c2-0.4,18.4-4.1,23-5.9c1.4-0.4,1.8,0,2.1,0.5c0.2,0.5,0.3,1.2-0.6,1.6
	C54.6,72.8,42,78.1,36.1,78.4z M39.7,81.2c-1.5-0.5-0.8-1.4,0.4-1.7c4.3-1,15.6-5.8,17.5-6.6c0.2,0.3,1.7,1.4,2.3,1.7
	c-3.1,3.1-11.3,5.8-13.3,6.3C44.5,81.4,41.2,81.7,39.7,81.2z M48.8,83.4c-1.2-0.2-1.8-1.3-0.6-1.7c3.6-1.1,11.5-5.3,12.7-6.1
	c0.2,0.1,0.4,0.3,0.7,0.4c0.5,0.3,1.1,0.6,1.4,0.8c-0.3,0.3-0.9,0.8-1.6,1.3c-1.4,1.1-3.3,2.4-4.7,3.2C53.1,83.5,50,83.5,48.8,83.4z
	 M61.7,83.2c-1.6,1-3.1,1.4-4.1,1.5c-2.1,0.2-1.5-1-0.5-1.8c0.5-0.3,2.4-1.6,4.3-2.9c0.6-0.4,1.3-0.9,1.8-1.2c0.5-0.4,1-0.7,1.4-1
	c0.5,0.2,1.5,0.6,1.9,0.7c-1,1.5-2.1,2.6-3.2,3.5l0,0C62.8,82.5,62.3,82.9,61.7,83.2z M65,85.3c-0.3,0.2-0.6,0.2-0.9,0.2h0
	c-0.9-0.1-1.1-1.2-0.5-1.9c0,0,0,0,0,0c0,0,0,0,0,0c1.4-1.1,3.3-3.2,4.6-4.5c0.5,0.2,1.2,0.4,1.7,0.6C69.3,82.1,66.5,84.6,65,85.3z
	 M71,76.6c-0.4,0.4-1,0.7-1.5,0.5c-0.6-0.3-1-0.8-0.4-1.8c0.6-1,2.1-2.6,2.8-2c0,0,0.1,0.1,0.1,0.1C71.6,74.4,71.2,75.5,71,76.6z
	 M73.7,70.6c0,0.3,0,0.5,0,0.8c-0.1,0-0.3-0.1-0.4-0.2c-0.9-0.3-1.8-0.8-1-2.5c0.6-1.1,3.3-4.9,2.7-6.6c-0.3-0.7-0.8-1.4-1.7-1.9
	c-0.5-0.3-1.2-0.6-1.9-0.8c-1-0.3-2.3-0.5-3.8-0.5c-4.8-0.2-11.4,0-13.8-0.4c-2.3-0.4-11.3-2.7-13.2-2.9c-0.8-0.1-0.8-0.5-0.3-0.6
	c2.1,0,9.2,0.5,11.8,0.5c2.6,0,8.5-0.2,10.7-0.3c2.2-0.2,7.9-0.2,10.1,0c1,0.1,2.5,0.2,3.9,0.5h0c0.9,0.2,1.8,0.4,2.5,0.8
	c0.8,0.4,1.4,0.9,1.7,1.6c0.9,2.3-1,3.7-2.3,4.5C77.6,63.5,74.2,65.5,73.7,70.6z M96,92c-6,0.2-9.8-1.5-12.1-3.3
	c0.7-0.8,1-1.5,1.1-2.4V71.4c0-0.8-0.6-1.5-1.2-2c2.4-2.3,6.4-3.5,11.3-3.5c8.2,0,11,4,11,6.7c0,2.8-2.8,4.9-3.3,5.2
	c-0.5,0.3-0.6,0.9,0,1c2.4,0.8,4.6,3.2,4.6,5.5C107.5,89.8,101.9,91.8,96,92z M113,62.6c-1.2-0.9-3.1-2.2-2.3-4.5
	c0.2-0.5,0.6-1,1.2-1.3c0.6-0.4,1.4-0.7,2.2-0.9c1.7-0.4,3.6-0.6,4.8-0.7c2.3-0.2,8-0.2,10.1,0c2.2,0.2,8.1,0.3,10.7,0.3
	c2.6,0,9.7-0.5,11.8-0.5c0.6,0.1,0.6,0.5-0.2,0.6c-1.8,0.2-10.9,2.5-13.2,2.9c-2.3,0.4-9,0.2-13.8,0.4c-2,0.1-3.5,0.3-4.7,0.8h0
	c-0.7,0.3-1.3,0.6-1.7,0.9c-0.6,0.5-0.9,1-1.1,1.5c-0.6,1.7,2.1,5.4,2.7,6.6c1,2-0.4,2.3-1.4,2.7C117.9,65.7,114.2,63.5,113,62.6z
	 M130.7,62.8c0.9,1.2-0.5,1.9-1.7,1.5c1.5,1.9-0.8,2-1.6,1.4c1,2-0.1,2.4-1.3,1.9c-0.3-0.1-0.5-0.3-0.8-0.5c0.5,1.1,0.1,1.6-0.7,1.7
	c-0.5,0-1.1-0.1-1.6-0.5c1,1.2-0.2,2-0.8,1.5c-0.7-0.6-2.6-2.4-3.2-3.3s-2-3.1-1.2-4.5c0.2-0.3,0.5-0.6,0.8-0.9
	c0.5-0.4,1.1-0.7,1.7-0.9h0c0.8-0.3,1.7-0.5,2.5-0.6c1.8-0.3,8-0.2,9.7-0.2c1,0.1,0.6,1.9-1,1.5C133.1,61.9,132.3,63,130.7,62.8z
	 M122.6,75.3c0.5,1,0.1,1.5-0.4,1.8c-0.5,0.3-1.5-0.3-1.7-0.9c-0.2-0.5-1.4-2.2-0.7-2.9C120.6,72.7,122.1,74.3,122.6,75.3z
	 M121.8,72c0.7-0.8,2.3,0.6,2.9,1c0.7,0.8,2.4,2,1.1,2.9c-1.1,0.8-1.8,0-2.3-0.6C123,74.7,121.1,72.8,121.8,72z M124.9,71
	c0.2-0.2,0.4-0.2,0.8-0.2c0.8,0.2,1.8,1,2.4,1.3c0.1,0.1,0.2,0.1,0.3,0.2c1.3,0.8,1,1.6,0.3,1.9c-0.5,0.2-1.3,0.1-1.9-0.3
	c0,0-0.1,0-0.1-0.1C125.8,73.2,124.2,71.9,124.9,71z M127.8,71.3c-0.6-0.6-1-1.2-0.7-1.7c0,0,0,0,0,0c0.3-0.4,0.8-0.2,1,0
	c1.1,0.5,4.7,1.7,3.5,3.2c-0.6,0.8-1.7,0.1-2.2-0.2C129.2,72.4,128.4,71.9,127.8,71.3z M128.9,67.8c0.3-0.8,3-0.2,5.4,1.1
	c1.1,0.6,0.5,3.1-1.8,2C130.2,69.8,128.6,68.6,128.9,67.8z M134.5,68.3c-3.1-0.8-3.3-1.9-2.8-2.6c0.4-0.7,1.4-0.3,1.6-0.3
	c1,0.3,2,0.8,2.8,1.4C137,67.2,137.6,69.1,134.5,68.3z M134.3,65.6c-2-1-1.9-1.3-1.7-1.8c0.2-0.5,2.3-0.1,4.5,0.3
	c0.8,0.1,1.5,0.7,1.3,1.4C138.1,66.4,136.3,66.6,134.3,65.6z M137.3,63.5c-2.1-0.3-3.2-1.2-3.2-1.9c0-0.7,3.8-0.3,5-0.2
	c1.2,0.2,1.2,0.8,1,1.2C140,63.1,139.4,63.8,137.3,63.5z M139.2,61.2c-1.9-0.1-4.2-0.6-4.1-1.3c0-0.8,2.8-0.8,4.4-0.9
	C141.6,59,141.6,61.3,139.2,61.2z M122.2,86c-0.6,0.2-1.8,0.9-3.2-1.8c0-0.1-0.1-0.1-0.1-0.2l0.5-1.2l0.8-1.8c1,1.3,2.1,2.3,2.7,3.2
	C123.7,85,122.8,85.8,122.2,86z M126.8,85.3c-0.1,0-0.1-0.1-0.2-0.1c-1.6-0.8-4.2-3.2-4.8-5.6c0.6-0.2,1.2-0.3,1.7-0.6
	c1,1,2.4,2.5,3.6,3.7l0,0c0.3,0.3,0.6,0.6,0.9,0.8C129,84.4,128.3,86,126.8,85.3z M134.2,84.7c-1.3-0.1-3.2-0.7-5.2-2.2
	c-0.5-0.4-1.1-0.9-1.7-1.4c-0.7-0.7-1.5-1.6-2.2-2.6c0.4-0.1,1.4-0.5,1.9-0.7c0.1,0.1,0.2,0.1,0.3,0.2c0.5,0.4,1.2,0.8,1.9,1.3
	c2.2,1.5,4.9,3.3,5.4,3.6C135.7,83.6,136.3,84.8,134.2,84.7z M143,83.4c-1.2,0.2-4.3,0.2-7.9-2c-1.9-1.1-4.7-3.1-5.9-4.2
	c-0.2-0.1-0.3-0.3-0.4-0.4c0.1-0.1,0.2-0.1,0.4-0.2c0.5-0.3,1.3-0.8,1.7-1c1.2,0.8,9.1,4.9,12.7,6.1C144.7,82.1,144.2,83.2,143,83.4
	z M152.1,81.2c-1.4,0.5-4.8,0.2-6.8-0.3c-2-0.6-10.2-3.2-13.3-6.3c0.6-0.3,2.1-1.4,2.3-1.7c1.9,0.9,13.1,5.7,17.5,6.6
	C152.9,79.8,153.5,80.7,152.1,81.2z M160.6,77.1c-1,0.5-2.7,1.3-4.9,1.3c-6-0.3-18.5-5.6-19.4-6c-0.9-0.4-0.8-1.1-0.6-1.6
	c0.2-0.5,0.7-0.9,2.1-0.5c4.7,1.8,21,5.5,23,5.9C161,76.8,161.2,76.8,160.6,77.1z M168.5,72.9c-1,0.7-4.6,1.5-7.6,1.3
	c-3.1-0.2-19.6-4-21.1-4.5c-1.5-0.5-1.5-1.5-1.2-2c0.3-0.6,1.2-0.8,3.2-0.3c5.1,1.4,23.8,4.4,26.6,4.7
	C168.4,72,169.4,72.2,168.5,72.9z M170.1,70c-8.9-0.2-26.5-3.5-28-3.9c-1.5-0.4-1.5-0.7-1.4-1.5c0.2-0.7,1.3-0.7,3-0.5
	c5,1,28.7,2.8,30.7,2.8C176.5,67.1,173.1,69.9,170.1,70z M180.5,62.7c-0.8,1.1-3.9,2.3-6.3,2.3c-12.4,0.3-28.7-1.6-30.5-2
	c-1.8-0.4-2.1-0.8-2.1-1.3c0-0.5,1.5-0.9,3-0.8c1.5,0.1,14.7,0.8,16.3,0.9c1.7,0.1,16.2,0,19.1-0.1
	C180.5,61.7,181.4,61.6,180.5,62.7z M184.9,57.5c-2.2,2.9-18.8,2.7-21.2,2.7c-2.4,0-18.8-0.3-20.2-0.3c-1.4-0.1-1.1-1.2,0-1.5
	c2.5-0.8,18.4-2.6,20.7-2.6c2.3,0,13.8-0.3,18.8-0.3C184.5,55.4,186.5,55.4,184.9,57.5z"/>
<path class="st3" d="M77.5,56.8c1.1,0.6,2.4,1.4,2.5,2.2c0.1,0.8-0.2,1.6-1.5,2.6"/>
<path class="st3" d="M114.3,56.8c-1.1,0.6-2.4,1.4-2.5,2.2c-0.1,0.8,0.2,1.6,1.5,2.6"/>
<path class="st2" d="M73.3,71.2c0.1,0.1,0.3,0.1,0.4,0.2c0-0.3,0-0.5,0-0.8C73.6,70.8,73.4,71,73.3,71.2z M118.9,84
	c0,0.1,0.1,0.1,0.1,0.2c0.2-0.5,0.3-0.9,0.4-1.4L118.9,84z"/>
<path class="st2" d="M95.4,77.2c2.1,0,3.8-1.8,3.8-4.1c0-2.3-1.7-4.1-3.8-4.1s-3.8,1.8-3.8,4.1C91.7,75.4,93.3,77.2,95.4,77.2
	L95.4,77.2z"/>
<path class="st2" d="M95.9,88.6c2.3,0,4.2-1.9,4.2-4.4c0-2.4-1.9-4.4-4.2-4.4c-2.3,0-4.2,1.9-4.2,4.4C91.7,86.7,93.6,88.6,95.9,88.6
	L95.9,88.6z"/>
</svg>
