<?xml version="1.0" encoding="utf-8"?>
<!-- Generator: Adobe Illustrator 24.3.0, SVG Export Plug-In . SVG Version: 6.00 Build 0)  -->
<svg version="1.1" id="Слой_1" xmlns="http://www.w3.org/2000/svg" xmlns:xlink="http://www.w3.org/1999/xlink" x="0px" y="0px"
	 viewBox="0 0 53 53" style="enable-background:new 0 0 53 53;" xml:space="preserve">
<style type="text/css">
	.st0{fill:#303030;}
	.st1{fill:#0066B1;}
</style>
<desc>Created with Sketch.</desc>
<g id="BMW-logo-grey-fallback-53px">
	<g id="BMW-logo">
		<g id="BMW-logo-fallback">
			<g id="BMW_Grey-Colour_RGB-2">
				<g id="BMW_Grey-Colour_RGB">
					<path id="Shape" class="st0" d="M26.5,5C14.6,5,5,14.6,5,26.5S14.6,48,26.5,48S48,38.4,48,26.5S38.4,5,26.5,5L26.5,5z
						 M46.6,26.5c0,11.1-9,20.1-20.1,20.1s-20.1-9-20.1-20.1s9-20.1,20.1-20.1S46.6,15.4,46.6,26.5z"/>
					<path id="Shape_1_" class="st0" d="M26.5,13.8v0.7l0,0c6.6,0,12,5.4,12,12h0.7C39.2,19.5,33.5,13.8,26.5,13.8L26.5,13.8
						 M26.5,38.5c-6.6,0-12-5.4-12-12h-0.7c0,7,5.7,12.7,12.7,12.7"/>
					<g id="Group" transform="translate(7.197531, 3.271605)">
						<path id="W_61_" class="st0" d="M29.6,14.2c0.3,0.3,0.7,0.8,0.9,1.1l4.3-2.7c-0.2-0.3-0.6-0.7-0.8-1l-2.8,1.8l-0.2,0.2
							l0.1-0.2l1.2-2.4L31.6,10l-2.4,1.2L29,11.4l0.2-0.2L31,8.5c-0.3-0.3-0.6-0.5-1-0.8l-2.8,4.3c0.3,0.3,0.8,0.7,1.1,0.9l2.6-1.3
							l0.2-0.1l-0.1,0.2L29.6,14.2z"/>
						<path id="M_61_" class="st0" d="M19.7,8.7L20.9,6L21,5.8l0,0.2l0.1,3.5c0.4,0,0.8,0.1,1.3,0.2l-0.2-5.2
							c-0.6-0.1-1.2-0.1-1.8-0.1l-1.2,2.9l0,0.2l0-0.2L18,4.4c-0.6,0-1.2,0.1-1.8,0.1L16,9.8c0.4-0.1,0.9-0.1,1.3-0.2l0.1-3.5l0-0.2
							L17.5,6l1.2,2.6H19.7z"/>
						<path id="B_x5F_22d_61_" class="st0" d="M10.1,12.9c0.7-0.7,1.1-1.5,0.4-2.3c-0.4-0.4-1-0.5-1.5-0.3l-0.1,0l0,0
							C9,10,9.1,9.3,8.5,8.9c-0.3-0.2-0.6-0.3-1-0.3c-0.6,0.1-1.1,0.5-2.5,2c-0.4,0.5-1,1.2-1.4,1.6l3.7,3.5
							C8.6,14.4,9.1,13.9,10.1,12.9z M5.3,12c0.7-0.9,1.5-1.7,1.9-2.1c0.1-0.1,0.2-0.2,0.4-0.2c0.2-0.1,0.5,0.1,0.6,0.4
							c0.1,0.2-0.1,0.5-0.3,0.7C7.4,11.2,6,12.7,6,12.7L5.3,12z M6.7,13.4c0,0,1.4-1.5,1.9-2c0.2-0.2,0.3-0.3,0.4-0.4
							c0.2-0.1,0.3-0.1,0.5,0c0.2,0.1,0.2,0.3,0.2,0.5c0,0.2-0.2,0.4-0.4,0.6c-0.2,0.2-1.9,2-1.9,2L6.7,13.4z"/>
					</g>
					<path id="Path" class="st1" d="M26.5,13.8v12.7H13.8C13.8,19.5,19.5,13.8,26.5,13.8z"/>
					<path id="Path_1_" class="st1" d="M39.2,26.5c0,7-5.7,12.7-12.7,12.7V26.5H39.2z"/>
				</g>
			</g>
		</g>
	</g>
</g>
</svg>
