<?xml version="1.0" encoding="utf-8"?>
<!-- Generator: Adobe Illustrator 24.3.0, SVG Export Plug-In . SVG Version: 6.00 Build 0)  -->
<svg version="1.1" xmlns="http://www.w3.org/2000/svg" xmlns:xlink="http://www.w3.org/1999/xlink" x="0px" y="0px"
	 viewBox="0 0 1000 359.9" style="enable-background:new 0 0 1000 359.9;" xml:space="preserve">
<style type="text/css">
	.st0{fill:#2D4185;}
	.st1{opacity:0.44;fill:#FFFFFF;}
</style>
<g id="Слой_2">
</g>
<g id="svg3359" inkscape:version="0.92.2 (5c3e80d, 2017-08-06)" sodipodi:docname="Ford (Darker).svg" xmlns:cc="http://creativecommons.org/ns#" xmlns:dc="http://purl.org/dc/elements/1.1/" xmlns:inkscape="http://www.inkscape.org/namespaces/inkscape" xmlns:rdf="http://www.w3.org/1999/02/22-rdf-syntax-ns#" xmlns:sodipodi="http://sodipodi.sourceforge.net/DTD/sodipodi-0.dtd" xmlns:svg="http://www.w3.org/2000/svg">
	
		<sodipodi:namedview  bordercolor="#666666" borderopacity="1.0" fit-margin-bottom="0" fit-margin-left="0" fit-margin-right="0" fit-margin-top="0" id="base" inkscape:current-layer="layer1" inkscape:cx="472.96732" inkscape:cy="225.94514" inkscape:document-units="px" inkscape:pageopacity="0.0" inkscape:pageshadow="2" inkscape:window-height="705" inkscape:window-maximized="1" inkscape:window-width="1366" inkscape:window-x="-8" inkscape:window-y="-8" inkscape:zoom="1.1267387" pagecolor="#ffffff" showgrid="false">
		<inkscape:grid  empspacing="5" enabled="true" id="grid4325" snapvisiblegridlinesonly="true" type="xygrid" visible="true">
			</inkscape:grid>
	</sodipodi:namedview>
	<g id="layer1" transform="translate(-78,-594.21578)" inkscape:groupmode="layer" inkscape:label="Layer 1">
		<path class="st0" d="M781.8,810.8c-0.3,0.7-0.3,1.2-0.2,1.7c0.2,0.9,1.3,1.7,2.4,2.1c0.4,0.1,0.6,0.4,0.2,1.3
			c-3.2,6.7-6.1,10.6-10.1,16.5c-3.7,5.4-7.8,9.6-12.8,13.7c-7.5,6.2-18,12.9-26.7,8.4c-3.8-2-5.5-7.3-5.4-11.6
			c0.2-12.1,5.6-24.6,15.7-36.8c12.3-15,25.8-22.7,34.7-18.5C788.9,792,785.9,802.6,781.8,810.8z"/>
		<path class="st0" d="M542,716.2c-2-1.7-5.2-1.2-7.6,0.9c-4.8,4.2-6.2,10.1-5.6,14.6c0.3,1.7,1,2,1.7,1.9c3.8-0.8,8-3.9,10.4-7.5
			C543.2,722.8,544.2,718.1,542,716.2z M542,716.2c-2-1.7-5.2-1.2-7.6,0.9c-4.8,4.2-6.2,10.1-5.6,14.6c0.3,1.7,1,2,1.7,1.9
			c3.8-0.8,8-3.9,10.4-7.5C543.2,722.8,544.2,718.1,542,716.2z M578,594.2c-276.3,0-500,80.4-500,180c0,99.5,223.8,180,500,180
			c276.3,0,500-80.5,500-180C1078,674.7,854.3,594.2,578,594.2z M580.6,938.3c-266,0-481.7-74.3-481.7-166
			c0-91.7,215.6-166,481.7-166c266,0,481.6,74.3,481.6,166C1062.2,864,846.6,938.3,580.6,938.3z M580.6,620.8
			c-256.7,0-464.7,67.9-464.7,151.6c0,83.7,208,151.6,464.7,151.6s464.7-67.9,464.7-151.6C1045.3,688.6,837.2,620.8,580.6,620.8z
			 M338.2,876.7c-27.9,0.2-52.4-16.9-55.2-46.4c-1.6-16.4,3.1-31,12.4-43c8.3-10.7,22.3-19.6,34.2-21.8c3.9-0.7,9.1-0.3,11.2,2.3
			c3.4,3.9,2.4,8.2-1,9.8c-9.1,4.6-20,12.4-25.4,23.1c-4.4,8.8-5.3,19.3,1.4,29.3c11.2,16.7,42.4,17.2,71.4-9.5
			c7.2-6.5,13.6-12.8,20.1-20.2c12.8-14.5,17-19.7,34-43.1c0.2-0.3,0.3-0.6,0.2-0.8c-0.1-0.3-0.4-0.4-0.9-0.4
			c-11.3,0.3-21.2,3.6-30.8,10.8c-2.8,2-6.7,1.7-8.5-0.9c-1.9-3-0.5-6.8,2.7-9c15.5-10.6,32.3-12.6,49.6-15.5c0,0,1.2,0.1,2.2-1.2
			c7.1-9,12.4-17.1,20-26.2c7.6-9.2,17.4-17.7,24.9-24.1c10.5-8.9,17.2-11.9,24-15.6c1.8-0.9-0.2-2-0.8-2
			c-38.1-7.1-77.7-16.3-115.6-2.4c-26.2,9.7-37.7,30.3-32.2,44c3.9,9.8,16.9,11.3,29,5.5c10.1-4.9,19.4-12.8,26-22.9
			c3.7-5.6,11.5-1.6,7.3,8.2c-11.1,25.8-32.2,46.2-58,47.1c-21.9,0.7-36.1-15.3-36-35c0.1-38.9,43.8-64.5,89.8-68.3
			C489.6,644,542,658.6,597,665.2c42.1,5,82.4,5.2,124.8-4.5c5-1.1,8.5,2.1,8.2,7.1c-0.4,7.2-6.1,14.2-20,21.7
			c-15.8,8.6-32.4,11.2-49.7,11.4c-41.9,0.3-80.9-15.8-121.2-24.5c0.1,1.8,0.5,3.8-1,4.9c-22.4,16.3-42.6,32.9-56.1,56.2
			c-0.4,0.5-0.2,1,0.6,1c11.8-0.6,22.3-0.9,33.3-1.8c1.9-0.2,2-0.6,1.8-2c-1-8,1.4-17.2,8.5-23.5c7.3-6.5,16.4-7.2,22.5-2.6
			c6.9,5.3,6.3,14.9,2.5,22c-3.8,7.3-10.2,11.2-16.2,13c0,0-1.3,0.3-1.1,1.4c0.2,1.8,8.5,6.4,9.2,7.6c0.7,1.1,0.3,2.9-0.9,4.3
			c-0.9,1-2.3,1.9-4,1.9c-1.4,0-2.3-0.5-4.1-1.5c-3.7-2-8.4-5.3-11.5-9.1c-1.1-1.3-1.6-1.3-4.2-1.2c-11.9,0.7-30.4,2.4-42.9,4
			c-3,0.4-3.5,0.9-4.1,2c-20,32.7-41.3,67.9-64.8,91.4C381.3,869.9,360.4,876.5,338.2,876.7z M880.5,718.1
			c-3.9,6.7-78.6,119.3-83.4,131c-1.5,3.7-1.7,6.5-0.1,8.5c3.9,5.2,12.6,2.2,18.1-1.6c16.2-11.1,27.4-24.4,39.8-36.1
			c0.7-0.5,1.9-0.7,2.8,0c1.8,1.7,4.5,3.9,6.4,5.8c0.9,0.9,0.5,1.8,0.1,2.4c-12.2,14.7-25.6,28.6-38.4,38.4
			c-20,15.3-40,19.2-49.8,9.4c-3.7-3.7-5.7-8.9-6-13.3c-0.1-2.4-1.4-2.5-2.5-1.4c-11.8,11.6-32.3,24.4-50.9,15.3
			c-15.6-7.6-19.2-26-16.3-41.6c0-0.3-0.3-2.5-2.2-1.2c-3.3,2.3-7.5,4.9-12.8,6.8c-6.5,2.4-9.5,3.3-15.5,3.2
			c-7.6,0-14.4-3.2-19.2-10.7c-2.7-4-3.8-10.1-4-14.6c0-0.5-0.7-1.4-1.4-0.2c-12.7,19.3-24.6,37.9-37.2,57.4
			c-0.7,0.9-1.2,1.5-2.5,1.6c-7.8,0-16.3,0-25,0c-1.5,0-2.3-1.1-1.5-2.6c4.4-8.5,28.6-43.4,45.1-73.1c4.5-8.2,3.6-12.4,0.8-14.2
			c-3.5-2.3-10.5,1.1-16.4,5.6c-16.1,12.1-29.7,31-36.5,39.4c-4,5-7.9,12.3-18.4,23.6c-16.6,17.9-38.7,28.1-59.9,21
			c-11.6-3.9-20-13.1-23.2-24.4c-0.6-2.2-1.9-2.8-3.1-1.4c-3.4,4.2-10.5,10.5-16.3,14.4c-0.6,0.5-2.2,1.4-3.6,0.7
			c-1.2-0.5-5.6-6.6-6.5-8.4c-0.6-1.3-0.1-2.7,0.7-3.4c8.4-7.3,13-11.4,16.6-16c2.7-3.4,4.8-7.2,7.3-13.3
			c5.1-12.7,16.7-36.5,39.9-48.8c8.8-4.7,17.8-8.1,27.7-9.2c4.3-0.5,7.8,0.1,9,3.4c0.5,1.4,1.7,4.4,2.4,6.6c0.5,1.3,0.1,2.4-1.5,3
			c-13.7,5.1-27.4,13.1-36.8,25.7c-10.7,14.3-13.6,31.4-6.4,41.3c5.2,7.1,13.7,8.4,21.9,5.8c12.4-3.9,22.9-15.3,28.3-27.9
			c5.9-13.8,6.8-30.2,2.5-44.6c-0.7-2.5-0.1-4.4,1.6-5.7c3.3-2.6,7.8-4.7,9.1-5.4c2.8-1.6,6.2-0.4,7.8,1.9c4.5,6.6,7,16,7.2,25.6
			c0.3,2,1.2,2.1,2.2,1c8.1-8.5,15.6-17.6,24.2-24.4c7.8-6.2,17.9-11.3,27.3-11c12.1,0.3,18.2,8.5,17.8,23c0,1.9,1.3,1.7,2.2,0.5
			c3.6-5.1,6-7.7,10.2-11.1c8.4-6.9,17-9.9,26-9.3c11,0.8,19.9,10.8,18.1,22.2c-1.2,7.3-5.2,13.8-12,17.1
			c-5.8,2.8-12.5,2.3-17.2-1.9c-3.8-3.5-5.1-8.5-4.1-13.5c0.2-1-1.2-2-2.3-0.9c-10.8,11.1-11.6,25.5-4.5,32c7.8,7.2,19.5,2.4,28-3.1
			c15.6-10.1,27.7-23.7,41.7-34.3c9.3-7,19.8-13.2,31.7-14.8c6.6-0.9,12.9-0.4,19.3,2.2c8.5,3.4,13.9,10.5,14.5,16.6
			c0.2,1.8,1.5,2,2.7,0.4c6.7-10.4,42.8-63.9,45.7-69.5c0.9-1.8,1.9-2,3.8-2c8,0,18.1,0,25.8,0C880.4,716,881.1,716.9,880.5,718.1z
			 M530.5,733.5c3.8-0.8,8-3.9,10.4-7.5c2.3-3.3,3.3-8,1.1-9.8c-2-1.7-5.2-1.2-7.6,0.9c-4.8,4.2-6.2,10.1-5.6,14.6
			C529.1,733.3,529.7,733.6,530.5,733.5z"/>
	</g>
	<g>
		<path id="path3534_1_" inkscape:connector-curvature="0" class="st1" d="M502.6,344.1c-266,0-481.7-74.3-481.7-166
			c0-91.7,215.6-166,481.7-166c266,0,481.6,74.3,481.6,166C984.2,269.8,768.6,344.1,502.6,344.1L502.6,344.1z M502.6,26.5
			c-256.7,0-464.7,67.9-464.7,151.6s208.1,151.6,464.7,151.6c256.7,0,464.7-67.9,464.7-151.6S759.2,26.5,502.6,26.5z"/>
		<path id="path3549_1_" inkscape:connector-curvature="0" class="st1" d="M802.5,123.8c0.7-1.2,0-2-1.5-2c-7.7,0-17.8,0-25.8,0
			c-1.9,0-2.9,0.2-3.8,2c-3,5.6-39,59.1-45.7,69.5c-1.1,1.6-2.5,1.4-2.7-0.4c-0.7-6.2-6.1-13.3-14.5-16.7
			c-6.5-2.6-12.8-3.1-19.3-2.2c-11.9,1.6-22.4,7.8-31.7,14.8c-14,10.5-26.1,24.2-41.7,34.3c-8.5,5.5-20.2,10.3-28,3.1
			c-7.1-6.5-6.3-20.9,4.5-32c1.1-1.2,2.5-0.2,2.3,0.9c-1,5,0.2,10,4.1,13.5c4.7,4.2,11.5,4.7,17.2,1.9c6.8-3.3,10.8-9.8,12-17.1
			c1.8-11.4-7-21.4-18.1-22.2c-9-0.6-17.6,2.5-26,9.3c-4.2,3.5-6.6,6-10.2,11.1c-0.9,1.3-2.2,1.4-2.2-0.5c0.4-14.5-5.7-22.7-17.8-23
			c-9.4-0.2-19.5,4.8-27.3,11c-8.6,6.8-16.1,15.9-24.2,24.4c-1,1-1.9,1-2.2-1c-0.2-9.6-2.7-19-7.2-25.6c-1.6-2.3-4.9-3.4-7.8-1.9
			c-1.3,0.7-5.8,2.8-9.1,5.4c-1.6,1.3-2.3,3.3-1.6,5.7c4.4,14.4,3.4,30.8-2.5,44.6c-5.4,12.7-15.9,24.1-28.3,27.9
			c-8.1,2.6-16.6,1.3-21.9-5.8c-7.2-9.9-4.3-27,6.4-41.3c9.5-12.6,23.2-20.5,36.8-25.7c1.6-0.6,1.9-1.6,1.5-3
			c-0.7-2.2-1.9-5.3-2.4-6.6c-1.3-3.3-4.8-3.8-9-3.4c-9.9,1.1-18.9,4.5-27.7,9.2c-23.2,12.3-34.8,36.1-39.9,48.8
			c-2.4,6.1-4.5,9.9-7.3,13.3c-3.7,4.5-8.2,8.7-16.6,16c-0.8,0.7-1.3,2.1-0.7,3.4c0.9,1.8,5.2,7.8,6.4,8.4c1.4,0.7,3-0.3,3.6-0.7
			c5.9-3.9,12.9-10.2,16.3-14.4c1.2-1.4,2.4-0.8,3.1,1.4c3.2,11.3,11.6,20.6,23.2,24.4c21.2,7.1,43.3-3.2,59.9-21
			c10.6-11.4,14.4-18.7,18.4-23.6c6.9-8.4,20.4-27.3,36.5-39.4c5.9-4.5,12.9-7.9,16.4-5.6c2.8,1.8,3.7,6-0.8,14.2
			c-16.4,29.7-40.6,64.7-45.1,73.1c-0.8,1.5-0.1,2.6,1.4,2.6c8.6,0,17.1,0,24.9,0c1.3-0.1,1.9-0.6,2.5-1.6
			c12.6-19.6,24.5-38.2,37.2-57.4c0.7-1.1,1.4-0.3,1.4,0.2c0.3,4.5,1.4,10.6,4,14.6c4.8,7.4,11.6,10.6,19.2,10.7
			c6,0.1,9.1-0.8,15.6-3.2c5.3-1.9,9.5-4.5,12.8-6.8c1.9-1.3,2.2,0.9,2.2,1.2c-2.9,15.5,0.7,33.9,16.3,41.6
			c18.7,9.1,39.1-3.7,50.9-15.2c1.2-1.1,2.4-1,2.5,1.4c0.2,4.4,2.3,9.6,5.9,13.3c9.9,9.8,29.8,5.9,49.8-9.4
			c12.8-9.8,26.3-23.7,38.4-38.4c0.5-0.6,0.8-1.5-0.1-2.4c-1.8-1.9-4.5-4.1-6.4-5.8c-0.8-0.7-2.1-0.5-2.8,0
			c-12.4,11.7-23.7,25.1-39.8,36.1c-5.5,3.8-14.2,6.8-18.1,1.6c-1.5-2-1.4-4.9,0.2-8.5C723.8,243.2,798.6,130.5,802.5,123.8
			L802.5,123.8z M703.6,218.3c0.2,0.9,1.3,1.7,2.4,2.1c0.4,0.1,0.6,0.4,0.2,1.3c-3.2,6.7-6.1,10.6-10.1,16.5
			c-3.7,5.4-7.8,9.6-12.8,13.7c-7.5,6.2-18,12.9-26.7,8.4c-3.8-2-5.5-7.3-5.4-11.6c0.2-12.1,5.6-24.6,15.7-36.8
			c12.3-15,25.8-22.7,34.7-18.5c9.2,4.4,6.3,14.9,2.1,23.2C703.5,217.3,703.5,217.8,703.6,218.3L703.6,218.3z"/>
		<path id="path3564_1_" inkscape:connector-curvature="0" class="st1" d="M260.2,282.5c-27.9,0.2-52.4-16.9-55.2-46.4
			c-1.6-16.4,3.1-30.9,12.5-43c8.3-10.7,22.3-19.6,34.2-21.8c3.9-0.7,9.1-0.3,11.2,2.3c3.4,3.9,2.4,8.1-1,9.8
			c-9.1,4.6-20,12.4-25.4,23.1c-4.4,8.7-5.3,19.3,1.4,29.3c11.2,16.7,42.4,17.2,71.4-9.5c7.2-6.5,13.6-12.8,20.1-20.2
			c12.8-14.5,17-19.7,34-43.1c0.2-0.3,0.3-0.6,0.2-0.8c-0.1-0.3-0.4-0.4-0.9-0.4c-11.3,0.3-21.2,3.7-30.8,10.8
			c-2.8,2-6.7,1.7-8.5-0.9c-1.9-3-0.6-6.8,2.6-9c15.5-10.6,32.3-12.6,49.6-15.5c0,0,1.2,0.1,2.2-1.2c7.1-9,12.4-17.1,20-26.2
			c7.6-9.2,17.4-17.7,24.9-24.1c10.5-8.9,17.2-11.9,24-15.6c1.8-0.9-0.2-2-0.8-2c-38.1-7.1-77.7-16.3-115.6-2.4
			c-26.2,9.7-37.7,30.3-32.2,44c3.9,9.8,16.9,11.3,29,5.5c10.1-4.9,19.4-12.8,26-22.9c3.7-5.6,11.5-1.6,7.3,8.2
			c-11.1,25.8-32.2,46.2-58,47.1c-21.9,0.7-36.1-15.3-36-35c0.1-38.9,43.8-64.5,89.8-68.3C411.6,49.8,464,64.4,518.9,71
			c42.1,5,82.4,5.2,124.8-4.5c5-1.1,8.5,2.1,8.2,7.1c-0.4,7.2-6.1,14.2-20,21.7c-15.8,8.6-32.4,11.2-49.7,11.4
			c-41.9,0.3-80.9-15.8-121.2-24.5c0.1,1.7,0.5,3.8-1,4.9c-22.4,16.3-42.6,32.9-56.1,56.2c-0.5,0.5-0.2,1.1,0.6,1
			c11.8-0.6,22.3-0.9,33.3-1.8c1.9-0.2,2-0.6,1.8-2c-1-8,1.4-17.2,8.5-23.5c7.3-6.5,16.4-7.2,22.5-2.5c6.9,5.3,6.3,14.9,2.5,22
			c-3.8,7.3-10.2,11.2-16.2,13c0,0-1.3,0.3-1.1,1.4c0.2,1.8,8.5,6.4,9.2,7.6c0.7,1.2,0.3,2.9-0.9,4.3c-0.9,1-2.3,1.9-4,1.9
			c-1.4,0-2.3-0.5-4.1-1.5c-3.7-2-8.4-5.3-11.5-9.1c-1.1-1.3-1.6-1.3-4.2-1.2c-11.9,0.7-30.4,2.4-42.9,4c-3,0.4-3.5,0.9-4.1,2
			c-20,32.6-41.3,67.9-64.8,91.4C303.3,275.7,282.4,282.3,260.2,282.5L260.2,282.5z M450.7,137.4c0.3,1.7,1,2,1.7,1.9
			c3.8-0.8,8-3.9,10.4-7.5c2.3-3.3,3.3-8,1.1-9.8c-2-1.7-5.2-1.2-7.6,0.9C451.6,127.1,450.1,133,450.7,137.4L450.7,137.4
			L450.7,137.4z"/>
	</g>
	<g>
		<path id="path3534" inkscape:connector-curvature="0" class="st1" d="M502.6,345.1c-266,0-481.7-74.3-481.7-166
			c0-91.7,215.6-166,481.7-166c266,0,481.6,74.3,481.6,166C984.2,270.8,768.6,345.1,502.6,345.1L502.6,345.1z M502.6,27.5
			c-256.7,0-464.7,67.9-464.7,151.6s208.1,151.6,464.7,151.6c256.7,0,464.7-67.9,464.7-151.6S759.2,27.5,502.6,27.5z"/>
		<path id="path3549" inkscape:connector-curvature="0" class="st1" d="M802.5,124.8c0.7-1.2,0-2-1.5-2c-7.7,0-17.8,0-25.8,0
			c-1.9,0-2.9,0.2-3.8,2c-3,5.6-39,59.1-45.7,69.5c-1.1,1.6-2.5,1.4-2.7-0.4c-0.7-6.2-6.1-13.3-14.5-16.7
			c-6.5-2.6-12.8-3.1-19.3-2.2c-11.9,1.6-22.4,7.8-31.7,14.8c-14,10.5-26.1,24.2-41.7,34.3c-8.5,5.5-20.2,10.3-28,3.1
			c-7.1-6.5-6.3-20.9,4.5-32c1.1-1.2,2.5-0.2,2.3,0.9c-1,5,0.2,10,4.1,13.5c4.7,4.2,11.5,4.7,17.2,1.9c6.8-3.3,10.8-9.8,12-17.1
			c1.8-11.4-7-21.4-18.1-22.2c-9-0.6-17.6,2.5-26,9.3c-4.2,3.5-6.6,6-10.2,11.1c-0.9,1.3-2.2,1.4-2.2-0.5c0.4-14.5-5.7-22.7-17.8-23
			c-9.4-0.2-19.5,4.8-27.3,11c-8.6,6.8-16.1,15.9-24.2,24.4c-1,1-1.9,1-2.2-1c-0.2-9.6-2.7-19-7.2-25.6c-1.6-2.3-4.9-3.4-7.8-1.9
			c-1.3,0.7-5.8,2.8-9.1,5.4c-1.6,1.3-2.3,3.3-1.6,5.7c4.4,14.4,3.4,30.8-2.5,44.6c-5.4,12.7-15.9,24.1-28.3,27.9
			c-8.1,2.6-16.6,1.3-21.9-5.8c-7.2-9.9-4.3-27,6.4-41.3c9.5-12.6,23.2-20.5,36.8-25.7c1.6-0.6,1.9-1.6,1.5-3
			c-0.7-2.2-1.9-5.3-2.4-6.6c-1.3-3.3-4.8-3.8-9-3.4c-9.9,1.1-18.9,4.5-27.7,9.2c-23.2,12.3-34.8,36.1-39.9,48.8
			c-2.4,6.1-4.5,9.9-7.3,13.3c-3.7,4.5-8.2,8.7-16.6,16c-0.8,0.7-1.3,2.1-0.7,3.4c0.9,1.8,5.2,7.8,6.4,8.4c1.4,0.7,3-0.3,3.6-0.7
			c5.9-3.9,12.9-10.2,16.3-14.4c1.2-1.4,2.4-0.8,3.1,1.4c3.2,11.3,11.6,20.6,23.2,24.4c21.2,7.1,43.3-3.2,59.9-21
			c10.6-11.4,14.4-18.7,18.4-23.6c6.9-8.4,20.4-27.3,36.5-39.4c5.9-4.5,12.9-7.9,16.4-5.6c2.8,1.8,3.7,6-0.8,14.2
			c-16.4,29.7-40.6,64.7-45.1,73.1c-0.8,1.5-0.1,2.6,1.4,2.6c8.6,0,17.1,0,24.9,0c1.3-0.1,1.9-0.6,2.5-1.6
			c12.6-19.6,24.5-38.2,37.2-57.4c0.7-1.1,1.4-0.3,1.4,0.2c0.3,4.5,1.4,10.6,4,14.6c4.8,7.4,11.6,10.6,19.2,10.7
			c6,0.1,9.1-0.8,15.6-3.2c5.3-1.9,9.5-4.5,12.8-6.8c1.9-1.3,2.2,0.9,2.2,1.2c-2.9,15.5,0.7,33.9,16.3,41.6
			c18.7,9.1,39.1-3.7,50.9-15.2c1.2-1.1,2.4-1,2.5,1.4c0.2,4.4,2.3,9.6,5.9,13.3c9.9,9.8,29.8,5.9,49.8-9.4
			c12.8-9.8,26.3-23.7,38.4-38.4c0.5-0.6,0.8-1.5-0.1-2.4c-1.8-1.9-4.5-4.1-6.4-5.8c-0.8-0.7-2.1-0.5-2.8,0
			c-12.4,11.7-23.7,25.1-39.8,36.1c-5.5,3.8-14.2,6.8-18.1,1.6c-1.5-2-1.4-4.9,0.2-8.5C723.8,244.2,798.6,131.5,802.5,124.8
			L802.5,124.8z M703.6,219.3c0.2,0.9,1.3,1.7,2.4,2.1c0.4,0.1,0.6,0.4,0.2,1.3c-3.2,6.7-6.1,10.6-10.1,16.5
			c-3.7,5.4-7.8,9.6-12.8,13.7c-7.5,6.2-18,12.9-26.7,8.4c-3.8-2-5.5-7.3-5.4-11.6c0.2-12.1,5.6-24.6,15.7-36.8
			c12.3-15,25.8-22.7,34.7-18.5c9.2,4.4,6.3,14.9,2.1,23.2C703.5,218.3,703.5,218.8,703.6,219.3L703.6,219.3z"/>
		<path id="path3564" inkscape:connector-curvature="0" class="st1" d="M260.2,283.5c-27.9,0.2-52.4-16.9-55.2-46.4
			c-1.6-16.4,3.1-30.9,12.5-43c8.3-10.7,22.3-19.6,34.2-21.8c3.9-0.7,9.1-0.3,11.2,2.3c3.4,3.9,2.4,8.1-1,9.8
			c-9.1,4.6-20,12.4-25.4,23.1c-4.4,8.7-5.3,19.3,1.4,29.3c11.2,16.7,42.4,17.2,71.4-9.5c7.2-6.5,13.6-12.8,20.1-20.2
			c12.8-14.5,17-19.7,34-43.1c0.2-0.3,0.3-0.6,0.2-0.8c-0.1-0.3-0.4-0.4-0.9-0.4c-11.3,0.3-21.2,3.7-30.8,10.8
			c-2.8,2-6.7,1.7-8.5-0.9c-1.9-3-0.6-6.8,2.6-9c15.5-10.6,32.3-12.6,49.6-15.5c0,0,1.2,0.1,2.2-1.2c7.1-9,12.4-17.1,20-26.2
			c7.6-9.2,17.4-17.7,24.9-24.1c10.5-8.9,17.2-11.9,24-15.6c1.8-0.9-0.2-2-0.8-2c-38.1-7.1-77.7-16.3-115.6-2.4
			c-26.2,9.7-37.7,30.3-32.2,44c3.9,9.8,16.9,11.3,29,5.5c10.1-4.9,19.4-12.8,26-22.9c3.7-5.6,11.5-1.6,7.3,8.2
			c-11.1,25.8-32.2,46.2-58,47.1c-21.9,0.7-36.1-15.3-36-35c0.1-38.9,43.8-64.5,89.8-68.3C411.6,50.8,464,65.4,518.9,72
			c42.1,5,82.4,5.2,124.8-4.5c5-1.1,8.5,2.1,8.2,7.1c-0.4,7.2-6.1,14.2-20,21.7c-15.8,8.6-32.4,11.2-49.7,11.4
			c-41.9,0.3-80.9-15.8-121.2-24.5c0.1,1.7,0.5,3.8-1,4.9c-22.4,16.3-42.6,32.9-56.1,56.2c-0.5,0.5-0.2,1.1,0.6,1
			c11.8-0.6,22.3-0.9,33.3-1.8c1.9-0.2,2-0.6,1.8-2c-1-8,1.4-17.2,8.5-23.5c7.3-6.5,16.4-7.2,22.5-2.5c6.9,5.3,6.3,14.9,2.5,22
			c-3.8,7.3-10.2,11.2-16.2,13c0,0-1.3,0.3-1.1,1.4c0.2,1.8,8.5,6.4,9.2,7.6c0.7,1.2,0.3,2.9-0.9,4.3c-0.9,1-2.3,1.9-4,1.9
			c-1.4,0-2.3-0.5-4.1-1.5c-3.7-2-8.4-5.3-11.5-9.1c-1.1-1.3-1.6-1.3-4.2-1.2c-11.9,0.7-30.4,2.4-42.9,4c-3,0.4-3.5,0.9-4.1,2
			c-20,32.6-41.3,67.9-64.8,91.4C303.3,276.7,282.4,283.3,260.2,283.5L260.2,283.5z M450.7,138.4c0.3,1.7,1,2,1.7,1.9
			c3.8-0.8,8-3.9,10.4-7.5c2.3-3.3,3.3-8,1.1-9.8c-2-1.7-5.2-1.2-7.6,0.9C451.6,128.1,450.1,134,450.7,138.4L450.7,138.4
			L450.7,138.4z"/>
	</g>
</g>
</svg>
