<?xml version="1.0" encoding="utf-8"?>
<!-- Generator: Adobe Illustrator 24.3.0, SVG Export Plug-In . SVG Version: 6.00 Build 0)  -->
<svg version="1.1"
	 id="svg2279" inkscape:output_extension="org.inkscape.output.svg.inkscape" inkscape:version="0.45.1" sodipodi:docbase="/home/wooptoo/tmp" sodipodi:docname="Jaguar_logo.svg" sodipodi:version="0.32" xmlns:cc="http://web.resource.org/cc/" xmlns:dc="http://purl.org/dc/elements/1.1/" xmlns:inkscape="http://www.inkscape.org/namespaces/inkscape" xmlns:rdf="http://www.w3.org/1999/02/22-rdf-syntax-ns#" xmlns:sodipodi="http://sodipodi.sourceforge.net/DTD/sodipodi-0.dtd" xmlns:svg="http://www.w3.org/2000/svg"
	 xmlns="http://www.w3.org/2000/svg" xmlns:xlink="http://www.w3.org/1999/xlink" x="0px" y="0px" viewBox="0 0 457.4 380.4"
	 style="enable-background:new 0 0 457.4 380.4;" xml:space="preserve">
<style type="text/css">
	.st0{fill:#252525;}
</style>
<sodipodi:namedview  bordercolor="#666666" borderopacity="1.0" gridtolerance="10000" guidetolerance="10" height="240px" id="base" inkscape:current-layer="layer1" inkscape:cx="229.96829" inkscape:cy="106.89433" inkscape:document-units="px" inkscape:pageopacity="0.0" inkscape:pageshadow="2" inkscape:window-height="622" inkscape:window-width="872" inkscape:window-x="95" inkscape:window-y="29" inkscape:zoom="0.98994949" objecttolerance="10" pagecolor="#ffffff" width="450px">
	</sodipodi:namedview>
<g id="layer1" transform="translate(-78.652128,-397.32841)" inkscape:groupmode="layer" inkscape:label="Layer 1">
	<path id="path3451" class="st0" d="M85.6,698.7c6.9-7.7,7.2-9.3,7.7-40l0.4-26.9l5.1,0.3l5.1,0.3l0.3,22.1
		c0.2,13.8-0.1,24.2-0.7,27.5c-2.1,11.1-8.6,18.2-19.3,20.7C81.6,703.2,81.6,703.2,85.6,698.7z M250.6,690c-13-2.2-19-4.8-23.9-10.5
		c-6.6-7.7-7.7-19.8-2.7-29.9c5.7-11.6,17.9-18,34-17.9c7.7,0,11.1,0.6,16.2,2.6c3,1.2,3.4,1.7,3.4,4.4c0,1.7-0.2,3.1-0.5,3.1
		c-0.3,0-2.6-1.1-5.2-2.4c-6.3-3.2-17.6-4-23.9-1.6c-5.7,2.2-11.5,7.7-13.5,12.9c-2.4,6.2-2.2,16.5,0.5,22
		c2.5,5.1,7.8,9.9,12.6,11.4c4.3,1.3,15.4,1.4,18.6,0.2c2.3-0.9,2.3-0.9,2.3-11.3v-10.5l5.2,0.3l5.2,0.3v11.7v11.7l-5.6,1.5
		C267.8,689.5,254.7,690.6,250.6,690z M333.3,689.6c-10.4-1.9-15.5-5.4-18-12.5c-1.1-3.1-1.4-8.3-1.4-24.6v-20.7l5.2,0.3l5.2,0.3
		l0.5,21.7c0.5,24.6,0.9,26.1,7.4,29.4c5.1,2.6,18.3,2.3,22.1-0.6c6.7-5,7.4-8.3,7.5-33.2l0.1-17.9l2.9,0.3l2.9,0.3v21.2
		c0,20-0.1,21.4-1.9,24.8c-2.6,4.9-6.3,8.2-10.9,9.9C349.8,689.9,339,690.6,333.3,689.6z M150.2,660.5l14.2-28.2h3.1
		c3.5,0,2.7-1.3,22.3,39.1l8.4,17.4h-6.3h-6.3L182,681l-3.5-7.7h-14h-14l-3.8,7.7c-3.8,7.6-3.8,7.7-7.2,7.7h-3.4L150.2,660.5z
		 M171.1,656.9c-3-6.6-5.7-12.2-6-12.6c-0.3-0.3-3.3,5-6.6,12l-6,12.6h12.1h12.1L171.1,656.9z M393.3,688.2c0-0.3,6.3-13.1,14-28.5
		l14-28l3.2,0.3l3.2,0.3l13.4,27.5c7.4,15.1,13.4,27.8,13.4,28.2c0,0.4-2.8,0.7-6.2,0.7h-6.2l-3.2-7.4l-3.2-7.4l-14.4-0.2l-14.4-0.2
		l-3.5,7.7c-3.5,7.7-3.5,7.7-6.9,7.7C394.8,688.7,393.3,688.5,393.3,688.2z M433,668.4c0-0.3-2.5-6-5.6-12.7l-5.6-12.2l-3.1,6.2
		c-1.7,3.4-4.5,9.1-6.1,12.7l-3,6.5h11.7C427.8,668.8,433,668.6,433,668.4z M482.9,660.5l0.2-28.2l9-0.3c17.5-0.5,28.9,2.2,33.2,8
		c4.8,6.5,3.4,16.4-3.1,22c-2.1,1.8-4.3,3.2-5,3.2c-0.7,0-1.2,0.3-1.2,0.7c0,0.4,3.7,5.7,8.1,11.8l8.1,11.1l-6.5-0.3l-6.5-0.3
		l-7.3-10.6l-7.3-10.6h-5.7h-5.7v10.8v10.8h-5.4h-5.4L482.9,660.5z M510.8,661.1c8-4.6,8.3-17.9,0.6-22.5c-2-1.2-5.2-1.8-10.4-2.1
		l-7.5-0.4v13.8v13.8l7.1-0.4C505.4,663,508.7,662.3,510.8,661.1z M446.1,617.1c-2-0.7-4.6-1.8-5.9-2.5c-2.1-1.2-1.8-1.3,5.3-1.8
		c6.8-0.4,7.8-0.7,9.7-3c3.9-4.5,2.1-8.6-5.1-11.7c-5.4-2.3-1.3-1.6,7.7,1.3c10.7,3.5,18.4,3.4,27.5-0.3c6.8-2.8,4.8-0.7-2.7,2.8
		c-3.6,1.7-6.9,2.4-12.2,2.7l-7.3,0.4l0.3,3c0.3,2.4-0.3,3.6-2.7,6.3c-2.5,2.7-3.8,3.4-7.1,3.7C451.6,618.1,448.1,617.7,446.1,617.1
		z M419.9,602.4c-11.3-6.2-14.1-6.9-33.4-7.6c-19.5-0.7-24.1-1.9-34.1-8.3c-7-4.5-16.4-14.1-20.6-21c-7.4-12.2-10.7-13.5-32.5-12.6
		c-16.7,0.7-32.2-0.6-42.3-3.6l-7.3-2.1l-4.7,2.3c-4.1,2-5.9,2.3-12.9,2.3c-6.8,0-9.4-0.5-15.8-2.9c-19.9-7.3-20.9-7.6-25.1-7.3
		c-4,0.3-4.3,0.4-4.5,3c-0.4,3.2-2,5.3-2,2.5c0-1-0.6-2.4-1.4-3c-2-1.6-1.3-4.7,1.4-6.1c3.3-1.8,12.6-0.8,22.6,2.4
		c11.9,3.8,16.7,4.8,23.6,4.8c7.1,0,10.9-1.7,13.5-5.8c2.2-3.5,2.3-10.7,0.4-17.8c-0.7-2.7-1.3-5-1.3-5.1c0-0.1,3.3,1.6,7.4,3.8
		c4.1,2.2,10.7,5.1,14.7,6.5l7.2,2.6l-6,0.3c-3.3,0.1-8.3-0.3-11.1-1.1c-4.7-1.2-5-1.2-4.4,0.2c0.4,0.8,0.8,3.9,1.1,6.7
		c0.4,5.2,0.5,5.3,4.6,7.3c13.3,6.6,20.3,7.7,46.7,7.5l19.9-0.2l3.6,2.4c2.8,1.9,4.4,4.1,7.4,10.3c6.3,12.9,16.9,21.9,29.3,24.8
		c2.1,0.5,9.7,0.9,16.9,0.9c21,0.1,31.5,3.3,42,13c3,2.8,5.2,5,5,5C427.4,606.4,423.9,604.6,419.9,602.4z M434.3,590.7
		c-6.1-3.6-10.5-7.7-13.1-11.8c-2.3-3.7-4.9-4.7-15.8-5.7c-9.3-0.8-17.2-3.4-19.5-6.2c-1-1.2-0.9-1.3,0.5-0.8
		c4.2,1.6,9.9,2.5,20.1,3.2c13.1,0.9,15.5,2.1,20.6,9.8c1.9,2.9,5.6,7.3,8.3,9.9c2.7,2.6,4.7,4.7,4.5,4.7
		C439.8,593.9,437.3,592.4,434.3,590.7z M462.8,592c-6.1-1.9-25-11.4-41.1-20.8c-27.6-16.1-73.3-40-72.6-37.8
		c0.2,0.5,5.5,6.4,11.9,13.1c6.4,6.7,11.3,12.2,11,12.2c-1.2,0-11.3-8-17.6-14c-8.3-7.8-13.4-11.4-22.4-15.6
		c-6.2-2.9-7.7-3.2-14.8-3.3c-8.9-0.1-8.5-1,1.1-2.3c3.6-0.5,6.7-1.1,6.9-1.2c0.7-0.7-50.3-19.2-67.5-24.5
		c-11.5-3.6-22.5-6.3-23.1-5.7c-0.2,0.2,0.4,2.2,1.3,4.4c1,2.2,1.6,4.1,1.4,4.3c-0.2,0.2-2.2-1.3-4.5-3.3
		c-8.7-7.6-25.4-14.4-41.7-16.8c-9-1.3-12.7-0.8-17.2,2.7l-2.9,2.2l6.6,6.5c8.6,8.5,10.8,12.3,4.1,7c-6.1-4.8-12.1-7.8-19.1-9.6
		c-5.6-1.4-9.7-3.4-9.7-4.7c0-0.4,2.1-0.5,4.7-0.4c3.8,0.2,5.7-0.2,9.7-2.3c8.7-4.5,7.6-5.1-9.1-4.6c-11.8,0.3-16,0.8-20.8,2.4
		c-6.4,2.1-11.1,5.1-10.2,6.6c0.3,0.5,1.6-0.1,3-1.4c2.6-2.5,7.4-3.1,10-1.4c2.1,1.4-4,6.6-10,8.5c-9.9,3.2-13.4,8.2-7.8,11.3
		c3.2,1.8,4.7,0.9,9-5.7c5-7.5,8.2-8.5,13.1-4c4.8,4.4,2.7,13.1-4.8,19.4c-4.4,3.7-4.7,4.4-2.2,5.2c2.5,0.8,5-0.8,8.1-5.3
		c2.1-3.1,3.5-4.1,6-4.6c5-0.9,8.5-4.9,8.5-9.5c0-2.1-0.4-4.6-1-5.5c-0.9-1.8-0.9-1.8,1.9-0.3c1.6,0.8,4.1,3.4,5.6,5.9
		c2.5,4,3.3,4.6,8.8,6.2c3.3,1,7.9,3.1,10.1,4.7c4.6,3.3,11.7,9.9,11.7,10.9c0,0.4-2.2-0.7-4.9-2.4c-19-12.2-32.7-12-47.2,0.6
		c-6.9,5.9-12.1,3.9-11.8-4.6c0.2-4.4,0.3-4.6,2.6-4c1.9,0.4,2.8,0,4.3-1.9c2.1-2.7,2.4-5,0.9-7.9c-2.2-4.2-5.6-4.5-7.6-0.5
		c-1,1.9-1.3,3.8-0.9,6c0.6,3.1,0.5,3.2-2,2.6c-1.4-0.3-4.2-1-6.2-1.4c-4.1-0.9-9.5-6.3-9.5-9.5c0-1.2,1.7-3.6,4.4-6.1
		c2.4-2.3,4.7-5.2,5-6.4c2-7.8,25-14,47.5-12.8c17.5,0.9,30.4,3.1,53.7,9.1c37.5,9.7,80.7,27.2,139.5,56.6
		c24.4,12.2,37.3,19.2,67.1,36.4c5.8,3.4,14.8,8,19.9,10.2c8,3.6,10.2,4.2,16.9,4.5l7.7,0.4l7.9-4.2c6-3.2,8.5-4,10.2-3.6
		c3.2,0.8,4.6,4.1,3.1,7.4c-1.1,2.5-1.2,2.5-1.9,0.5c-1.3-3.3-4.5-3.4-11.6-0.3C477.3,592.5,468.2,593.6,462.8,592z M126.9,489.5
		c0-0.2-0.3-0.3-0.7-0.3c-1.1,0-8.3,6.3-8.3,7.3c0,0.5,2-0.8,4.5-2.9C124.9,491.5,126.9,489.6,126.9,489.5z M135.6,486.9
		c1.7-1.3,1.6-1.4-0.9-1.1c-1.5,0.1-2.8,0.8-3,1.4C131.2,488.7,133.4,488.5,135.6,486.9z M170.1,551.7c-4.9-5.1-4-12.3,2.3-18.6
		c4.5-4.5,11-6.7,22.6-7.5l7.5-0.5l-1.3-3.6c-1.4-4-0.4-10.6,2-13.9c1.1-1.5,1.3-1.2,1.3,2.7c0,4.6,1.8,9.9,4.4,12.7
		c2.1,2.3,9.3,5.9,16.9,8.4c7.5,2.4,6.6,2.6-5.9,0.8c-17.2-2.4-27.7-2.7-34.2-1c-9.4,2.4-14.5,7.5-14.5,14.4c0,3.7,3.3,6.9,7.1,6.9
		c1.9,0,2.1,0.2,1,0.9C176.7,555,172.5,554.3,170.1,551.7z M153.9,481.9c-1.9-1.2-0.9-1.5,6.9-2c6.4-0.4,6.9-0.3,4.5,0.7
		C161.7,482.1,155.4,482.8,153.9,481.9z"/>
</g>
</svg>
