<?xml version="1.0" encoding="utf-8"?>
<!-- Generator: Adobe Illustrator 24.3.0, SVG Export Plug-In . SVG Version: 6.00 Build 0)  -->
<svg version="1.1" id="Слой_1" xmlns="http://www.w3.org/2000/svg" xmlns:xlink="http://www.w3.org/1999/xlink" x="0px" y="0px"
	 viewBox="0 0 926.2 778" style="enable-background:new 0 0 926.2 778;" xml:space="preserve">
<style type="text/css">
	.st0{fill:#252525;}
</style>
<image style="overflow:visible;" width="1200" height="640" xlink:href="DBB5E108.jpg"  transform="matrix(1 0 0 1 -7225.9048 -7534)">
</image>
<image style="overflow:visible;" width="1200" height="640" xlink:href="DBB5E10E.jpg"  transform="matrix(1 0 0 1 -7225.9048 -7534)">
</image>
<image style="overflow:visible;" width="1200" height="640" xlink:href="DBB5E10A.jpg"  transform="matrix(1 0 0 1 -7225.9048 -7534)">
</image>
<g>
	<path class="st0" d="M463.5,171.2c80.3,0.6,159.4,10.1,236.3,34.4c48.1,15.2,93.8,35.4,134.2,66.1c23.5,17.8,44.1,38.4,58,64.9
		c23.5,44.6,19.3,87.7-8.3,129c-20.6,30.8-49.1,53.1-80.6,71.8c-47.5,28.3-99.1,46.2-152.6,58.8c-44.6,10.5-89.8,16.6-135.5,19.2
		c-41.8,2.4-83.6,2.1-125.4-1.5c-73.6-6.3-145.3-21-213.6-49.9c-38.4-16.3-74.3-36.7-104.9-65.5c-20-18.9-36.6-40.4-45.4-66.8
		C12.6,391.8,20.4,355,44,321.1c23.8-34.2,56.6-58.1,92.7-77.7c53.1-29,110.3-46.3,169.5-57.7C358.1,175.8,410.6,171.6,463.5,171.2z
		 M464.8,189c-62.9,0.3-123.9,6-184,19.8c-53.8,12.4-105.7,30-153.1,58.9c-28.9,17.6-54.9,38.6-72.9,67.8
		c-21.6,35-24,71.2-5.2,108.2c10.8,21.3,26.7,38.5,45.1,53.5c34.1,27.9,73.1,46.8,114.3,61.5c65.7,23.4,133.6,35.1,203,39
		c76.5,4.3,152.4-0.3,227.3-16.7c57.8-12.7,113.4-31.2,163.8-63c27.2-17.1,51.5-37.4,68.6-65.1c23-37.3,24-75.3,2.3-113.5
		c-12.8-22.6-31.1-40.4-51.8-55.7c-39.4-29.3-83.9-48.2-130.5-62.5C617.4,198.4,541.1,189.4,464.8,189z"/>
	<path class="st0" d="M747.5,506.3c-11.4,0-23.6,0-35.5,0c-6-12.3-12-24.5-18.7-38.1c-4.7,13.4-9,25.3-13.4,38
		c-10.5,0-22.3,0-32.9,0c11.5-31.3,23.2-63.1,34.6-95c1.6-4.5,1.9-9.5,3-15.1c-0.1,0,1.1-0.3,2.3-0.3c16.1,0.2,32.2-0.1,48.3,0.8
		c5.5,0.3,11.1,2.8,16,5.4c6.8,3.6,10.1,10,10.7,17.7c1.8,23.4-14.8,43.9-34.5,44.8c-0.7,0-1.3,0.4-2.9,0.9
		C732.3,479.3,739.8,492.7,747.5,506.3z M702.4,443.1c7.5,0.6,13.9,1,19.7-3c4.2-2.9,7-9.3,5.5-13.6c-1.7-5.3-6.4-4.7-10.6-4.9
		c-1.5-0.1-3.1-0.3-4.4,0.1c-1.4,0.4-3.3,1.3-3.7,2.4C706.6,430.2,704.7,436.4,702.4,443.1z"/>
	<path class="st0" d="M438.9,261.3c9.4,0,20.1,0,31.4,0c2.2,17.8,4.4,35.4,6.6,53.1c0.5,0.1,1,0.2,1.5,0.3
		c6.5-17.6,13.1-35.2,19.8-53.3c8.5,0,18.1,0,27.8,0c-13.1,35.4-26.1,70.7-39.2,105.9c-0.6,1.6-2.4,3.8-3.7,3.8
		c-9,0.3-18,0.2-27.3,0.2c-2.5-19-4.8-37.4-7.2-55.8c-0.5-0.1-1-0.2-1.4-0.3c-6.6,18.3-13.2,36.7-20.2,55.9c-7.9,0-17.6,0-27.8,0
		C412.3,334.6,425.5,298.3,438.9,261.3z"/>
	<path class="st0" d="M309.9,506c-6.4-12.5-12.5-24.6-19.3-38.1c-5,13.5-9.5,25.5-14.2,38c-10.5,0-21.7,0-31.8,0
		c11.1-31.6,22.3-63.4,33.3-95.3c1.6-4.6,1.9-9.6,2.8-14.1c17.5,0,36-1.4,54.3,0.4c18.9,1.9,27.4,16.5,23.1,35
		c-4.3,18.6-16.8,30-37.1,32.8c7.9,14,15.6,27.6,23.3,41.3C333,506,321.4,506,309.9,506z M299,442.8c9.3,0.9,17.7,1.1,23.3-6.2
		c2-2.7,3.2-7.5,2.2-10.6c-0.7-2.3-5.3-3.8-8.4-4.8c-2.2-0.7-4.8-0.4-7.1-0.1c-1.2,0.2-2.9,1.1-3.3,2.2
		C303.4,429.4,301.4,435.7,299,442.8z"/>
	<path class="st0" d="M510.2,371.6c11.5-31,22.8-61.4,33.9-91.9c2-5.6,2.8-11.7,4.4-18.6c2,0,5.4-0.1,8.8,0
		c13.1,0.2,26.4-0.6,39.3,1.1c22.4,2.8,33.6,17.9,30.4,40.1c-6.3,43.9-37.2,70-77.7,69.3C536.3,371.4,523.2,371.6,510.2,371.6z
		 M551.8,345.2c9.5,1.8,18.4-0.5,24.5-6.7c10.8-11.1,15.5-24.8,16.8-40c0.2-2-0.3-4.1-1-6c-1.8-5.6-5.4-7.1-13.2-7.7
		c-5.8-0.5-6.9,3-8.4,7.2c-5.4,15.5-11,30.9-16.5,46.4C553.2,340.6,552.5,342.9,551.8,345.2z"/>
	<path class="st0" d="M425,392.7c24.9-0.5,38.6,10.8,42.7,32.4c6.5,34-12.8,69.7-43.4,80.5c-35.8,12.6-65.2-10.4-60.8-48.1
		c2.5-21.6,11.5-40,29.3-53.4C403.2,396.3,415.1,392.8,425,392.7z M436.5,439.9c0-12.3-2.3-17.7-7.9-20c-6.1-2.6-11.6-0.9-16.5,3.2
		c-11.6,9.7-19,36.3-14.1,50.6c2.4,7.1,7.7,10.2,15.1,8.9c6.5-1.2,10.8-5.5,14-10.9C433.4,461.2,435.9,449.5,436.5,439.9z"/>
	<path class="st0" d="M355,261.1c10,0,20.7,0,30.6,0c1.6,36.6,3.3,73,5,109.9c-9.7,0-20.5,0-31.2,0c-0.2-0.5-0.4-0.8-0.3-1.1
		c3-13,2.3-13.8-10.7-13.8c-5,0-10.1,0.6-15-0.1c-7.4-1-12.5,1.6-14.2,8.7c-1.7,6.9-5.9,7.4-11.8,7.1c-7.6-0.5-15.2-0.2-22.7-0.3
		c-0.3,0-0.6-0.4-1.2-0.8c9.5-14.1,18.9-28.1,28.4-42.1c12.4-18.4,24.9-36.7,37.2-55.2C351.3,269.7,352.7,265.7,355,261.1z
		 M359.5,301.8c-0.7-0.1-1.3-0.2-2-0.4c-5.8,9.4-11.6,18.8-18,29.4c6.6,0,11.9,0.2,17.1-0.1c1-0.1,2.7-2,2.8-3
		C359.6,319,359.5,310.4,359.5,301.8z"/>
	<path class="st0" d="M617.1,438.7c10.4,0,20.1,0,30.3,0c-3,8.6-6,16.9-9,25.4c-9.1,0-17.9,0.1-26.7-0.1c-3.2-0.1-5.2,0.8-6.1,4.1
		c-1.3,4.2-2.9,8.3-4.7,13c13.2,0,25.7,0,39.2,0c-2.8,8.2-5.3,15.9-8.1,23.4c-0.3,0.9-1.8,2-2.8,2c-23.6,0.1-47.2,0.1-70.4,0.1
		c7-18.5,14.3-36.6,20.8-55c6.4-18.2,15-35.7,18.8-55.4c22.8,0,46.4,0,70.8,0c-3.1,8.5-6.1,16.6-8.6,23.5c-11.9,0-23.1-0.1-34.3,0.1
		c-1.1,0-2.7,1.3-3.2,2.4C621,427.4,619.2,432.8,617.1,438.7z"/>
	<path class="st0" d="M480.4,396c11,0,22.3,0,33,0c0,21.5,0,42.9,0,64.9c1.2-1.5,2.3-2.9,3.2-4.3c11.2-16.8,22.5-33.5,33.5-50.3
		c1.9-2.9,2.9-6.4,4.7-10.2c11.8,0,24.6,0,36.6,0c-11.4,14.7-23.3,29.7-34.7,44.9c-15.9,21.1-31.5,42.5-47.2,63.7
		c-0.7,0.9-2,1.8-3,1.8c-8.7,0.1-17.3,0.1-26.1,0.1C480.4,469.6,480.4,433.1,480.4,396z"/>
	<path class="st0" d="M278.7,261.1c-10.8,28.5-21.4,56.6-32.3,85.3c12.3,0,23.7,0,35.8,0c-2.9,8-5.6,15.6-8.5,23.1
		c-0.4,1-2.3,2-3.4,2c-21.5,0-42.9-0.1-64.4-0.2c-0.1,0-0.3-0.2,0,0c11.9-32.8,23.9-65.3,35.6-97.9c1.3-3.7,1.6-7.8,2.5-12.2
		C255,261.1,267,261.1,278.7,261.1z"/>
	<path class="st0" d="M192.5,435.5c13.4,0,26.9,0,41.3,0c-2.9,8.2-5.4,15.8-8.3,23.3c-0.4,0.9-2.3,1.8-3.4,1.8c-22,0.1-44,0-66,0
		c-0.5,0-1-0.4-2.1-0.8c2.8-8.2,5.4-16.4,8.3-24.6c0.3-1,1.8-1.8,2.9-2.1c25.4-8.4,50.9-16.7,76.3-25c0.3-0.1,0.7,0.1,1.4,0.3
		c-0.8,5.5-2.6,9.5-8.8,11.4c-14.1,4.3-27.9,9.5-41.8,14.3C192.4,434.5,192.4,435,192.5,435.5z"/>
	<path class="st0" d="M729.5,303.2c-2.9,8.7-5.4,16.6-8.3,24.4c-0.5,1.3-2.1,2.7-3.4,3.1c-25.3,8.4-50.6,16.6-75.9,24.8
		c-0.5,0.2-1,0-1.6,0c0.4-6.5,3.4-10.1,9.8-12c13.6-4.1,26.8-9.1,40.1-14.9c-13.3,0-26.6,0-41.1,0c3-8.6,5.6-16.2,8.5-23.7
		c0.3-0.9,2.4-1.6,3.6-1.6C683.7,303.2,706.1,303.2,729.5,303.2z"/>
</g>
</svg>
