<?xml version="1.0" encoding="utf-8"?>
<!-- Generator: Adobe Illustrator 24.3.0, SVG Export Plug-In . SVG Version: 6.00 Build 0)  -->
<svg version="1.1" id="Layer_1" xmlns="http://www.w3.org/2000/svg" xmlns:xlink="http://www.w3.org/1999/xlink" x="0px" y="0px"
	 viewBox="0 0 800 600" style="enable-background:new 0 0 800 600;" xml:space="preserve">
<style type="text/css">
	.st0{fill-rule:evenodd;clip-rule:evenodd;fill:#252525;}
</style>
<g>
	<path class="st0" d="M310.4,297.1c39.3,16.4,65.5,39.3,89.2,90.9c23.7-51.6,49.1-77.8,89.2-94.1c33.6-12,67.2-24.1,100.9-36.1
		c0.2,0.9,0.4,1.7,0.6,2.6c1.6,11.5,2.5,25.4,2.5,39.3c0,142.4-94.1,171.1-193.2,170.3c-99.1,0.8-192.4-27.8-192.4-170.3
		c0-10.6,0-21.3,1.6-30.3c0.5-2,1-4,1.5-6C243.7,274.6,277,285.9,310.4,297.1L310.4,297.1z M568,198.4c-0.7-1.2-1.5-2.4-2.2-3.6
		c-35.2-52.4-99.1-64.7-166.2-64.7c-67.1,0-132.6,13.1-167,66.3c-1.2,2.1-2.5,4.3-3.7,6.4C288,236.6,355,237.2,399.6,322.5
		C440.6,234.6,508.3,233.4,568,198.4L568,198.4z M615.7,167.8c-1.9-2.2-3.8-4.4-5.7-6.5c-52.4-56.5-138.3-68.8-210.4-68.8
		c-72.9,0-161.3,12.3-212.8,72c-0.8,1.1-1.6,2.2-2.5,3.3c-25.4,30.3-40.9,73.7-40.9,131.8c0,179.3,145.7,207.9,256.2,207.9
		c111.3,0,257-28.6,257-207.9C656.6,241.5,641.1,198.1,615.7,167.8L615.7,167.8z"/>
</g>
</svg>
