<?xml version="1.0" encoding="utf-8"?>
<!-- Generator: Adobe Illustrator 24.3.0, SVG Export Plug-In . SVG Version: 6.00 Build 0)  -->
<svg version="1.1" id="Слой_1" xmlns="http://www.w3.org/2000/svg" xmlns:xlink="http://www.w3.org/1999/xlink" x="0px" y="0px"
	 viewBox="0 0 1019.4 1080" style="enable-background:new 0 0 1019.4 1080;" xml:space="preserve">
<style type="text/css">
	.st0{display:none;}
	.st1{display:inline;fill-rule:evenodd;clip-rule:evenodd;fill:#5B5C55;}
	.st2{fill-rule:evenodd;clip-rule:evenodd;fill:#252525;}
</style>
<g id="Слой_2_1_" class="st0">
	<rect x="-135.4" y="-58.5" class="st1" width="1317.4" height="1138.5"/>
</g>
<g id="Слой_1_1_">
	<g>
		<path class="st2" d="M780,246.1c-72.6-72.6-169-112.5-271.6-112.5s-199.1,40-271.6,112.5c-72.6,72.6-112.5,169-112.5,271.6
			s40,199.1,112.5,271.6c72.6,72.6,169,112.5,271.6,112.5s199.1-40,271.6-112.5c72.6-72.6,112.5-169,112.5-271.6
			S852.6,318.6,780,246.1z M878.1,549c-8.9,142-118.5,277.7-254.2,318.7c-139.1,43.6-289.5,4.3-383.5-103.6
			c-18-19.7-27.4-32.9-43.9-60.4c-4.9-7.1,0.6-12.1,4.6-6.8C274.2,819.2,414.3,887.8,561,868.6c100.5-15.1,192.6-74.6,249.7-163.3
			c4.2,1.6,8.6,2.5,10.7-0.7c2.4-3.6,2.7-5-3.1-10.4l0,0c-0.2-0.2-0.3-0.4-0.5-0.6c26.8-42.5,41.5-95,44.9-149
			c4.8-75.5-12.5-154.1-49.5-212.4c-5.7-8.6-12.9-18.6-20.6-28.9l-98.1-99.6c-98.8-64-253.4-69-356.1-10.8
			c-64,34.2-115.5,84.5-150,144.7c-36.2,63.2-53.6,137.2-46.9,214.6c7.7,86.1,49.4,175.6,114.1,241.4l-18.1-14
			c-91.6-97.4-135.3-247.3-89.5-382.8c6.8-22.8,16.4-44.9,28.3-65.9C236.4,225.3,355.1,146.2,474.8,139
			c86.5-7,169.8,15.6,238.4,60.4c60.3,39.4,109.3,96,139.1,164.8c15.5,35.7,22,63.6,26.9,109.7c-8.5-56-28.9-96.5-47.4-130.8
			l-15.5-15.7C860.1,393,879.5,469,878.1,549z M505.6,167.7l0.4-3.3c0.6-5.9,2.6-10.1,6.5-10.1c5.1,0,6.2,7.3,6.2,11.3v2.2
			c0.7,0,1.4,0,2.1,0.1c88.9,3.1,172,39.1,235.2,102.3c66.1,66.1,102.5,154,102.5,247.5c0,61.9-16,121.4-46,173.8
			c-0.1,0.1-0.1,0.3-0.2,0.4c6.5,5.6-0.4,8.6-3.7,6.3c-1,1.6-2,3.2-3,4.8c-14,22.3-30.6,43.2-49.6,62.3
			c-66.1,66.1-154,102.5-247.5,102.5l0,0c-93.5,0-181.4-36.4-247.5-102.5c-20.5-20.5-38.1-43-52.7-67.2l0,0
			c-3.8-6.2-7.3-12.6-10.7-19c-25.6-49.2-39.2-104.2-39.2-161.2c0-93.5,36.4-181.4,102.5-247.5c65.3-65.3,151.9-101.6,244.2-102.5
			C505.2,167.7,505.4,167.7,505.6,167.7z M194.2,684.3c3.6,6.8-2.8,12.5-9.8-2.9c-13.1-33.6-33.4-72.5-35.1-149.4
			C157,605.5,178.7,653.5,194.2,684.3z"/>
		<path class="st2" d="M821.6,704.7c-2.1,3.2-6.5,2.3-10.7,0.7l0.3-0.5c9,1.2,11.8-4.8,7.3-10.6C824.3,699.7,824,701.1,821.6,704.7z
			"/>
		<polygon class="st2" points="500.6,518.4 415.1,562 485.4,508.3 		"/>
		<path class="st2" d="M208.2,698c0.6,3.5,2.2,7,2.9,8.2l-12.8-16.5l-7.3-18c2.1,3.8,4.4,6,6.6,7.2c3.9,2.1,7.6,0.8,10-1.1L454,482
			l-3.2,2.9l17,11.4L203.1,687.5L505.9,522l0.1,64.6l-296.4,106l-1.6,4.5C208.1,697.4,208.2,697.7,208.2,698L208.2,698z"/>
		<polygon class="st2" points="512.5,167.7 513.1,160.7 512.9,167.7 505.4,509.3 486.6,497.2 		"/>
		<path class="st2" d="M570.2,486.1l-1.1-6.6l-47.7,28.1l-2.8-339.8v-2.2c0-4-1.1-11.3-6.2-11.3c-3.8,0-5.9,4.1-6.5,10.1l-0.4,3.3
			l-34.4,319L455,476.1l-0.3,1.4l-0.8,4.7L505,167.7l0.8-4.7c0.8-2.5,1.4-9.1,6.2-9c5.5,0,6.3,2.7,8,9.3l0.7,4.6L570.2,486.1z"/>
		<polygon class="st2" points="805.4,692.1 527.3,518.4 539.9,510.8 		"/>
		<path class="st2" d="M821.6,704.7c-2.1,3.2-6.5,2.3-10.7,0.7c-1.9-0.7-3.8-1.7-5.3-2.4c-0.6-0.3-1.1-0.5-1.6-0.8L515.1,586l3,1.1
			v-62.3L808.3,698c0.1,0.1,0.2,0.1,0.2,0.2c3.3,2.3,10.2-0.7,3.7-6.3c-0.2-0.2-0.4-0.3-0.6-0.5C803.9,685.3,558.7,500,558.7,500
			l16.1-9.9l237.6,201.5l2.9,2.4l1.2-1.5c0.7,0.6,1.4,1.2,2,1.8l0,0C824.3,699.7,824,701.1,821.6,704.7z"/>
	</g>
</g>
</svg>
