<?xml version="1.0" encoding="utf-8"?>
<!-- Generator: Adobe Illustrator 24.3.0, SVG Export Plug-In . SVG Version: 6.00 Build 0)  -->
<svg version="1.1" id="Слой_1" xmlns="http://www.w3.org/2000/svg" xmlns:xlink="http://www.w3.org/1999/xlink" x="0px" y="0px"
	 viewBox="0 0 404.7 339.9" style="enable-background:new 0 0 404.7 339.9;" xml:space="preserve">
<style type="text/css">
	.st0{fill-rule:evenodd;clip-rule:evenodd;fill:#252525;}
</style>
<path class="st0" d="M202.3,244.3c-41,0-74.2-33.2-74.2-74.2s33.2-74.2,74.2-74.2s74.2,33.2,74.2,74.2S243.3,244.3,202.3,244.3
	 M400,123.4H275.3c-15.4-24.2-42.5-40.3-73.3-40.3c-30.8,0-57.9,16.1-73.3,40.3H4.7L17.3,136H122c-1.9,4.6-3.5,9.3-4.6,14.2H31.5
	l12.6,12.6h71.3c-0.2,2.3-0.3,4.7-0.3,7c0,2.4,0.1,4.8,0.3,7.2H58.3l12.6,12.6h46.5c1.1,4.9,2.7,9.7,4.6,14.2H85.1l12.6,12.6h31
	c15.4,24.1,42.4,40.1,73.2,40.1c30.8,0,57.8-16,73.2-40.1h31.7l12.6-12.6h-37.6c1.9-4.6,3.5-9.3,4.6-14.2h47.2l12.6-12.6h-57.8
	c0.2-2.4,0.3-4.8,0.3-7.2c0-2.4-0.1-4.7-0.3-7h72l12.6-12.6h-86.6c-1.1-4.9-2.7-9.7-4.6-14.2h105.4L400,123.4L400,123.4z
	 M236.4,178.5l0.1-28.6h7.7V189l-9.3,0.2l-15.7-27.6V189h-7.7v-39.1h9.2L236.4,178.5z M163.8,180.3l10-30.4h11.4V189h-8.3v-29
	l-8.8,29h-8.6l-8.8-29v29h-8.3v-39.1h11.4L163.8,180.3z M202.2,149.9V189h-7.9v-39.1H202.2z M261.1,149.9V189h-7.9v-39.1H261.1z"/>
</svg>
