<?xml version="1.0" encoding="utf-8"?>
<!-- Generator: Adobe Illustrator 24.3.0, SVG Export Plug-In . SVG Version: 6.00 Build 0)  -->
<svg version="1.1" id="Слой_1" xmlns="http://www.w3.org/2000/svg" xmlns:xlink="http://www.w3.org/1999/xlink" x="0px" y="0px"
	 viewBox="0 0 94.5 112.6" style="enable-background:new 0 0 94.5 112.6;" xml:space="preserve">
<style type="text/css">
	.st0{fill:url(#SVGID_1_);}
	.st1{fill:#B12B28;}
	.st2{fill-rule:evenodd;clip-rule:evenodd;fill:#613E18;}
	.st3{fill-rule:evenodd;clip-rule:evenodd;fill:#432918;}
	.st4{fill:url(#SVGID_2_);}
	.st5{fill-rule:evenodd;clip-rule:evenodd;fill:url(#SVGID_3_);}
</style>
<linearGradient id="SVGID_1_" gradientUnits="userSpaceOnUse" x1="19.4787" y1="85.8948" x2="73.9055" y2="85.8948" gradientTransform="matrix(1 0 0 -1 0 142.6535)">
	<stop  offset="0" style="stop-color:#E1BE78"/>
	<stop  offset="1" style="stop-color:#E3AB36"/>
</linearGradient>
<path class="st0" d="M73.7,26.9c-2.8-1.1-5.7-2.1-8.7-2.8c-4.1-1-8.2-1.6-12.4-2c-2-0.2-3.9-0.2-5.9-0.3h-0.2
	c-2.1,0-3.9,0.1-5.9,0.3c-4.2,0.3-8.3,1-12.4,2c-2.9,0.7-5.8,1.7-8.7,2.8c-0.1,0-0.2,0.1-0.2,0.1s0.3,21.1,0.6,31.5
	c0.1,3.1,0.6,6.1,1.7,9c1.2,3.3,2.8,6.4,4.7,9.3c2,3,4.5,5.7,7.3,8c1.1,0.9,2.3,1.8,3.5,2.5c1.9,1.1,3.9,2.1,5.9,3
	c0.7,0.3,1.3,0.6,1.8,0.7c0.6,0.2,1.1,0.4,1.7,0.5c0.6-0.1,1.2-0.3,1.7-0.5c0.5-0.2,1.1-0.5,1.8-0.7c2-0.8,4-1.9,5.9-3
	c1.2-0.8,2.4-1.6,3.5-2.5c2.8-2.3,5.3-5,7.3-8c1.9-2.9,3.5-6.1,4.7-9.3c1-2.9,1.6-5.9,1.7-9C73.6,48.1,73.9,27,73.9,27
	C73.9,27,73.8,26.9,73.7,26.9z"/>
<path class="st1" d="M46,80.5H30.6c1.1,1.3,2.4,2.4,3.7,3.5c1.1,0.9,2.2,1.7,3.3,2.5c1.8,1.1,3.7,2.1,5.7,2.9
	c0.7,0.3,1.2,0.5,1.7,0.7c0.4,0.1,0.7,0.2,1,0.3l0,0L46,80.5L46,80.5z M46,69c-2.3-0.2-4.5-1.1-6.3-2.6c-0.1-0.1-0.2-0.2-0.3-0.3
	H22.3c0.1,0.4,0.2,0.7,0.4,1.1c0.6,1.8,1.4,3.6,2.3,5.3h21L46,69z M72.4,51.3H57.4v1.2l0,5.4h14.9C72.3,56,72.4,53.7,72.4,51.3
	L72.4,51.3z M72.7,37.5H47v6.4h25.6C72.6,41.7,72.7,39.5,72.7,37.5L72.7,37.5z"/>
<path class="st2" d="M72.4,64.8c-0.4,1.3-0.8,2.7-0.8,2.7c-1.2,3.3-2.8,6.4-4.7,9.3c-2,3-4.5,5.7-7.3,8c-1.1,0.9-2.3,1.8-3.5,2.5
	c-1.9,1.1-3.9,2.1-5.9,3c-0.7,0.3-1.3,0.6-1.8,0.7c-0.6,0.2-1.1,0.4-1.7,0.5c-0.6-0.1-1.2-0.3-1.7-0.5c-0.5-0.2-1.1-0.5-1.8-0.7
	c-2-0.8-4-1.9-5.9-3c-1.2-0.8-2.4-1.6-3.5-2.5c-2.3-1.9-4.4-4.1-6.3-6.5l0.1,0.1c1.8,2.5,4,4.8,6.3,6.8c1.1,0.9,2.3,1.8,3.5,2.5
	c1.8,1.1,3.7,2.1,5.7,3c0.7,0.3,1.3,0.5,1.8,0.7c0.6,0.2,1.1,0.4,1.7,0.5c0.6-0.1,1.2-0.3,1.7-0.5c0.5-0.2,1.1-0.5,1.8-0.7
	c2-0.8,4-1.9,5.9-3c1.2-0.8,2.4-1.6,3.5-2.5c2.8-2.3,5.3-5,7.3-8c1.9-2.9,3.5-6.1,4.7-9.4C71.9,66.8,72.2,65.9,72.4,64.8L72.4,64.8z
	"/>
<path class="st2" d="M72.9,28.2c-0.1,0-0.1-0.1-0.2-0.1l0,0c-2.7-1.1-5.5-2-8.3-2.7c-3.9-1-7.9-1.6-11.9-1.9c-2-0.2-3.7-0.2-5.7-0.3
	h-0.2c-2,0-3.8,0.1-5.7,0.3c-4,0.3-8,1-11.9,1.9c-2.8,0.7-5.6,1.6-8.3,2.7l0,0c0,0-0.1,0-0.1,0.1l0-0.4l0.2-0.1
	c2.7-1.1,5.5-2,8.3-2.7c3.9-1,7.9-1.6,11.9-1.9c2-0.2,3.7-0.2,5.7-0.3h0.2c2,0,3.8,0.1,5.7,0.3c4,0.3,8,1,11.9,1.9
	c2.8,0.7,5.6,1.6,8.3,2.7l0,0c0.1,0,0.1,0,0.2,0.1L72.9,28.2z"/>
<path class="st2" d="M46,30.7c-1.7,0-3.4,0.1-5.1,0.2c-4,0.3-8,1-11.9,1.9c-2.8,0.7-5.6,1.6-8.3,2.7c0,0,0,0,0,0l0-0.4l0,0
	c2.7-1.1,5.5-2,8.3-2.7c3.9-0.9,7.9-1.6,11.9-1.9c1.8-0.2,3.4-0.2,5.1-0.2L46,30.7z"/>
<path class="st3" d="M65.3,70.3v0.1c0,0.1,0,0.1-0.1,0.2c-0.6,0.1-1.2,0.4-1.6,0.9c0,0-0.1,0.1-0.1,0.1l0,0c0,0,0,0,0-0.1
	c0-0.1,0.1-0.2,0.2-0.3C64,70.8,64.6,70.5,65.3,70.3C65.2,70.4,65.3,70.4,65.3,70.3z M62.3,68.6c-0.5,0.2-0.9,0.5-1.3,0.9
	c-0.3,0.3-0.5,0.6-0.6,0.9c0,0,0,0.1,0,0.1c0.1-0.3,0.3-0.6,0.5-0.8c0.3-0.4,0.8-0.7,1.3-0.9c0,0,0.1-0.1,0.1-0.1L62.3,68.6
	L62.3,68.6C62.3,68.6,62.3,68.6,62.3,68.6L62.3,68.6z M59.1,67.9c-0.7,0.4-1.2,1-1.6,1.7c-0.2,0.4-0.3,0.8-0.3,1.2c0,0,0,0.1,0,0.1
	c0,0,0,0,0,0c0-0.4,0.1-0.7,0.3-1.1c0.3-0.7,0.9-1.2,1.6-1.6c0.1-0.1,0.1-0.3,0.1-0.5C59.2,67.8,59.2,67.8,59.1,67.9L59.1,67.9z
	 M55,68.8c-0.3,0.2-0.5,0.5-0.6,0.8c-0.4,0.6-0.5,1.4-0.4,2.1c0-0.6,0.2-1.2,0.5-1.8c0.1-0.3,0.3-0.5,0.6-0.7
	C55,68.9,55,68.8,55,68.8L55,68.8C55,68.7,55,68.7,55,68.8L55,68.8z M48.4,74.2C48.4,74.2,48.4,74.2,48.4,74.2
	C48.4,74.2,48.4,74.2,48.4,74.2c-0.3-0.3-0.4-0.6-0.5-0.9l0,0c-0.1,0.4,0.1,0.8,0.4,1C48.3,74.3,48.3,74.2,48.4,74.2L48.4,74.2z
	 M62.2,60.9c-0.4,0.2-0.8,0.5-1.1,0.9c-0.3,0.3-0.5,0.7-0.6,1.1c0,0,0,0.1,0,0.1l0,0c0.1-0.4,0.3-0.7,0.6-1c0.3-0.4,0.6-0.7,1.1-0.8
	c0.1-0.1,0.1-0.2,0.1-0.4l0,0C62.3,60.9,62.2,60.9,62.2,60.9L62.2,60.9z M66.3,61.6c-0.5,0.1-1,0.3-1.4,0.6c-0.4,0.3-0.7,0.6-0.9,1
	c0,0-0.1,0.1,0,0.1c0.2-0.3,0.5-0.6,0.8-0.9c0.4-0.3,0.9-0.6,1.4-0.7c0.1,0,0.1-0.1,0.1-0.1L66.3,61.6L66.3,61.6
	C66.3,61.6,66.3,61.6,66.3,61.6L66.3,61.6z M69.4,63.6C69.4,63.7,69.3,63.7,69.4,63.6c-0.6,0.1-1.2,0.3-1.7,0.6
	c-0.1,0.1-0.2,0.2-0.3,0.3c-0.1,0.1-0.1,0.1-0.1,0.1c0,0,0.1,0.1,0.1,0.1c0.1-0.1,0.2-0.1,0.3-0.2c0.5-0.4,1-0.6,1.6-0.6
	C69.3,63.9,69.4,63.8,69.4,63.6L69.4,63.6z M51.1,68.9L51.1,68.9C51.1,68.9,51.1,68.9,51.1,68.9c0,0.4-0.2,0.6-0.6,0.7
	c-0.4,0.2-0.8,0.1-1.1-0.2c-0.2,0.3-0.6,0.4-0.9,0.3c-0.3-0.1-0.5-0.2-0.7-0.5c0-0.1-0.1-0.2-0.1-0.3h0c-0.3,0-0.6,0.1-0.9,0.1v0.3
	c0.3,0,0.6,0,0.9-0.1l0,0c0,0.1,0,0.2,0.1,0.3c0.1,0.2,0.4,0.4,0.6,0.4c0.3,0.1,0.7,0,0.9-0.3c0.3,0.3,0.7,0.4,1.1,0.2
	c0.3-0.1,0.5-0.3,0.5-0.6C51.1,69.1,51.1,69,51.1,68.9L51.1,68.9z M51.9,76.7c-0.4,0.2-0.9,0.2-1.3,0c-0.2-0.1-0.3-0.3-0.4-0.4
	c0,0-0.1-0.1-0.1-0.1c-0.3,0.3-0.7,0.4-1,0.3c-0.4,0-0.8-0.2-1-0.6c-0.2-0.2-0.3-0.5-0.3-0.8l0,0c0,0.4,0.1,0.7,0.3,1.1
	c0.2,0.3,0.5,0.5,0.9,0.6c0.4,0,0.8-0.1,1.1-0.4c0,0,0.1,0,0.1,0.1c0.1,0.2,0.3,0.3,0.4,0.4c0.4,0.2,0.9,0.2,1.3,0
	c0.4-0.3,0.6-0.7,0.7-1.2C52.5,76.2,52.3,76.5,51.9,76.7z M61.4,78.7c-0.3,0.1-0.6,0.2-0.9,0.4c-0.4,0.3-0.7,0.7-0.9,1.1
	c0,0,0,0,0,0l0,0c0.2-0.4,0.5-0.7,0.8-1c0.3-0.2,0.6-0.3,0.9-0.4C61.4,78.9,61.5,78.7,61.4,78.7C61.4,78.7,61.4,78.7,61.4,78.7
	L61.4,78.7z M59.2,77.4C59.2,77.4,59.2,77.4,59.2,77.4c-0.9,0.3-1.7,0.9-2.1,1.7c0,0,0,0.1,0,0.1l0.1,0c0.4-0.7,1.1-1.3,1.9-1.5
	C59.2,77.7,59.2,77.5,59.2,77.4L59.2,77.4z M55.5,77.1c-0.4,0.3-0.7,0.7-0.9,1.2c-0.2,0.4-0.3,0.8-0.2,1.1c0,0,0,0,0,0.1l0,0
	c0-0.3,0.1-0.7,0.2-0.9c0.2-0.4,0.5-0.8,0.9-1.1C55.5,77.3,55.5,77.2,55.5,77.1C55.5,77.1,55.5,77.1,55.5,77.1L55.5,77.1z
	 M52.2,78.4c-0.4,0.4-0.6,1-0.4,1.6l0,0c0-0.5,0.1-1,0.5-1.3C52.2,78.6,52.2,78.5,52.2,78.4C52.2,78.4,52.2,78.4,52.2,78.4z
	 M50.5,81.7L50.5,81.7c0.1-0.1,0.1-0.1,0-0.1c-0.1-0.2-0.2-0.5-0.3-0.8c-0.1-0.2-0.1-0.5-0.1-0.7l0,0c0,0.3,0,0.6,0.1,0.9
	C50.3,81.2,50.4,81.4,50.5,81.7z M52.1,84.8c-0.3,0.2-0.6,0.3-0.9,0.2c-0.3-0.1-0.6-0.3-0.8-0.6c0,0-0.1,0-0.1,0
	c-0.2,0.4-0.6,0.8-1,0.9c-0.3,0-0.6-0.1-0.8-0.3c-0.2-0.2-0.3-0.4-0.3-0.7l0,0c0,0.7,0.1,0.8,0.3,1c0.2,0.2,0.6,0.3,0.9,0.3
	c0.5-0.1,0.8-0.5,1-0.9c0,0,0.1,0,0.1,0c0.2,0.3,0.5,0.5,0.8,0.6c0.3,0.1,0.7,0,0.9-0.2c0.3-0.3,0.4-0.6,0.4-1
	C52.5,84.4,52.4,84.6,52.1,84.8L52.1,84.8z M48.6,83.4c0,0,0.1-0.1,0.1-0.1c0,0,0,0,0-0.1c-0.4-0.1-0.7-0.5-0.7-0.9l0,0
	C48,82.8,48.3,83.2,48.6,83.4L48.6,83.4z M22.1,40.7L22.1,40.7c0,0,0.1-0.1,0-0.1c0,0,0,0,0,0c-0.1-0.1-0.1-0.3-0.1-0.5v0v0
	C22,40.3,22.1,40.5,22.1,40.7L22.1,40.7z M22.9,55.1L22.9,55.1C23,55.1,23,55,23,55c-0.1-0.1-0.2-0.3-0.3-0.4c0-0.1-0.1-0.2-0.1-0.3
	l0,0c0,0.2,0,0.4,0.1,0.6C22.8,54.9,22.8,55,22.9,55.1L22.9,55.1z M26.7,56.3L26.7,56.3c0,0.3-0.2,0.6-0.5,0.8
	c-0.3,0.2-0.7,0.3-1,0.2c-0.2-0.1-0.5-0.2-0.6-0.4c-0.1-0.1-0.1,0-0.2,0.1c-0.2,0.1-0.4,0.3-0.7,0.4c-0.5,0.2-1,0.1-1.3-0.3
	c-0.1-0.2-0.2-0.4-0.2-0.7l0,0c0,0.3,0.1,0.6,0.2,0.9c0.3,0.4,0.8,0.6,1.3,0.4c0.2-0.1,0.5-0.2,0.7-0.4c0.1-0.1,0.1-0.2,0.2-0.1
	c0.2,0.2,0.4,0.4,0.7,0.4c0.4,0.1,0.7,0,1-0.2C26.6,57.2,26.8,56.8,26.7,56.3L26.7,56.3z M25.7,49.2c0,0.4-0.2,0.7-0.5,0.9
	c-0.5,0.3-1.2,0.2-1.5-0.3c0,0,0,0,0,0c0,0-0.2-0.1-0.2,0c-0.3,0.2-0.7,0.3-1.1,0.3c-0.4,0-0.7-0.3-0.9-0.6c0-0.1-0.1-0.2-0.1-0.3
	c0,0.2,0,0.4,0.1,0.5c0.1,0.4,0.5,0.6,0.9,0.7c0.4,0,0.8-0.1,1.1-0.3c0.1,0,0.1,0,0.2,0c0.3,0.5,1,0.8,1.5,0.5
	C25.6,50.1,25.7,49.9,25.7,49.2L25.7,49.2z M22.3,47.8C22.3,47.8,22.4,47.8,22.3,47.8c0.1-0.1,0.1-0.1,0.1-0.2
	c-0.2-0.2-0.3-0.4-0.3-0.6C22.1,47.3,22.2,47.6,22.3,47.8L22.3,47.8z M27.8,49.6c-0.4,0.4-0.6,0.9-0.8,1.4c-0.1,0.4-0.1,0.8,0,1.2
	c0-0.3,0-0.6,0-0.9c0.1-0.5,0.4-1,0.8-1.4c0,0,0-0.1,0-0.1L27.8,49.6L27.8,49.6C27.8,49.6,27.8,49.6,27.8,49.6L27.8,49.6z
	 M31.2,48.5c-1,0.6-1.6,1.8-1.4,3l0,0c-0.1-1.1,0.5-2.1,1.4-2.7C31.2,48.8,31.2,48.6,31.2,48.5L31.2,48.5
	C31.2,48.5,31.2,48.5,31.2,48.5L31.2,48.5z M32.9,50.6c0,0,0.1,0.1,0.1,0.1l0.1,0c0.4-1,1.1-1.8,2-2.5c0,0,0-0.1,0-0.2v-0.2
	c0,0,0,0.1,0,0.1C34.1,48.6,33.3,49.5,32.9,50.6L32.9,50.6z M28,42.9c-0.3,0.2-0.5,0.4-0.7,0.7c-0.4,0.6-0.5,1.3-0.4,2
	c0,0,0,0.1,0,0.1l0,0c0-0.6,0.1-1.2,0.5-1.7c0.1-0.3,0.4-0.5,0.6-0.7c0,0,0,0,0,0L28,42.9C28,42.8,28,42.9,28,42.9L28,42.9z
	 M31.6,41.9c-0.4,0.2-0.7,0.5-1,0.9c-0.3,0.4-0.6,1-0.7,1.5c0,0.1,0,0.1,0.1,0.2c0.1-0.5,0.4-1,0.7-1.4c0.2-0.4,0.6-0.7,0.9-0.9
	c0.1,0,0.1-0.1,0.1-0.2v-0.2l0,0C31.7,41.8,31.7,41.9,31.6,41.9L31.6,41.9z M36,41.8c-0.5,0-1.1,0.2-1.5,0.5c-0.5,0.3-0.9,0.8-1,1.4
	c0,0.1,0,0.1,0.1,0.2c0.2-0.5,0.5-0.9,1-1.2c0.4-0.3,0.9-0.5,1.5-0.6c0.1,0,0.1-0.1,0.1-0.2v-0.2l0,0C36,41.7,36,41.8,36,41.8
	L36,41.8z M37.7,43.8l0.1-0.1c0.5-0.3,1.1-0.6,1.7-0.7c0.1,0,0.1,0,0.1-0.2v-0.2c0,0,0,0-0.1,0c-0.8,0.1-1.5,0.4-2.1,0.9
	c-0.1,0.1-0.2,0.1,0,0.2L37.7,43.8z M28.9,34.9c-0.6,0.4-1.1,0.8-1.5,1.4c-0.3,0.6-0.5,1.2-0.5,1.9c0,0,0,0,0.1,0
	c0-0.6,0.2-1.1,0.5-1.6c0.4-0.5,0.9-1,1.4-1.4c0-0.1,0-0.3,0-0.4l0,0C29,34.9,29,34.9,28.9,34.9z M33.7,33.8
	C33.7,33.9,33.7,33.9,33.7,33.8c-0.5,0.4-1,0.8-1.5,1.2c-0.4,0.5-0.7,1.1-0.8,1.7c0,0,0,0.1,0.1,0l0,0c0.1-0.5,0.4-1,0.7-1.4
	c0.4-0.4,0.9-0.8,1.4-1.1c0,0,0-0.1,0-0.2L33.7,33.8L33.7,33.8z M38.6,33.6c-0.7,0.2-1.4,0.6-2,1.1c-0.4,0.4-0.7,1-0.8,1.5
	c0,0,0.1,0,0.1,0c0.1-0.5,0.4-0.9,0.7-1.2c0.6-0.5,1.3-0.9,2-1.1c0.1,0,0.1-0.1,0.1-0.1c0-0.1,0-0.3,0-0.3l0,0
	C38.6,33.5,38.6,33.5,38.6,33.6L38.6,33.6z M42.7,35.5c-0.6,0-1.2,0.1-1.8,0.2c-0.4,0.1-0.7,0.3-1,0.6c0,0,0,0.1,0,0.1c0,0,0,0,0,0
	l0.2,0c0.2-0.2,0.5-0.4,0.8-0.5c0.6-0.1,1.2-0.1,1.8-0.1c0,0,0.1,0,0.1-0.1L42.7,35.5C42.8,35.5,42.7,35.5,42.7,35.5L42.7,35.5z
	 M25.8,42c-0.1,0.4-0.3,0.5-0.6,0.7c-0.3,0.2-0.7,0.3-1.1,0.2c-0.2-0.1-0.4-0.2-0.6-0.4c0,0-0.1,0-0.1,0c-0.2,0.1-0.5,0.3-0.7,0.4
	c-0.5,0.2-1,0-1.2-0.4c0,0,0-0.1-0.1-0.1l0,0c0,0,0-0.1,0-0.1l0,0c0,0,0-0.1,0-0.1v0c0,0,0-0.1,0-0.1c0,0,0,0.1,0,0.1
	c0,0.3,0,0.5,0.1,0.8c0.3,0.4,0.8,0.6,1.3,0.4c0.2-0.1,0.5-0.2,0.7-0.4c0,0,0.1,0,0.1,0c0.4,0.5,1.1,0.7,1.6,0.3c0,0,0,0,0.1,0
	c0.2-0.1,0.4-0.3,0.4-0.5C25.8,42.4,25.9,42.1,25.8,42C25.8,42,25.8,42,25.8,42L25.8,42z M42.3,39.4c0,0.1-0.1,0.1-0.2,0.1
	c-0.1,0-0.1,0-0.2-0.1c-1.2-1-2.7-1.6-4.2-1.6C33.5,38,29.4,39,25.6,41c0,0-0.1,0.1,0,0.1c0.1,0.1,0.1,0.1,0.1,0.2
	c3.8-1.9,7.9-3,12.2-3.1c1.5,0,3,0.6,4.2,1.6c0,0.1,0.1,0.1,0.2,0.1c0.1,0,0.1-0.1,0.1-0.2c0-0.2,0.1-0.5,0-0.7
	C42.4,39.1,42.4,39.3,42.3,39.4L42.3,39.4z M36.1,46c-0.4-0.2-0.9-0.3-1.3-0.3c-3.2,0.1-6.4,1-9.1,2.6c0,0-0.1,0.1-0.1,0.2
	c0,0.1,0.1,0.2,0.1,0.3c0,0,0-0.1,0.1-0.1c2.8-1.6,5.9-2.5,9.1-2.6c0.4,0,0.9,0.1,1.3,0.3c0,0,0,0,0.1,0L36.1,46
	C36.2,46,36.1,46,36.1,46L36.1,46z M36.2,52.4L36.2,52.4L36.2,52.4c0,0.1-0.1,0.1-0.1,0.1c-1.7-0.1-3.3,0.1-4.9,0.6
	c-1.7,0.5-3.3,1.2-4.8,2.1c-0.1,0.1-0.1,0.1,0,0.2c0,0,0.1,0.1,0.1,0.1c1.5-0.9,3.1-1.6,4.8-2.1c1.6-0.5,3.3-0.7,4.9-0.6
	c0,0,0.1,0,0.1,0L36.2,52.4z M53.1,66.9c-0.7,0.5-1.4,0.9-2.2,1.2l0,0l0.1,0.2c0,0,0,0,0,0c0.7-0.3,1.4-0.7,2-1.1l0,0l0.1,0
	c1.1-0.3,5.4-1.8,8.1-1.9c1.6,0,3.3,0.4,4.7,1.1c0.7,0.4,1.4,1,2,1.6c0,0,0,0.1,0.1,0.1c0,0,0.1,0,0.1-0.1c0.2-0.4,0.3-0.9,0.2-1.4
	c0,0.4-0.1,0.8-0.2,1.1c0,0-0.1,0.1-0.1,0.1c-0.1,0-0.1-0.1-0.1-0.1c-0.6-0.6-1.2-1.2-2-1.6c-1.4-0.8-3.1-1.2-4.7-1.2
	c-2.7,0-7,1.6-8.1,1.9C53.2,66.9,53.1,66.9,53.1,66.9L53.1,66.9z M64.5,74.8c-0.1,0.1-0.2,0.1-0.3,0.1c-0.3-0.4-0.7-0.8-1.2-1.2
	c-0.5-0.4-1.2-0.8-1.8-0.9c-1-0.2-2.1-0.2-3.1-0.1c-2,0.3-3.9,0.9-5.7,2c-0.1,0.1-0.1,0.1-0.1,0.1c0,0,0.1,0.1,0.1,0.1
	c1.8-1,3.7-1.7,5.7-1.9c1-0.2,2.1-0.1,3.1,0.1c0.7,0.2,1.3,0.5,1.8,0.9c0.4,0.3,0.8,0.7,1.2,1.2c0.1,0,0.2,0,0.3-0.1
	c0.1-0.2,0.2-0.5,0.2-0.7l0,0C64.6,74.5,64.6,74.6,64.5,74.8L64.5,74.8z M60.2,82.4c0,0-0.1,0-0.2,0c-0.3-0.3-0.6-0.6-1-0.8
	c-0.9-0.4-2-0.6-3-0.5c-1.5,0.2-2.9,0.8-4.1,1.8c-0.1,0.1-0.1,0.1-0.1,0.2c0,0,0.1,0.1,0.1,0.1c1.2-0.9,2.6-1.6,4.1-1.8
	c1-0.1,2.1,0,3,0.5c0.4,0.2,0.7,0.5,1,0.8c0.1,0,0.1,0,0.2,0c0.2-0.2,0.4-0.6,0.3-0.9C60.5,81.9,60.4,82.2,60.2,82.4z"/>
<linearGradient id="SVGID_2_" gradientUnits="userSpaceOnUse" x1="15.4251" y1="108.6147" x2="72.6802" y2="75.5583" gradientTransform="matrix(1 0 0 -1 0 142.6535)">
	<stop  offset="0" style="stop-color:#E1BE78"/>
	<stop  offset="0.34" style="stop-color:#FFFAD1"/>
	<stop  offset="0.75" style="stop-color:#C69632"/>
	<stop  offset="0.995" style="stop-color:#FCDC99"/>
</linearGradient>
<path class="st4" d="M56,64l0.2-0.1l1.5-0.3c0.1,0,0.1-0.1,0.1-0.1c0.2-0.7,0.5-1.4,0.9-2c0.8-1.1,2.3-1.4,3.5-0.8
	c0.1,0.1,0.1,0.2,0,0.2c0,0,0,0-0.1,0c-0.4,0.2-0.8,0.5-1.1,0.8c-0.3,0.3-0.5,0.7-0.6,1.1c0,0,0,0.1,0,0.1c0.1,0,0.8,0,1.1,0.1
	c0.1,0,0.1,0,0.1-0.1c0.2-0.8,0.7-1.4,1.3-2c0.6-0.5,1.5-0.7,2.3-0.4c0.5,0.1,0.9,0.4,1.1,0.9c0,0,0,0.1,0,0.1
	c-0.5,0.1-1,0.3-1.4,0.7c-0.4,0.3-0.7,0.6-0.9,1c0,0-0.1,0.1,0.1,0.1c0.4,0.1,0.7,0.2,1.1,0.3c0,0,0.1,0,0.2,0
	c0.4-0.6,1.1-1.1,1.8-1.2c1.1-0.2,2.1,0.3,2.3,1c0,0.1,0.1,0.2,0,0.2c-0.6,0-1.2,0.2-1.6,0.6c-0.1,0.1-0.2,0.2-0.3,0.2
	c-0.1,0.1-0.1,0.1-0.1,0.1c0.2,0.2,1.1,0.8,1.1,1.7c0,0.5,0,1-0.2,1.5c0,0-0.1,0.1-0.1,0.1c-0.1,0-0.1-0.1-0.1-0.1
	c-0.6-0.6-1.2-1.2-2-1.6c-1.5-0.8-3.1-1.2-4.7-1.1c-2.7,0-7,1.6-8.1,1.9l-0.1,0C53.1,67,53.7,66.3,56,64z M62.9,69.4
	c-0.6,0.2-1,0.7-1.3,1.2c0,0-0.1,0.1-0.1,0.1c-0.3,0-0.7-0.1-1-0.1c-0.1,0-0.1-0.1-0.1-0.1c0.1-0.3,0.3-0.7,0.6-0.9
	c0.4-0.4,0.8-0.7,1.3-0.9c0,0,0.1,0,0.1-0.1c0,0,0,0,0,0c-0.3-0.4-0.8-0.6-1.4-0.7c-0.7,0-1.3,0.2-1.8,0.7c-0.6,0.6-0.9,1.3-1,2.2
	c0,0.1-0.1,0.1-0.1,0.1c-0.3,0-0.5,0.1-0.8,0.1c0,0,0-0.1,0-0.1c0-0.4,0.1-0.8,0.3-1.2c0.4-0.7,0.9-1.3,1.6-1.7
	c0.1-0.1,0.1-0.2,0.1-0.2c-0.8-0.3-1.8-0.3-2.5,0.2c-0.5,0.3-0.9,0.7-1.1,1.2c-0.3,0.7-0.4,1.5-0.5,2.3c0,0-0.1,0.1-0.1,0.1
	c-0.3,0.1-0.7,0.1-1,0.3c0,0-0.1,0-0.1-0.1c-0.1-0.7,0-1.5,0.4-2.1c0.2-0.3,0.4-0.6,0.6-0.8c0.1,0,0.1-0.1,0-0.2c0,0,0,0-0.1,0
	c-0.6-0.1-1.3,0-1.9,0.3c-0.7,0.4-1.2,1.1-1.3,1.9c-0.1,0.6,0,1.2,0.1,1.7c0,0,0,0.1,0,0.1c-0.2,0.1-0.8,0.4-1,0.5c0,0-0.1,0-0.1,0
	c-0.1-0.4-0.4-0.8-0.8-1c-0.4-0.2-0.9-0.1-1.3,0.1c-0.3,0.2-0.5,0.4-0.6,0.7c-0.2,0.5-0.1,1,0.4,1.3c0,0,0,0.1,0,0.1
	c-0.3,0.1-0.3,0.2-0.5,0.5c-0.2,0.4-0.1,0.9,0.1,1.3c0.4,0.6,1.3,0.8,1.9,0.4c0.1,0,0.1-0.1,0.2-0.1c0,0,0.1,0,0.1,0.1
	c0.1,0.2,0.2,0.3,0.4,0.4c0.4,0.2,0.9,0.2,1.3,0c0.4-0.2,0.7-0.7,0.6-1.2c0-0.3-0.1-0.6-0.3-0.8c0,0,0-0.1,0.1-0.1
	c1.8-1,3.7-1.7,5.7-1.9c1-0.2,2.1-0.1,3.1,0.1c0.7,0.2,1.3,0.5,1.8,0.9c0.4,0.3,0.8,0.7,1.2,1.2c0.1,0,0.2,0,0.3-0.1
	c0.2-0.5,0.2-1,0-1.5c-0.2-0.6-0.6-1.2-1.1-1.7c0,0,0,0,0-0.1c0-0.1,0-0.1,0.2-0.2c0.5-0.4,1-0.7,1.6-0.9c0.1,0,0.1-0.1,0.1-0.2
	C64.8,69.4,63.8,69.1,62.9,69.4L62.9,69.4z M73.9,27c0,0-0.3,21.1-0.6,31.5c-0.1,3.1-0.6,6.1-1.7,9c-1.2,3.3-2.8,6.4-4.7,9.3
	c-2,3-4.5,5.7-7.3,8c-1.1,0.9-2.3,1.8-3.5,2.5c-1.9,1.1-3.9,2.1-5.9,3c-0.7,0.3-1.3,0.6-1.8,0.7c-0.6,0.2-1.1,0.4-1.7,0.5
	c-0.6-0.1-1.2-0.3-1.7-0.5c-0.5-0.2-1.1-0.5-1.8-0.7c-2-0.8-4-1.9-5.9-3c-1.2-0.8-2.4-1.6-3.5-2.5c-2.8-2.3-5.3-5-7.3-8
	c-1.9-2.9-3.5-6.1-4.7-9.3c-1-2.9-1.6-5.9-1.7-9C19.8,48.1,19.5,27,19.5,27s0.1,0,0.2-0.1c2.8-1.1,5.7-2.1,8.7-2.8
	c4.1-1,8.2-1.6,12.4-2c2-0.2,3.9-0.2,5.9-0.3h0.2c2.1,0,3.9,0.1,5.9,0.3c4.2,0.3,8.3,1,12.4,2c2.9,0.7,5.8,1.7,8.7,2.8
	C73.8,27,73.9,27,73.9,27z M22.1,65.4h16.5c-1.5-1.7-2.4-3.8-2.4-6.1V59H21.1C21.2,61.1,21.6,63.3,22.1,65.4z M46,80.5H30.6
	c1.1,1.3,2.4,2.4,3.7,3.5c1.1,0.9,2.2,1.7,3.3,2.5c1.8,1.1,3.7,2.1,5.7,2.9c0.7,0.3,1.2,0.5,1.7,0.7c0.4,0.1,0.7,0.2,1,0.3l0,0
	L46,80.5L46,80.5z M46,73.3H25.5c0.5,1,1.1,2,1.8,2.9c0.8,1.2,1.7,2.4,2.6,3.4H46V73.3z M46,69c-2.3-0.2-4.5-1.1-6.3-2.6
	c-0.1-0.1-0.2-0.2-0.3-0.3H22.3c0.1,0.4,0.2,0.7,0.4,1.1c0.6,1.8,1.4,3.6,2.3,5.3h21V69z M46,30.5c-1.8,0-3.4,0.1-5.1,0.2
	c-4,0.3-8,1-11.9,1.9c-2.8,0.7-5.6,1.6-8.3,2.7c0,0,0,0,0,0c0.1,6.8,0.3,16.6,0.5,22.8h15.1l0-5.7c0,0-0.1,0-0.1,0
	c-1.7-0.1-3.3,0.1-4.9,0.6c-1.7,0.5-3.3,1.2-4.8,2.1c-0.1,0.1-0.1,0.1,0,0.2c0.2,0.2,0.3,0.5,0.4,0.8c0.1,0.4-0.1,0.8-0.5,1
	c-0.3,0.2-0.7,0.3-1,0.2c-0.3-0.1-0.5-0.2-0.7-0.4c-0.1-0.1-0.1,0-0.2,0.1c-0.2,0.1-0.4,0.3-0.7,0.4c-0.5,0.2-1,0.1-1.3-0.4
	c-0.3-0.4-0.3-1,0-1.4c0.1-0.1,0.4-0.3,0.5-0.4c0,0,0.1-0.1,0-0.1c-0.1-0.1-0.2-0.3-0.3-0.4c-0.1-0.4,0-0.9,0.3-1.3
	c0.4-0.3,0.8-0.3,1.2-0.1c0.3,0.1,0.5,0.5,0.6,0.7c0,0,0.1,0.1,0.1,0l0.4-0.2c0.1,0,0-0.1,0-0.2c-0.5-1.2-0.6-2.1-0.1-2.9
	c0.3-0.6,0.8-1,1.4-1.1c0.4-0.1,0.8-0.1,1.1,0.1c0,0,0,0.1,0,0.1c-0.4,0.4-0.6,0.9-0.8,1.4c-0.1,0.5-0.1,1,0.1,1.4
	c0,0.1,0.1,0.1,0.1,0.1c0.2-0.1,0.7-0.3,0.9-0.3c0.1,0,0-0.1,0-0.2c-0.2-0.8-0.2-1.6,0.1-2.3c0.5-1,1.5-1.6,2.7-1.5
	c0.2,0,0.4,0.2,0.3,0.3c-1,0.6-1.6,1.8-1.4,3c0,0,0.1,0.1,0.1,0.1c0.4-0.1,0.8-0.2,1.1-0.3c0.1,0,0-0.1,0.1-0.2
	c0-0.9,0.3-1.8,0.9-2.5c0.7-0.7,1.6-1.1,2.6-1.1c0.2,0,0.4,0.1,0.5,0.3c0,0.1,0,0.1,0,0.2c-1,0.6-1.7,1.6-2.1,2.6c0,0,0,0.1,0.1,0.1
	c0.6,0,1.2-0.1,1.7-0.2c0.1,0,0.1,0,0.1-0.1c0.2-0.7,0.7-1.2,1.3-1.6c0,0,0.1,0,0.1-0.1l0-2.7c0,0,0,0-0.1,0
	c-0.4-0.2-0.9-0.3-1.3-0.3c-3.2,0.1-6.4,1-9.1,2.6c0,0-0.1,0.1-0.1,0.2c0.4,0.8,0.1,1.3-0.3,1.6c-0.5,0.3-1.2,0.2-1.5-0.4
	c0-0.1-0.1-0.1-0.2,0c-0.3,0.2-0.7,0.3-1.1,0.3c-0.4,0-0.7-0.3-0.9-0.6c-0.2-0.6,0.1-1.3,0.8-1.5c0,0,0,0,0,0c0.1,0,0.1-0.1,0-0.1
	c-0.4-0.4-0.3-1.1,0.1-1.5c0,0,0.1-0.1,0.1-0.1c0.5-0.3,1.2-0.1,1.6,0.4c0,0.1,0.1,0.2,0.1,0.2c0,0.1,0,0,0.1,0
	c0.2,0,0.4-0.1,0.5-0.2c0.1,0,0.2-0.3,0.2-0.4c0-1.4,0-2.3,0.9-3.2c0.4-0.4,1.7-0.7,2.1-0.3c0,0,0,0.1,0,0.1
	c-0.3,0.2-0.5,0.4-0.7,0.7c-0.4,0.6-0.5,1.3-0.4,2c0,0,0,0.1,0,0.1c0.4-0.1,0.8-0.3,1.2-0.4c0,0,0-0.1,0-0.1
	c-0.1-0.9,0.2-1.9,0.8-2.6c0.6-0.7,2.1-1.3,2.9-0.7c0.1,0.1,0,0.1-0.1,0.2c-0.4,0.2-0.7,0.5-1,0.8c-0.3,0.4-0.6,1-0.7,1.5
	c0,0.1,0.1,0.2,0.1,0.2c0.3-0.1,0.9-0.1,1.3-0.3c0.2-0.1,0.1-0.1,0.2-0.3c0.1-1.5,1.3-2.7,2.8-2.8c0.5-0.1,1,0,1.5,0.2
	c0.1,0.1,0.2,0.2,0.3,0.3c0,0.1,0,0.1,0,0.2c0,0,0,0,0,0c-0.5,0-1.1,0.2-1.5,0.5c-0.5,0.3-0.9,0.8-1,1.4c0,0.1,0,0.2,0.1,0.2
	c0.4,0,0.9,0,1.4,0c0.1,0,0.1,0,0.1-0.1c0.3-0.8,1-1.5,1.8-1.8c0.9-0.3,2-0.1,2.7,0.6c0.1,0.1,0.1,0.2,0,0.2
	c-0.8,0.1-1.5,0.4-2.1,0.9c-0.1,0.1-0.2,0.1,0,0.2H46L46,30.5z M53.1,67L53.1,67c-0.7,0.5-1.4,0.9-2.2,1.2l0,0l0.1,0.2
	c0.1,0.2,0.1,0.4,0.1,0.6c0,0.3-0.2,0.6-0.5,0.7c-0.4,0.2-0.8,0.1-1.1-0.2c-0.2,0.3-0.6,0.4-0.9,0.3c-0.3-0.1-0.5-0.2-0.6-0.5
	c0-0.1-0.1-0.2-0.1-0.3C47.6,69,47.3,69,47,69l0,21.2v0.3l0,0c0.3-0.1,0.8-0.3,1.4-0.5c0.5-0.2,1.1-0.4,1.7-0.7
	c2-0.8,3.9-1.8,5.7-2.9c1.2-0.7,2.3-1.6,3.3-2.5c2.7-2.2,5.1-4.9,7-7.8c1.9-2.8,3.4-5.9,4.5-9.1c1-2.7,1.5-5.6,1.6-8.5H57.4v0.5
	C57.3,62.4,55.7,65.2,53.1,67L53.1,67z M72.4,51.3H57.4v1.2l0,5.4h14.9C72.3,56,72.4,53.7,72.4,51.3L72.4,51.3z M72.6,44.8H57.4v1.3
	v2.7v1.6h15.1C72.5,48.6,72.5,46.7,72.6,44.8L72.6,44.8z M72.7,37.5H47v6.4h25.6C72.6,41.7,72.7,39.5,72.7,37.5L72.7,37.5z
	 M72.7,35.4C72.7,35.4,72.7,35.4,72.7,35.4c-2.8-1.1-5.5-2-8.4-2.7c-3.9-1-7.9-1.6-11.9-1.9c-1.9-0.2-3.6-0.2-5.5-0.3v6.2h25.8
	C72.7,36.2,72.7,35.8,72.7,35.4L72.7,35.4z M72.9,27.9c-0.1,0-0.1-0.1-0.2-0.1c-2.7-1.1-5.5-2-8.3-2.7c-3.9-1-7.9-1.6-11.9-1.9
	c-2-0.2-3.7-0.2-5.7-0.3h-0.2c-2,0-3.7,0.1-5.7,0.3c-4,0.3-8,1-11.9,1.9c-2.8,0.7-5.6,1.6-8.3,2.7c-0.1,0-0.2,0.1-0.2,0.1
	s0,2.7,0.1,6.6c0,0,0,0,0.1,0c2.7-1.1,5.5-2,8.3-2.7c3.9-1,7.9-1.6,11.9-1.9c2-0.2,3.7-0.3,5.7-0.3h0.2c2,0,3.7,0.1,5.7,0.3
	c4,0.3,8,1,11.9,1.9c2.8,0.7,5.6,1.6,8.3,2.7c0,0,0,0,0.1,0C72.8,30.6,72.9,27.9,72.9,27.9L72.9,27.9z M58.9,78.2
	c-0.4,0.3-0.8,0.7-1,1.2c0,0,0,0.1-0.1,0.1l-0.6-0.2c0,0,0-0.1,0-0.1c0.4-0.8,1.1-1.4,2-1.6c0,0,0-0.1,0-0.1
	c-0.3-0.8-1.9-0.7-2.7-0.2c-0.7,0.5-1.2,1.2-1.4,2.1c0,0.1,0,0.1,0,0.1c-0.2,0.1-0.4,0.1-0.7,0.2c0,0-0.1,0-0.1-0.1
	c-0.1-0.4,0-0.8,0.2-1.1c0.3-0.4,0.6-0.8,0.9-1.2c0,0,0-0.1,0-0.2c0,0,0,0,0,0c-0.5-0.3-1-0.3-1.5,0c-0.7,0.3-1.1,0.9-1.4,1.6
	c-0.1,0.5-0.1,1.1,0,1.7c0,0,0,0.1,0,0.1c-0.2,0.1-0.4,0.2-0.6,0.3c0,0-0.1,0-0.1,0c-0.4-0.7-0.3-1.6,0.3-2.1c0.1,0,0.1-0.1,0-0.1
	c-0.6-0.1-1.2,0.1-1.5,0.6c-0.4,0.5-0.6,1.3-0.3,1.9c0.1,0.3,0.2,0.5,0.3,0.8c0,0,0.1,0.1,0,0.1c-0.2,0.1-0.3,0.2-0.4,0.3
	c0,0,0,0-0.1,0c-0.2-0.3-0.5-0.6-0.8-0.7c-0.3-0.1-0.7,0-0.9,0.3c-0.4,0.4-0.4,1.1,0,1.5c0.1,0.1,0.3,0.2,0.4,0.3c0,0,0,0,0,0.1
	c-0.2,0.2-0.4,0.4-0.6,0.6c-0.2,0.4-0.1,0.9,0.2,1.2c0.2,0.2,0.5,0.3,0.8,0.3c0.5-0.1,0.8-0.5,1-0.9c0,0,0.1,0,0.1,0
	c0.2,0.3,0.5,0.5,0.8,0.6c0.3,0.1,0.7,0,0.9-0.2c0.4-0.3,0.5-0.7,0.3-1.2c-0.1-0.3-0.3-0.5-0.6-0.6c0,0,0-0.1,0.1-0.2
	c1.2-0.9,2.6-1.6,4.1-1.8c1-0.1,2.1,0,3,0.5c0.4,0.2,0.7,0.5,1,0.8c0,0,0.1,0.1,0.2,0c0.5-0.4,0.5-1.1,0.1-1.6
	c-0.2-0.2-0.4-0.4-0.6-0.5c0,0,0,0,0,0c0.2-0.5,0.5-0.9,0.9-1.1c0.3-0.2,0.6-0.3,0.9-0.4c0.1,0,0.1-0.1,0-0.1
	C61.1,77.7,59.6,77.7,58.9,78.2z M41.2,34.3c0.7,0,1.3,0.5,1.5,1.2c0,0,0,0.1-0.1,0.1c-0.6,0-1.2,0-1.8,0.1c-0.4,0.1-0.7,0.4-1,0.6
	c0,0,0,0.1,0,0.1c0.7,0.2,1.3,0.5,1.8,1c0.6,0.5,0.8,1.3,0.6,2c0,0.1-0.1,0.1-0.2,0.2c-0.1,0-0.1,0-0.2-0.1c-1.2-1-2.7-1.6-4.2-1.6
	c-4.3,0.1-8.4,1.2-12.2,3.1c0,0-0.1,0.1,0,0.1c0.2,0.2,0.3,0.6,0.3,0.9c-0.1,0.4-0.3,0.5-0.6,0.7c-0.5,0.4-1.2,0.3-1.6-0.2
	c0,0,0,0,0-0.1c0,0-0.1,0-0.1,0c-0.2,0.2-0.5,0.3-0.7,0.4c-0.5,0.2-1,0-1.2-0.4c-0.3-0.6-0.1-1.4,0.6-1.7c0,0,0,0,0,0
	c0,0,0.1-0.1,0-0.1c0,0,0,0,0,0c-0.3-0.5-0.1-1.1,0.4-1.4c0.5-0.3,1.5-0.4,1.7,0.4c0,0,0,0.1,0.1,0.1c0,0,0,0,0,0
	c0.2-0.1,0.5-0.2,0.7-0.3c0.1,0,0.1-0.1,0.1-0.2c-0.3-1.1-0.1-2.3,0.6-3.3c1-1.1,2.1-1.6,3.3-1.1c0,0,0,0.1,0,0.1
	c-0.5,0.5-1.1,0.8-1.5,1.4c-0.4,0.6-0.5,1.2-0.5,1.9c0,0,0.1,0,0.1,0c0.6-0.2,1.3-0.5,2.1-0.7c0,0,0.1,0,0.1-0.1
	c0-0.4,0-0.8,0.1-1.2c0.2-1.1,0.9-2.1,2-2.5c0.7-0.3,1.6-0.3,2.3,0c0,0,0.1,0.1,0,0.1c-0.5,0.3-1,0.7-1.4,1.2
	c-0.4,0.5-0.7,1.1-0.8,1.7c0,0,0,0.1,0,0c0.6-0.2,1.3-0.3,2-0.4c0.1,0,0.1,0,0.1-0.1c0.1-0.6,0.6-2.3,1.4-2.9c0.9-0.6,2-0.8,3-0.6
	c0.2,0.1,0.4,0.3,0.6,0.5c0,0,0,0.1-0.1,0.1c-0.7,0.2-1.4,0.6-2,1.1c-0.4,0.4-0.7,0.9-0.7,1.5c0,0,0.1,0,0.1,0c0.6,0,1.2,0,1.7,0
	c0,0,0.1,0,0.1-0.1c0.3-0.7,0.8-1.3,1.5-1.6C39.9,34.3,40.6,34.2,41.2,34.3z"/>
<linearGradient id="SVGID_3_" gradientUnits="userSpaceOnUse" x1="21.5082" y1="114.1573" x2="71.652" y2="114.1573" gradientTransform="matrix(1 0 0 -1 0 142.6535)">
	<stop  offset="0" style="stop-color:#FFE3A8"/>
	<stop  offset="1" style="stop-color:#D2A249"/>
</linearGradient>
<path class="st5" d="M65.3,26c2.1,0.6,4.2,1.3,6.3,2.1c0.1,0,0.1,0.1,0.1,0.1c0,0.5,0,0.5,0,0.9c0,0.1-0.1,0.1-0.2,0.1
	c-1.3-0.5-3.1-1.1-4.7-1.5c0,0-0.1,0-0.1,0v0.6c0,0,0,0,0.1,0.1c1.7,0.5,3.3,1,4.8,1.5c0,0,0.1,0,0.1,0.1c0,0.5,0,0.9,0,1.4
	c0,0,0,0.1,0,0.1c-1.5-0.5-3.2-1.1-4.9-1.6c0,0-0.1,0-0.1,0l0,0.5c0,0,0,0.1,0.1,0.1c1.6,0.4,3.2,1,4.8,1.6c0,0,0.1,0.1,0.1,0.1
	c0,0.4,0,0.8,0,1.2c0,0,0,0.1-0.1,0.1c-2.1-0.8-4.2-1.5-6.3-2c0,0-0.1-0.1-0.1-0.1C65.2,29.4,65.2,27.8,65.3,26
	C65.2,26,65.2,26,65.3,26L65.3,26z M58,29.8c0.4,0.1,0.9,0.1,1.3,0.2c0,0,0.1,0,0.1-0.1c0-0.6,0-1.3,0-1.8c0,0,0,0,0.1,0
	c1.1,0.2,2.1,0.4,3.2,0.6c0,0,0.2,0,0.1,0.1c0,0.6,0,1.2,0,1.8c0,0.1,0,0.1,0.1,0.1c0.4,0.1,0.8,0.2,1.2,0.3c0.1,0,0.1,0,0.1,0
	c0.1-1.3,0.1-3.4,0.1-5.2c0,0,0-0.1,0-0.1c-0.4-0.1-0.9-0.2-1.3-0.3c0,0-0.1,0.1-0.1,0.1c0,0.6,0,1.2-0.1,1.9c0,0,0,0,0,0
	c-1.1-0.2-2.2-0.5-3.3-0.7c0,0,0-0.1,0-0.1c0-0.6,0-1.3,0-1.9c0,0,0-0.1-0.1-0.1c-0.4-0.1-0.8-0.1-1.2-0.2l0,0c0,0-0.1,0-0.1,0.1
	C58.1,25.4,58,28.8,58,29.8L58,29.8z M52.4,23.8c-0.6,0-1.1,0.4-1.2,1l0,3.5c0,0.4,0.3,0.7,0.7,0.8c1.8,0.2,3.5,0.3,5.5,0.6
	c0,0,0.1,0,0.1-0.1v-1.2c0,0-0.1-0.1-0.1-0.1c-1.3-0.2-3.1-0.4-4.6-0.6c-0.1,0-0.2-0.1-0.2-0.2v-2.4c0-0.1,0.1-0.2,0.2-0.1
	c1.5,0.1,3.1,0.4,4.6,0.6c0,0,0.1,0,0.1-0.1l0-1.1c0,0,0-0.1-0.1-0.1C55.8,24.1,54.5,24,52.4,23.8L52.4,23.8z M50.1,23.6L50.1,23.6
	c-1.7-0.1-3.5-0.1-5.2-0.1c-0.4,0-0.8,0.3-0.8,0.7l0,1.9c0,0.4,0.5,0.7,0.9,0.7c1.3,0,2.5,0,3.8,0.1c0.1,0,0.2,0.1,0.2,0.2l0,0.4
	c0,0.1,0,0.1-0.1,0.1c0,0,0,0,0,0c-1.5,0-3.1-0.1-4.6,0c-0.1,0-0.1,0-0.1,0.1l-0.1,1.1l0,0.1c1.8-0.1,3.7-0.1,5.5,0
	c0.4,0,0.8-0.3,0.9-0.8l0-1.8c0-0.4-0.5-0.7-0.8-0.7c-1.3-0.1-2.7,0-4.1-0.1c-0.1,0-0.1-0.1-0.1-0.1l0-0.4c0-0.1,0.1-0.1,0.1-0.1
	c1.3,0,3.2,0,4.5,0.1c0.1,0,0.2-0.1,0.2-0.2v-0.9C50.3,23.8,50.2,23.6,50.1,23.6 M42.3,27c0.4-0.1,0.6-0.5,0.6-0.9
	c0-0.5,0-1.1-0.1-1.6c-0.1-0.4-0.5-0.7-0.9-0.7c-1.2,0-3.9,0.4-5.4,0.6l0,5.3v0.1l1.4-0.2c0,0,0,0,0,0c0,0,0,0,0,0v-1.5l2.8-0.3
	c0.2,0,0.5,0.1,0.7,0.5c0.2,0.3,0.3,0.6,0.3,1l1.4-0.1c0,0,0.1,0,0.1,0C43.2,28.2,42.9,27.5,42.3,27L42.3,27z M41.4,25.9
	c0,0.2-0.2,0.4-0.4,0.5l-3.1,0.3l0,0v-1.2l0,0l3.2-0.3c0.1,0,0.2,0.1,0.3,0.2c0,0,0,0,0,0L41.4,25.9z M36.6,24.3L36.6,24.3
	L36.6,24.3L36.6,24.3z M35.7,25.4c0-0.2-0.1-0.4-0.3-0.6c-0.2-0.2-0.4-0.3-0.7-0.2c-1.6,0.2-3.2,0.6-4.8,0.9
	c-0.3,0.1-0.5,0.2-0.7,0.4c-0.2,0.2-0.3,0.4-0.3,0.6l0,3.3c0,0.3,0.1,0.6,0.3,0.8c0.1,0.2,0.4,0.3,0.6,0.3c1.6-0.3,3.2-0.7,4.8-0.9
	c0.3-0.1,0.6-0.2,0.8-0.5c0.2-0.2,0.3-0.4,0.3-0.7L35.7,25.4z M34.2,28.4c0,0.1,0,0.2-0.1,0.3c-0.1,0.1-0.2,0.1-0.3,0.1
	c-0.8,0.2-2,0.4-2.9,0.6c-0.1,0-0.2,0-0.3,0c-0.1-0.1-0.1-0.2-0.1-0.3v-2.1c0-0.1,0-0.2,0.1-0.3c0.1-0.1,0.2-0.1,0.3-0.2
	c0.8-0.2,2-0.4,2.8-0.5c0.1,0,0.2,0,0.3,0.1c0.1,0.1,0.2,0.2,0.2,0.3L34.2,28.4z M28.5,26.9c0-0.2-0.2-0.4-0.3-0.6
	c-0.2-0.2-0.5-0.2-0.8-0.2c-1.9,0.5-3.8,1.2-5.7,1.9c-0.1,0-0.1,0.1-0.1,0.2v4.3l0,1c0,0,1.4-0.5,1.7-0.6c0,0,0,0,0-0.1l0-1.5
	c0,0,0-0.1,0-0.1l4.7-1.5c0.2-0.1,0.3-0.2,0.4-0.3c0.1-0.1,0.2-0.3,0.2-0.5L28.5,26.9z M26.9,28.5c0,0.1-0.2,0.3-0.3,0.3L23.2,30
	c0,0-0.1,0-0.1,0l0-1c0,0,0.1-0.1,0.1-0.1c1.1-0.5,2.3-0.9,3.5-1.2c0.1,0,0.2,0.1,0.2,0.2C26.9,28,27,28.3,26.9,28.5L26.9,28.5z"/>
<path class="st3" d="M23.2,29c0,0-0.1,0.1-0.1,0.1v-0.3c0,0,0.1-0.1,0.1-0.1l0,0c1.1-0.5,2.3-0.8,3.5-1.2c0.1,0,0.2,0.1,0.2,0.2
	l0,0.3c0-0.1-0.1-0.2-0.2-0.2C25.5,28.2,24.3,28.6,23.2,29L23.2,29 M28.5,28.9c0,0.2,0,0.3-0.1,0.4c-0.1,0.1-0.2,0.2-0.4,0.3
	l-4.7,1.4c0,0,0,0.1,0,0.1l0,0.3c0,0,0-0.1,0-0.1l4.7-1.4c0.2-0.1,0.3-0.2,0.4-0.3c0.1-0.1,0.2-0.3,0.1-0.4V28.9L28.5,28.9z
	 M23.2,32.7C23.2,32.8,23.2,32.8,23.2,32.7c-0.3,0.2-1.7,0.7-1.7,0.7v0.2c0,0,0,0,0,0s1.4-0.5,1.7-0.6c0,0,0,0,0-0.1V32.7z M34,26
	C33.9,26,33.8,26,33.7,26c-0.9,0.1-2,0.3-2.8,0.5c-0.1,0-0.3,0.1-0.3,0.2c-0.1,0.1-0.1,0.2-0.1,0.3v0.3l0,0c0-0.1,0-0.2,0.1-0.3
	c0.1-0.1,0.2-0.1,0.3-0.2c0.8-0.2,1.9-0.4,2.8-0.5c0.1,0,0.2,0,0.3,0.1c0.1,0.1,0.2,0.2,0.2,0.3l0,0v-0.3C34.2,26.2,34.1,26.1,34,26
	L34,26z M34.7,29.9c-1.6,0.3-3.2,0.6-4.7,0.9c-0.2,0-0.5-0.1-0.6-0.3c-0.2-0.2-0.3-0.5-0.3-0.7v0V30c0,0.3,0.1,0.5,0.3,0.7
	c0.2,0.2,0.4,0.4,0.6,0.3c1.6-0.3,3.2-0.6,4.7-0.9c0.3-0.1,0.6-0.2,0.8-0.5c0.2-0.2,0.3-0.4,0.3-0.7v-0.3c0,0.3-0.1,0.5-0.3,0.7
	C35.3,29.6,35,29.8,34.7,29.9L34.7,29.9z M41.1,25.1l-3.2,0.3l0,0v0.3l0,0l3.2-0.3c0.1,0,0.2,0.1,0.3,0.2c0,0,0,0,0,0v-0.3
	C41.4,25.2,41.3,25.1,41.1,25.1C41.1,25.1,41.1,25.1,41.1,25.1L41.1,25.1z M42.9,26.4v-0.3c0,0.4-0.2,0.8-0.6,0.9
	c0.1,0.1,0.1,0.1,0.2,0.2C42.8,27,42.9,26.7,42.9,26.4L42.9,26.4z M43.1,29l-1.4,0.1c0-0.3-0.2-0.7-0.3-1c-0.2-0.4-0.5-0.5-0.7-0.5
	L38,27.9v0.3l2.8-0.3c0.2,0,0.5,0.1,0.7,0.5c0.2,0.3,0.3,0.6,0.3,1l1.4-0.1c0,0,0.1,0,0.1,0L43.1,29C43.2,29,43.2,29,43.1,29
	L43.1,29z M37.9,29.4l-1.4,0.2v0.3l0,0l1.4-0.2c0,0,0,0,0,0c0,0,0,0,0,0L37.9,29.4C38,29.4,37.9,29.4,37.9,29.4
	C37.9,29.4,37.9,29.4,37.9,29.4L37.9,29.4z M50.1,25.2c0.1,0,0.2-0.1,0.2-0.2v-0.3c0,0.1-0.1,0.2-0.2,0.2c-1.3,0-3.3-0.1-4.5-0.1
	c-0.1,0-0.1,0-0.1,0.1l0,0.3l0,0c0-0.1,0.1-0.1,0.2-0.1C46.8,25.1,48.8,25.2,50.1,25.2L50.1,25.2z M44.9,27.1c1.3,0,2.5,0,3.8,0.1
	c0.1,0,0.2,0.1,0.2,0.2l0-0.3c0-0.1-0.1-0.2-0.2-0.2c-1.3-0.1-2.5-0.1-3.8-0.1c-0.4,0-0.9-0.3-0.9-0.7v0.3
	C44,26.8,44.5,27.1,44.9,27.1L44.9,27.1z M49.4,28.9c-1.8-0.1-3.7-0.1-5.5,0v0.3c1.8-0.1,3.7-0.1,5.5,0c0.4,0,0.8-0.3,0.9-0.8v-0.3
	C50.2,28.6,49.9,28.9,49.4,28.9L49.4,28.9z M57.5,25.7c-1.5-0.2-3.1-0.4-4.6-0.6c-0.1,0-0.2,0-0.2,0.1v0.3c0-0.1,0.1-0.2,0.2-0.1
	c1.5,0.1,3.1,0.4,4.6,0.6c0,0,0.1,0,0.1-0.1v-0.3C57.6,25.6,57.5,25.7,57.5,25.7L57.5,25.7z M57.4,29.7c-2-0.3-3.7-0.5-5.5-0.6
	c-0.4-0.1-0.7-0.4-0.7-0.8v0.3c0,0.4,0.3,0.7,0.7,0.8c1.8,0.2,3.5,0.3,5.5,0.6c0,0,0.1,0,0.1-0.1L57.4,29.7
	C57.5,29.7,57.4,29.7,57.4,29.7L57.4,29.7z M62.8,29.1c0-0.1,0-0.2,0-0.3c0-0.1-0.1-0.1-0.1-0.1c-1.1-0.2-2.1-0.4-3.2-0.6
	c0,0-0.1,0-0.1,0c0,0.1,0,0.2,0,0.3l0,0c0,0,0,0,0.1,0c1.1,0.2,2.1,0.4,3.2,0.6C62.7,29,62.8,29,62.8,29.1L62.8,29.1z M59.3,30
	c-0.4-0.1-0.9-0.1-1.3-0.2V30c0.4,0.1,0.9,0.1,1.3,0.2c0,0,0.1,0,0.1-0.1L59.3,30C59.4,30,59.3,30,59.3,30L59.3,30z M64.1,31
	c-0.4-0.1-0.8-0.2-1.2-0.3c0,0-0.1-0.1-0.1-0.1v0.3c0,0.1,0,0.1,0.1,0.1c0.4,0.1,0.8,0.2,1.2,0.3c0.1,0,0.1,0,0.1,0l0-0.3
	C64.2,31,64.2,31,64.1,31L64.1,31z M71.5,29.2c-1.3-0.5-3.1-1.1-4.7-1.5c0,0-0.1,0-0.1,0V28c0,0,0,0,0.1,0c1.6,0.4,3.4,1,4.7,1.5
	c0.1,0,0.2,0,0.2-0.1l0-0.2C71.6,29.2,71.6,29.2,71.5,29.2L71.5,29.2z M71.6,31.3c-1.5-0.5-3.2-1.1-4.9-1.6c0,0-0.1,0-0.1,0l0,0.3
	c0,0,0.1,0,0.1,0c1.7,0.5,3.4,1,4.8,1.6c0,0,0,0,0-0.1L71.6,31.3C71.6,31.3,71.6,31.3,71.6,31.3L71.6,31.3z M71.5,33.3
	c-2.1-0.8-4.2-1.5-6.3-2c0,0-0.1-0.1-0.1-0.1v0.3c0,0,0,0.1,0.1,0.1c2.1,0.6,4.2,1.2,6.3,2c0.1,0,0.1,0,0.1-0.1L71.5,33.3
	C71.6,33.3,71.5,33.3,71.5,33.3L71.5,33.3z"/>
<path d="M71.4,28.6c0,0.1,0,0.3,0,0.4h0l-0.3-0.1l-0.2-0.1l0,0c-0.6-0.2-1.1-0.4-1.6-0.6c-0.5-0.2-1-0.3-1.5-0.5h0h0l-0.4-0.1
	l-0.4-0.1l-0.4-0.1v0v0.3V28v0.5l0.2,0.1l0.2,0l0.3,0.1l0.3,0.1c0.6,0.2,1.2,0.4,1.8,0.5c0.6,0.2,1.2,0.4,1.8,0.6l0.1,0l0.3,0.1v0.1
	c0,0.1,0,0.9,0,0.9l0,0l-0.3-0.1l-0.2-0.1c-0.6-0.2-1.2-0.4-1.9-0.6c-0.7-0.2-1.3-0.4-2-0.6l-0.5-0.2l0,0.5l0,0.5v0l0.2,0.1l0.4,0.1
	l0.4,0.1l0.2,0l0.2,0c0.6,0.2,1.1,0.4,1.7,0.5c0.5,0.2,1.1,0.4,1.6,0.5l0,0l0.1,0l0.1,0l0.2,0.1c0,0.3,0,0.6,0,0.9h0L71,32.9l-0.1,0
	l-0.1,0c-1-0.4-1.9-0.7-2.8-0.9s-1.9-0.6-2.7-0.8v0c0-0.4,0-1.2,0-2s0-2.8,0.1-2.9c0.1,0,1.9,0.5,2.8,0.8c0.9,0.3,1.8,0.6,2.7,0.9
	l0,0l0.2,0.1l0.3,0.1l0,0C71.4,28.2,71.4,28.5,71.4,28.6z M64,25.9c-0.1,0-0.3-0.1-0.4-0.1s-0.4-0.1-0.5-0.1v0c0,0,0,0.1,0,0.1v0.1
	V26V26c0,0.1,0,0.1,0,0.2c0,0.1,0,0.1,0,0.2v0.1c0,0.2,0,0.3,0,0.5c0,0.2,0,0.3,0,0.5v0.1l0,0.2h0l-0.2,0l-0.2,0l-0.2,0l-0.2,0
	c-0.4-0.1-0.7-0.2-1.1-0.2c-0.4-0.1-0.8-0.2-1.2-0.2l-0.1,0l-0.1,0L59.6,27l-0.3,0l-0.1,0l0-0.6l0-0.6V25c0,0,0-0.1,0-0.1l0,0
	l-0.2,0l-0.2,0l-0.2,0c-0.1,0-0.2,0-0.3,0v0v0.1V25c0,0.3,0,0.7,0,1.1c0,0.5,0,1,0,1.5c0,0.1,0,0.3,0,0.4c0,0.1,0,0.3,0,0.4
	c0,0.2,0,0.4,0,0.6c0,0.2,0,0.5,0,0.6v0c0.1,0,0.2,0,0.3,0l0.1,0l0.2,0c0.1,0,0.3,0,0.4,0.1h0l0-0.4l0-0.3c0,0,0-0.2,0-0.4
	c0-0.2,0-0.4,0-0.6v-0.1c0-0.1,0-0.2,0-0.2v0c0,0,0.1,0,0.2,0l0,0l0,0c0.2,0,0.6,0.1,1.2,0.2c0.5,0.1,1.2,0.2,1.8,0.4l0.1,0l0.1,0
	l0.2,0l0.2,0h0c0,0.1,0,0.3,0,0.4v0.1v0.1c0,0.1,0,0.2,0,0.3s0,0.2,0,0.3V30v0.1l0,0.1l0,0.2v0l0.3,0.1l0.2,0l0.2,0l0.3,0.1v0l0-0.3
	l0-0.1c0-0.6,0-1.2,0-1.9c0-0.7,0-1.4,0-2.2L64,25.9L64,25.9L64,25.9z M54.3,24.1c-0.8-0.1-1.5-0.2-1.8-0.2c-0.3,0-0.5,0.1-0.7,0.2
	c-0.2,0.1-0.3,0.3-0.4,0.6c0,0.2,0,1.7,0,1.7l0,1.8c0,0.1,0,0.2,0,0.3c0,0.1,0.1,0.1,0.1,0.2c0.1,0.1,0.2,0.2,0.3,0.2
	c0.1,0,0.1,0,0.2,0l0,0l0.1,0l0.1,0c0.7,0.1,1.5,0.1,2.3,0.2c0.8,0.1,1.6,0.2,2.4,0.3l0.4,0.1l0-0.5v-0.4l-0.4-0.1l-0.3,0l0,0h0
	c-0.6-0.1-1.3-0.1-1.9-0.2c-0.7-0.1-1.3-0.2-2-0.2c0,0-0.1,0-0.1-0.1c0,0,0-0.1,0-0.1v-2.6c0-0.1,0-0.2,0.1-0.2
	c0.1-0.1,0.2-0.1,0.3-0.1c0.4,0,4,0.5,4.6,0.6l0-0.4c0-0.1,0-0.2,0-0.4v-0.1C56.7,24.4,55.3,24.3,54.3,24.1z M42.9,27.9
	c0.1,0.3,0.2,0.6,0.2,0.9L42,28.9c-0.1-0.3-0.2-0.6-0.4-0.9c-0.2-0.3-0.5-0.6-0.9-0.5c-0.5,0.1-2.9,0.3-2.9,0.3s0,1.6,0,1.6
	l-0.5,0.1l-0.5,0.1v-2.5v-2.5c0,0,4.7-0.5,5.2-0.5c0.5,0,0.6,0.3,0.7,0.6c0.1,0.6,0.1,1.2,0.1,1.7c-0.1,0.3-0.3,0.6-0.5,0.7
	C42.4,27.2,42.7,27.5,42.9,27.9L42.9,27.9z M41.6,25.3c0-0.1,0-0.2-0.1-0.3c-0.1-0.1-0.2-0.1-0.4-0.1l-3.4,0.3V26v0.8l1.6-0.1
	l1.6-0.1c0.2,0,0.3-0.1,0.4-0.2c0.1-0.1,0.2-0.3,0.2-0.4L41.6,25.3z M35.5,25.3c0,0.2,0,3.1,0,3.4c0,0.4-0.4,0.8-0.8,0.9
	c-0.4,0.1-4.3,0.8-4.6,0.9c-0.3,0.1-0.8-0.4-0.8-0.7s0-3.3,0-3.3c0-0.4,0.4-0.7,0.7-0.8c0.3-0.1,4.4-0.9,4.7-0.9
	C35.1,24.7,35.4,25,35.5,25.3L35.5,25.3z M34.4,26.2c0-0.3-0.1-0.5-0.6-0.5c-0.6,0.1-2.4,0.4-3,0.5c-0.5,0.1-0.7,0.3-0.7,0.7v2.1
	c0,0.3,0.2,0.5,0.5,0.5c0.3-0.1,3-0.6,3.3-0.6c0.3-0.1,0.5-0.3,0.5-0.6C34.4,28.1,34.4,26.4,34.4,26.2L34.4,26.2z M49.6,25.8
	c-0.4,0-0.8,0-1.2,0c-0.4,0-0.9,0-1.3,0c-0.3,0-1.7,0-1.7,0c0,0-0.1,0-0.1,0c0,0-0.1-0.1-0.1-0.2c0-0.1,0-0.1,0-0.2v-0.2
	c0-0.1,0-0.3,0-0.4c0-0.1,0.1-0.1,0.2-0.1c0.1,0,1.9,0,3.1,0h0.3H49c0.3,0,0.7,0,1,0v-0.9c-0.5,0-0.9,0-1.4-0.1h-0.1
	c-0.3,0-0.6,0-0.9,0c-1.2,0-2.6,0-2.7,0c-0.1,0-0.3,0.1-0.4,0.2c-0.1,0.1-0.2,0.2-0.2,0.3l0,1l0,1c0,0.1,0.1,0.2,0.2,0.3
	c0.1,0.1,0.3,0.1,0.4,0.1c0.2,0,0.4,0,0.7,0l0.6,0c0.4,0,0.9,0,1.4,0c0.5,0,0.9,0,1.4,0.1c0.1,0,0.2,0.1,0.2,0.1c0,0.1,0,0.2,0,0.3
	l0,0.1l0,0.1c0,0.1,0,0.2,0,0.3c0,0.1-0.1,0.1-0.3,0.1c0,0-0.5,0-0.6,0s-0.4,0-0.6,0l-0.6,0c-0.2,0-0.4,0-0.7,0c-0.4,0-0.7,0-1.1,0
	c-0.3,0-0.7,0-1,0l0,0.9c0.5,0,1,0,1.4-0.1c0.4,0,0.8,0,1.1,0c0.3,0,0.6,0,0.9,0c0.3,0,0.5,0,0.8,0l0.5,0l0.6,0
	c0.1,0,0.3-0.1,0.4-0.2c0.1-0.1,0.2-0.2,0.2-0.3l0-1l0-1c0-0.1-0.1-0.2-0.2-0.3C49.8,25.9,49.7,25.9,49.6,25.8L49.6,25.8z
	 M28.3,26.9l0,2c0,0,0,0.1,0,0.1c0,0.1-0.1,0.2-0.1,0.2c-0.1,0.1-0.2,0.1-0.3,0.2L23,31l0,1.7c0,0-1.2,0.4-1.3,0.5c0-0.1,0-2,0-2.4
	c0-0.9,0-2.5,0-2.5c0,0,0-0.1,0.1-0.1c0.1,0,1.6-0.6,3.4-1.2c0.6-0.2,1.8-0.6,2.1-0.6c0.2,0,0.4,0,0.6,0.1
	C28.1,26.6,28.2,26.8,28.3,26.9L28.3,26.9z M27.2,28.5c0-0.1,0-0.6,0-0.7c0-0.1-0.1-0.2-0.1-0.2c-0.1-0.1-0.2-0.1-0.3-0.1h-0.1
	c0,0-1.1,0.3-1.7,0.5c-0.6,0.2-2.1,0.8-2.1,0.8s0,1.4,0,1.5l3.8-1.2c0.1,0,0.2-0.1,0.3-0.2C27.1,28.7,27.1,28.6,27.2,28.5L27.2,28.5
	z M43.5,46.1v1.4c0,0.2,0,0.3-0.1,0.4c-0.1,0.1-0.2,0.2-0.4,0.2c-0.1,0-0.3,0-0.4-0.2c-0.1-0.1-0.1-0.3-0.1-0.4v-1.4
	c0-0.1-0.1-0.2-0.2-0.2c-0.1,0-0.2,0.1-0.2,0.2v1.3c0,0.3,0,0.5,0.2,0.8c0.2,0.2,0.4,0.3,0.7,0.3c0.3,0,0.5-0.1,0.7-0.3
	c0.1-0.2,0.2-0.5,0.2-0.8v-1.3c0-0.1-0.1-0.2-0.2-0.2C43.6,46,43.5,46,43.5,46.1L43.5,46.1L43.5,46.1z M45.3,46.3
	c0.1,0,0.2-0.1,0.2-0.2s-0.1-0.2-0.2-0.2h-1c-0.1,0-0.2,0.1-0.2,0.2s0.1,0.2,0.2,0.2l0,0h0.3v2c0,0.1,0.1,0.2,0.2,0.2
	c0.1,0,0.2-0.1,0.2-0.2c0,0,0,0,0,0v-2L45.3,46.3z M47,46.3c0.1,0,0.2-0.1,0.2-0.2s-0.1-0.2-0.2-0.2h-1c-0.1,0-0.2,0.1-0.2,0.2
	s0.1,0.2,0.2,0.2h0.3v2c0,0.1,0.1,0.2,0.2,0.2c0.1,0,0.2-0.1,0.2-0.2c0,0,0,0,0,0v-2L47,46.3z M48.9,47h-0.6c-0.2,0-0.2,0.1-0.2,0.1
	c0,0.1,0.1,0.2,0.2,0.2c0,0,0,0,0,0h0.4v0.1c0,0.3-0.2,0.6-0.5,0.7c-0.2,0-0.4-0.1-0.4-0.3c-0.1-0.2-0.1-0.4-0.1-0.7
	c0-0.2,0.1-0.4,0.2-0.6c0.1-0.2,0.2-0.3,0.4-0.3c0.2,0,0.3,0.1,0.4,0.3c0,0.1,0.1,0.1,0.2,0.1c0.1,0,0.1-0.1,0.1-0.2c0,0,0,0,0,0
	c-0.1-0.3-0.4-0.5-0.7-0.5c-0.3,0-0.5,0.1-0.6,0.4c-0.2,0.3-0.2,0.6-0.2,0.9c0,0.3,0.1,0.6,0.2,0.9c0.1,0.3,0.4,0.4,0.7,0.4
	c0.2,0,0.3,0,0.4-0.1c0.2-0.2,0.4-0.4,0.4-0.7c0-0.1,0-0.3,0-0.4C49.2,47.1,49.1,47,48.9,47L48.9,47z M54.9,46.3
	c0.1,0,0.2-0.1,0.2-0.2s-0.1-0.2-0.2-0.2h-1c-0.1,0-0.2,0.1-0.2,0.2s0.1,0.2,0.2,0.2h0.3v2c0,0.1,0.1,0.2,0.2,0.2
	c0.1,0,0.2-0.1,0.2-0.2c0,0,0,0,0,0v-2L54.9,46.3z M52.8,47.5L52.8,47.5c0.2-0.1,0.3-0.1,0.4-0.2c0.2-0.1,0.2-0.4,0.2-0.6
	c0-0.2-0.1-0.5-0.3-0.6c-0.2-0.1-0.4-0.2-0.6-0.2H52c-0.1,0-0.1,0-0.1,0.1c0,0,0,0.1,0,0.1v2.1c0,0.1,0.1,0.2,0.2,0.2c0,0,0,0,0,0
	c0.1,0,0.2-0.1,0.2-0.2c0,0,0,0,0,0v-0.7h0.3l0.5,0.8c0,0.1,0.1,0.1,0.2,0.1c0.1,0,0.2-0.1,0.2-0.1c0-0.1,0-0.1-0.1-0.2L52.8,47.5z
	 M52.1,47.2v-1h0.4c0.1,0,0.3,0,0.4,0.1c0.1,0.1,0.1,0.2,0.1,0.3c0,0.3-0.3,0.5-0.5,0.5c0,0,0,0,0,0L52.1,47.2z M50.7,46.1
	c0-0.1-0.1-0.2-0.3-0.2c-0.1,0-0.2,0.1-0.3,0.2l-0.7,2.1c0,0.1,0,0.1,0,0.2c0,0,0.1,0.1,0.1,0.1c0.1,0,0.2,0,0.2-0.1l0.1-0.4h1
	l0.1,0.4c0,0.1,0.1,0.1,0.2,0.1c0.1,0,0.1,0,0.2-0.1c0-0.1,0-0.1,0-0.2L50.7,46.1z M50.8,47.7H50l0.4-1.4L50.8,47.7L50.8,47.7z
	 M40.1,47.2c-0.2-0.1-0.5-0.2-0.8-0.2c-0.2,0-0.3-0.2-0.3-0.4c0,0,0,0,0,0c0.1-0.2,0.2-0.3,0.4-0.3c0.2,0,0.3,0.1,0.5,0.2
	c0.1,0.1,0.3,0,0.3-0.1c0-0.1-0.2-0.4-0.7-0.4c-0.2,0-0.4,0-0.5,0.2c-0.2,0.1-0.3,0.3-0.3,0.5c0,0.2,0.1,0.4,0.2,0.6
	c0.1,0.1,0.3,0.2,0.5,0.2c0.2,0,0.4,0.1,0.6,0.3c0,0.1,0,0.2-0.1,0.3c-0.1,0.1-0.3,0.2-0.4,0.1c-0.2,0-0.3-0.1-0.5-0.2
	c-0.1-0.1-0.2-0.1-0.2-0.1c-0.1,0-0.1,0.2-0.1,0.2c0.2,0.3,0.5,0.4,0.8,0.4c0.3,0,0.5-0.1,0.7-0.3c0.1-0.1,0.2-0.3,0.2-0.5
	C40.3,47.5,40.2,47.3,40.1,47.2L40.1,47.2z M41.7,46.3c0.1,0,0.2-0.1,0.2-0.2S41.8,46,41.7,46h-1c-0.1,0-0.2,0.1-0.2,0.2
	s0.1,0.2,0.2,0.2H41v2c0,0.1,0.1,0.2,0.2,0.2c0.1,0,0.2-0.1,0.2-0.2v-2L41.7,46.3z M26.9,36.7c0.3-0.6,0.7-1.2,1.3-1.5
	c0.3-0.2,0.3-0.2,0.3-0.3c0,0,0,0-0.4-0.1c-0.6,0-1.1,0.3-1.5,0.6c-0.5,0.5-0.9,1.1-1.1,1.7c-0.1,0.8-0.1,1.6,0,2.3
	c0,0-1,0.4-1.3,0.6c-0.1-0.3-0.2-0.5-0.4-0.7c-0.3-0.2-0.7-0.3-1.1-0.1c-0.3,0.1-0.5,0.5-0.4,0.8c0,0.2,0.1,0.5,0.3,0.7
	c-0.3,0.1-0.5,0.2-0.7,0.4c-0.2,0.3-0.3,0.6-0.3,0.9c0.1,0.3,0.4,0.5,0.8,0.4c0.4-0.1,0.8-0.3,1.1-0.6c0.1,0.2,0.3,0.3,0.4,0.4
	c0.2,0.1,0.3,0.2,0.5,0.2c0.2,0,0.3,0,0.4-0.1c0.3-0.2,0.4-0.5,0.4-0.8c0-0.4-0.5-0.6-0.4-0.8c2.1-1.2,4.4-2.1,6.8-2.7
	c1.6-0.4,3.3-0.7,4.9-0.8c1.1-0.1,2.1,0,3.1,0.3c0.8,0.2,1.6,0.6,2.2,1.2l0,0c0-0.8-0.5-1.5-1.2-1.8c-0.6-0.3-1.2-0.6-1.9-0.6
	c0.2-0.3,0.3-0.5,0.6-0.7c0.4-0.3,0.8-0.6,1.3-0.7c0.4-0.1,0.9-0.1,1.3-0.1c-0.2-0.4-0.5-0.6-0.9-0.6c-0.5-0.1-1,0-1.5,0.1
	c-0.9,0.4-1.5,1.1-1.9,1.9c-0.9,0-1.8,0-2.6,0c0.1-0.7,0.4-1.4,0.8-2c0.5-0.6,1.1-1,1.8-1.2c0.1,0,0.2-0.1,0.3-0.1
	c-0.1-0.1-0.3-0.3-1.1-0.3c-1,0-1.8,0.5-2.4,1.3c-0.4,0.7-0.7,1.5-0.7,2.3c-1.4,0.3-3,0.7-3,0.7c0-0.6,0.1-1.1,0.4-1.7
	c0.3-0.7,0.8-1.2,1.5-1.6c0,0,0.2-0.2,0.3-0.2c-0.2-0.1-0.4-0.1-0.6-0.1c-0.5,0-0.9,0.1-1.3,0.4c-0.9,0.5-1.4,1.4-1.4,2.4
	c0,0.2,0,1.1,0,1.3c-1.1,0.3-2.2,0.6-3.2,1C26.5,38.1,26.6,37.4,26.9,36.7z M38.7,42.7c0,0,0.4-0.1,0.5-0.1
	c-0.1-0.1-0.2-0.1-0.2-0.2c-0.3-0.2-0.7-0.3-1-0.2c-0.4,0-0.7,0.1-1.1,0.2c-0.7,0.4-1.2,1-1.4,1.8c0,0-0.8,0-1.2,0l-1.2,0.1
	c0-0.2,0-0.4,0.1-0.6c0.1-0.4,0.3-0.8,0.6-1.1c0.5-0.5,1.1-0.9,1.8-1c0.1,0,0.1,0,0.2,0c-0.2-0.2-0.5-0.2-0.8-0.2
	c-1.6,0-2.8,1.2-3,2.8c0,0.1-0.1,0.3-0.1,0.3s-0.6,0.1-0.9,0.2c-0.5,0.1-1,0.2-1.4,0.4c0-0.6,0.2-1.1,0.4-1.7c0.2-0.5,0.6-0.9,1-1.3
	c0.1-0.1,0.2-0.2,0.3-0.3c-0.1,0-0.3-0.1-0.5-0.1c-0.9,0-1.7,0.6-2,1.4c-0.3,0.7-0.4,1.5-0.4,2.3c-0.4,0.1-1.5,0.5-1.9,0.7
	c-0.1-0.6-0.1-1.1,0-1.7c0.1-0.5,0.3-0.9,0.7-1.3c0.1-0.1,0.2-0.2,0.3-0.3c0,0-0.1-0.1-0.5,0c-0.7,0.2-1.3,0.8-1.5,1.5
	c-0.2,0.8-0.2,1.5-0.2,2.3c-0.3,0.1-1.1,0.5-1.2,0.6c0-0.2-0.1-0.4-0.2-0.6c-0.1-0.2-0.4-0.3-0.6-0.3c-0.1,0-0.3,0-0.4,0.1
	c-0.1,0.1-0.2,0.2-0.3,0.3c-0.1,0.2,0,0.4,0,0.6c0.1,0.1,0.1,0.2,0.2,0.3c0.1,0.1,0.2,0.3,0.2,0.3c-0.3,0.1-0.5,0.2-0.7,0.4
	c-0.3,0.2-0.4,0.7-0.3,1c0.1,0.2,0.4,0.4,0.6,0.4c0.4,0,0.8-0.2,1.1-0.5c0,0,0.3,0.4,0.3,0.5c0.1,0.2,0.4,0.3,0.6,0.3
	c0.1,0,0.3,0,0.4-0.1c0.3-0.2,0.4-0.4,0.4-0.7c0-0.3-0.1-0.5-0.3-0.7l-0.1-0.1l0.6-0.3c1-0.5,2-1,3-1.4c1.7-0.6,3.4-1,5.1-1.2
	c0.4-0.1,0.7-0.1,1.1-0.1c0.4,0,0.9,0.1,1.3,0.3v-1.8h0.7C37.4,43.3,38,42.9,38.7,42.7z M36.2,49.4v2.6c-0.3,0-0.6-0.1-0.8-0.1
	c-2.4,0.1-4.7,0.7-6.8,1.7c-1,0.4-1.9,0.9-2.8,1.5c0.3,0.2,0.6,0.4,0.7,0.8c0.1,0.5-0.2,1-0.9,1c-0.6,0-0.8-0.5-1-0.7
	c-0.1,0-0.6,0.5-0.8,0.6c-0.2,0.1-0.3,0.1-0.5,0.1c-0.2,0-0.5-0.1-0.6-0.3c-0.1-0.2-0.2-0.4-0.1-0.6c0.1-0.3,0.2-0.5,0.5-0.6
	c0.2-0.1,0.4-0.2,0.5-0.3c0-0.2-0.4-0.5-0.5-0.7c-0.1-0.4,0-0.7,0.3-1c0.3-0.2,0.6-0.2,0.9,0c0.3,0.2,0.5,0.8,0.6,0.9
	c0.2-0.1,0.8-0.5,1.1-0.8c-0.4-0.7-0.6-1.5-0.6-2.3c0.2-1.2,1.4-2,2-1.8c-0.5,0.5-0.8,1.2-0.8,1.9c-0.1,0.5,0,1.1,0.3,1.6
	c0,0,1.3-0.5,1.8-0.7c-0.3-0.9-0.4-1.8-0.1-2.7c0.4-0.8,1.3-1.3,2.2-1.3c-1.2,0.8-1.7,2.2-1.3,3.6c0.3-0.1,1.8-0.6,2-0.6
	c-0.1-0.9,0.2-1.8,0.8-2.6c0.4-0.6,1.1-1,1.9-1.1c0.2,0,0.3,0,0.5,0.1c0,0.1,0,0.1-0.1,0.1L34.5,48c-0.6,0.5-1.2,1.1-1.6,1.8
	c-0.2,0.4-0.3,0.9-0.3,1.3l0,0.1c0,0,0.8-0.1,1.4-0.2c0.6-0.1,1.2-0.1,1.2-0.1c0.1-0.3,0.2-0.5,0.4-0.8
	C35.7,49.9,35.9,49.6,36.2,49.4L36.2,49.4z M61.8,60.8c-0.5,0.2-0.9,0.5-1.2,0.9c-0.5,0.7-0.7,1.6-0.4,1.6c0.2,0,0.5,0,0.6,0
	c0.3,0,0.7,0,1,0c0.1,0,0.1,0,0.2-0.1c0-0.1,0.1-0.1,0.1-0.2c0.3-0.8,0.8-1.5,1.5-2c0.3-0.2,0.6-0.3,0.9-0.3c0.5,0,1,0.2,1.3,0.6
	c0.1,0.2-0.6-0.2-1.6,0.9c-0.3,0.3-0.6,0.7-0.8,1.2c0,0,0,0.1,0.1,0.1c0.5,0.1,1.3,0.3,1.8,0.5c0.1,0,0.2,0,0.3-0.1
	c0.2-0.4,0.5-0.7,0.9-0.9c0.4-0.2,0.9-0.4,1.3-0.4l0.1,0c1,0.1,1.1,0.6,1.1,0.7c0.1,0.1-0.2,0.1-0.3,0.1c-0.7,0.2-1.3,0.5-1.7,1.1
	c-0.1,0.1,0.2,0.3,0.2,0.3c0.7,0.4,1.2,1.2,1,2.1c0,0.1,0,0.2-0.1,0.2c-0.1-0.1-0.3-0.2-0.4-0.3c-0.4-0.4-0.9-0.7-1.4-1.1
	c-0.8-0.5-1.7-0.9-2.6-1c-0.7-0.1-1.4-0.2-2.1-0.2c-1.6,0-3.2,0.3-4.7,0.7c-0.3,0.1-1.3,0.4-2.2,0.6L54,66.2l0.4-0.3
	c0.4-0.4,0.8-0.8,1.1-1.2l0.2-0.3l0.4-0.1l1.8-0.4c0.2-0.1,0.3-0.2,0.4-0.4c0.1-0.7,0.4-1.3,0.9-1.9c0.4-0.6,1-1,1.7-1.1
	C61.6,60.5,61.9,60.7,61.8,60.8L61.8,60.8z M48.9,74.2c-0.3-0.2-0.5-0.6-0.5-0.9c0-0.4,0.2-0.7,0.5-0.8c0.4-0.1,0.8-0.1,1.1,0.1
	c0.4,0.3,0.4,0.6,0.6,1c0,0,0,0,0.1,0c0.3-0.2,1-0.4,1.4-0.7l0.2-0.1c0,0,0.1,0,0.1-0.2c-0.1-0.4-0.2-0.9-0.2-1.4
	c0-0.5,0.2-1,0.5-1.4c0.6-1.1,1.8-1,1.7-0.9c-0.4,0.5-0.7,1.1-0.8,1.7c-0.1,0.4-0.1,0.7,0,1.1c0,0.2,0,0.4,0.1,0.4s0.5-0.1,0.7-0.2
	c0.3-0.1,0.7-0.2,1-0.2c0.2,0,0.1-0.1,0.1-0.2c0-1,0.3-2,0.8-2.8c0.4-0.6,1.1-0.9,1.8-1c0.3,0,0.6,0.1,0.5,0.2
	c-0.2,0.1-0.3,0.2-0.4,0.3c-0.4,0.3-0.7,0.7-1,1.1c-0.3,0.6-0.4,1.3-0.3,2c0.5,0,1.1-0.1,1.6-0.2c0.1,0,0.1-0.1,0.2-0.2
	c0.2-0.6,0.4-1.8,1.1-2.3c0.3-0.3,0.7-0.4,1.1-0.4c0.3,0,1.1,0.2,0.9,0.3c-0.5,0.2-0.9,0.5-1.3,1c-0.3,0.3-0.4,0.7-0.5,1.2
	c-0.1,0.2,0.2,0.3,0.2,0.3c0.4,0,0.9,0.1,1.3,0.2c0.1,0,0.2-0.1,0.3-0.2c0.2-0.3,0.4-0.6,0.7-0.8c0.3-0.3,0.7-0.4,1-0.5
	c0.8,0,1.2,0.6,1.1,0.6c-0.7,0.2-1.3,0.6-1.8,1.2c0,0-0.1,0.1,0,0.2c0.7,0.6,1.2,1.5,1.4,2.4c0,0.1,0,0.4-0.1,0.5
	c-0.5-0.6-1.1-1.2-1.8-1.6c-0.9-0.5-2-0.7-3-0.7c-1.3,0-2.6,0.2-3.8,0.6c-1.4,0.4-2.7,1-3.9,1.7c0.2,0.1,0.3,0.3,0.4,0.6
	c0.2,0.4,0.1,0.9-0.3,1.1c-0.2,0.2-0.5,0.2-0.7,0.1c-0.6-0.1-0.8-0.7-0.8-0.9c-0.1,0.2-0.2,0.4-0.4,0.5c-0.4,0.3-0.9,0.2-1.2-0.1
	c0,0,0-0.1-0.1-0.1c-0.3-0.4-0.2-0.9,0.1-1.1C48.9,74.3,48.9,74.2,48.9,74.2L48.9,74.2z M51,81.6c-0.1-0.2-0.2-0.4-0.3-0.6
	c-0.2-0.4-0.2-0.9-0.2-1.4c0.1-0.6,0.6-1,1.2-1.1c-0.3,0.3-0.4,0.7-0.4,1.2c0,0.4,0.2,0.8,0.4,1.2c0,0.1,0.1,0,0.1,0
	c0.3-0.2,0.7-0.3,1-0.5c0,0,0,0,0-0.1c-0.2-0.8-0.1-1.6,0.3-2.3c0.3-0.6,0.9-0.9,1.5-1l0,0c0,0,0.4,0,0.4,0.2
	c-0.4,0.3-0.8,0.7-1,1.2c-0.2,0.5-0.2,1-0.1,1.5c0,0,0,0,0.1,0c0.4-0.1,0.8-0.2,1.2-0.3c0,0,0.1,0,0.1-0.1c0.1-0.7,0.5-1.4,1.1-1.9
	c0.4-0.3,0.9-0.6,1.5-0.6c0.7,0,0.8,0.2,0.9,0.3c0.1,0.1-0.1,0-0.5,0.1c-0.4,0.2-0.8,0.5-1,0.8c-0.3,0.3-0.4,0.7-0.5,1.1
	c0,0,0,0.1,0,0.1c0.4,0.1,0.8,0.2,1.2,0.3c0,0,0,0,0.1,0c0.2-0.4,0.5-0.8,0.9-1.1c0.3-0.3,0.8-0.5,1.2-0.5c0.3,0,0.5,0.1,0.8,0.2
	c0,0,0.3,0.2,0.2,0.2c-0.5,0.1-0.9,0.4-1.2,0.8c-0.5,0.6-0.5,0.7-0.5,0.8c0,0.1,0,0.2,0.1,0.3c0.7,0.5,0.8,0.9,0.9,1.1
	c0,0.3-0.1,0.7-0.4,0.4c-0.3-0.4-0.7-0.7-1.2-0.9c-0.7-0.3-1.4-0.4-2.2-0.4c-0.7,0-1.4,0.1-2,0.3c-0.9,0.3-1.7,0.7-2.4,1.2
	c-0.1,0.1-0.2,0.2-0.3,0.2c-0.2,0.2-0.4,0.4-0.7,0.5c-0.1,0.1,0.1,0.1,0.1,0.2c0.9,0.4,0.9,0.9,0.7,1.2c-0.2,0.2-0.5,0.2-0.7,0.1
	c-0.6-0.4-0.5-0.8-0.8-0.7c-0.2,0.1-0.4,0.5-0.5,0.7c-0.2,0.3-0.6,0.3-0.9,0.1c-0.3-0.2-0.4-0.7-0.1-1c0.2-0.2,0.3-0.3,0.5-0.4
	c0,0-0.5-0.3-0.6-0.4c-0.3-0.3-0.3-0.7,0-1c0,0,0,0,0,0c0.3-0.3,0.8-0.2,1.1,0.2c0,0,0,0,0,0c0,0,0.3,0.4,0.3,0.4c0,0,0.1,0,0.1,0
	C50.3,82.2,51,81.7,51,81.6C51,81.6,51,81.6,51,81.6L51,81.6z M55,57.5c-0.1,0-0.2,0-0.3,0c-0.1,0-0.2-0.1-0.2-0.2
	c-0.1-0.1-0.1-0.2-0.1-0.2c0-0.1,0.1-0.1,0.1-0.1c0.1-0.1,0.3-0.2,0.4-0.4c0.1-0.1,0.1-0.3,0.1-0.5c0,0-0.1,0-0.1,0
	c-0.1,0.1-0.2,0.2-0.3,0.3c-0.1,0.1-0.2,0.1-0.4,0.1c-0.1,0-0.2,0-0.2-0.1c-0.1-0.1-0.1-0.2-0.1-0.2c0-0.1,0.1-0.1,0.2-0.1
	c0.2,0,0.3-0.1,0.5-0.1c0.1-0.1,0.2-0.1,0.2-0.2c0-0.1,0-0.2,0-0.2c0,0,0-0.1,0,0c-0.1,0-0.2,0.1-0.2,0.1c-0.1,0.1-0.3,0-0.4,0
	c-0.1-0.1-0.3-0.2-0.3-0.4c0,0,0-0.1,0-0.1c0.1,0,0.3-0.2,0.4-0.4c0,0,0-0.1,0.1-0.1c0-0.1,0.1-0.1,0.1-0.1c0-0.1,0-0.2,0-0.3
	c0-0.1-0.1-0.2-0.1-0.2c0,0-0.1,0-0.1,0C54,53.9,54,54,54,54.1c-0.1,0.1-0.2,0.2-0.3,0.3c-0.1,0-0.1,0.1-0.2,0.1
	c-0.1-0.1-0.2-0.2-0.2-0.3c0-0.1,0-0.3,0.1-0.4c0.1-0.3,0.3-0.5,0.5-0.7c0.1-0.2,0.3-0.3,0.4-0.5c0.1-0.1,0.1-0.4,0-0.4
	S54,52.4,54,52.5c-0.4,0.1-0.7,0.3-1,0.6c-0.1,0.2-0.3,0.4-0.3,0.7c0,0.1,0,0.3-0.1,0.4c0,0-0.1,0.1-0.2,0.1
	c-0.1-0.1-0.2-0.3-0.3-0.4c0-0.1,0-0.2,0-0.3c0,0,0-0.1,0-0.1c-0.1,0.1-0.3,0.2-0.3,0.4c-0.1,0.2,0,0.4,0.1,0.6
	c0.2,0.3,0.4,0.6,0.6,0.9c0.2,0.3,0.4,0.5,0.5,0.8c0.1,0.2,0.2,0.5,0.2,0.7c-0.1,0.3-0.2,0.5-0.4,0.7c0,0-0.1,0-0.1,0
	c-0.2-0.2-0.4-0.4-0.6-0.5c-0.3-0.2-0.6-0.3-0.9-0.3c-0.4,0-0.8,0-1.2,0c-0.4,0-0.8,0.1-1.2,0.1c-0.3,0-0.7,0-1-0.1
	c-0.2-0.1-0.4-0.3-0.6-0.5c-0.1-0.2-0.2-0.5-0.1-0.7c0-0.2,0.1-0.4,0.2-0.6c0.1-0.2,0.2-0.3,0.4-0.4c0.2-0.1,0.4-0.1,0.6-0.1
	c0.1,0,0.2,0.1,0.3,0.2c0.1,0.1,0.2,0.1,0.2,0.2c0,0,0.1,0,0.1,0c0-0.3,0-0.5-0.1-0.8c-0.1-0.2-0.2-0.4-0.4-0.6c0,0,0.1,0,0.2,0
	c0.2,0,0.4,0.1,0.6,0.2c0.1,0.1,0.2,0.2,0.3,0.3c0,0,0,0,0,0c0-0.3-0.1-0.7-0.3-0.9c-0.1-0.1-0.2-0.3-0.4-0.3
	c-0.1,0,0.1-0.1,0.1-0.1c0.2,0,0.3,0,0.5,0.1c0.1,0,0.1,0.1,0.2,0.1c0,0,0.1,0.1,0.1,0.1c0,0,0.1,0,0-0.1c0-0.1-0.1-0.2-0.1-0.3
	c-0.3-0.3-0.5-0.5-0.8-0.7c0,0-0.1,0-0.1-0.1c-0.1-0.1-0.1-0.2-0.2-0.4c0,0-0.1-0.1-0.1-0.2c0-0.1,0-0.1,0-0.2
	c0.1-0.2,0.2-0.2,0.3-0.3c0.1,0,0.3-0.1,0.4-0.1c0,0,0.1,0,0.1,0c0,0,0-0.1,0-0.1c-0.2-0.1-0.4-0.2-0.6-0.2c-0.3,0-0.5,0-0.8,0.1
	c-0.2,0.1-0.4,0.2-0.6,0.2c-0.1,0-0.3,0-0.4-0.1c-0.1,0-0.2-0.1-0.2-0.2c0-0.2,0-0.3,0.1-0.5c0.1-0.1,0.2-0.2,0.3-0.2
	c0.1,0,0.1-0.1,0.1-0.1c0-0.1-0.1,0-0.2,0c-0.2,0.1-0.5,0.1-0.7,0.3c-0.2,0.1-0.3,0.3-0.4,0.5c0,0-0.1,0.1-0.1,0.1c0,0-0.1,0-0.1,0
	c-0.2,0.1-0.3,0.2-0.5,0.2c-0.2,0.1-0.3,0.2-0.5,0.3c-0.1,0-0.3,0.1-0.4,0.1h0c-0.3,0-0.6,0-0.7,0.3c0,0.1,0,0.1,0.1,0.2
	c0,0,0.1,0.1,0.2,0.1l0.2,0.1c0,0,0.1,0,0.1,0.1l0,0l0,0v0c0,0,0,0,0,0c0,0-0.1,0.1-0.1,0.1c-0.1,0-0.3,0-0.4-0.1l0,0
	c-0.1,0-0.1,0-0.2,0c-0.3,0.2-0.6,0.5-0.9,0.7c0,0-0.1,0-0.1,0.1c0,0,0,0,0,0.1c0,0,0,0,0,0.1c0,0.1-0.1,0.1-0.1,0.1
	c-0.1,0-0.1,0.1-0.1,0.1c0,0.1,0,0.1,0,0.2c0,0.1,0.1,0.2,0.2,0.2c0,0,0,0,0.1,0c0.1,0,0.2-0.1,0.2-0.1c0,0,0.1,0,0.1,0c0,0,0,0,0,0
	l0,0v0c0,0,0,0,0,0.1c0,0.1-0.1,0.1-0.1,0.1c0,0.1-0.1,0.1,0,0.2c0.1,0.1,0.3,0.1,0.4,0c0.1-0.1,0.1-0.1,0.1-0.2
	c0-0.1,0.1-0.1,0.2-0.2c0.1-0.1,0.3-0.1,0.4-0.1h0c0.1,0,0.2,0,0.3,0.1c0,0,0,0,0.1,0.1l0,0v0c0,0,0,0,0,0v0c0,0.1-0.1,0.2-0.1,0.3
	c0,0.1,0,0.1-0.1,0.2c0,0.1-0.1,0.2-0.1,0.2c0,0.1,0,0.1-0.1,0.1c-0.1,0.1-0.3,0.2-0.4,0.3c-0.2,0.2-0.4,0.5-0.6,0.7
	c-0.1,0.1-0.1,0.2-0.1,0.3v0c0,0.2-0.1,0.5-0.4,0.4c-0.3-0.1-0.5-0.3-0.8-0.5c-0.1-0.1-0.2-0.2-0.2-0.2c-0.2-0.3-0.5,0-0.7,0.2
	c-0.2,0.4-0.5,0.8-0.8,1.1c0,0.1-0.1,0.1-0.1,0.2c0,0.1-0.1,0.2-0.2,0.3c-0.1,0.1-0.1,0.2-0.1,0.4c0,0.2-0.1,0.5-0.2,0.7
	c-0.1,0.1-0.2,0.3-0.2,0.4c0,0.1,0,0.3,0,0.4c0,0.1,0,0.2,0.2,0.2c0,0,0.1,0,0.1,0c0.2-0.1,0.4-0.2,0.6-0.3c0,0,0,0,0.1-0.1
	c0.1-0.1,0.1-0.1,0-0.2c0,0,0,0,0,0c0,0,0,0,0,0c0,0-0.1-0.1-0.1-0.1c0,0,0,0,0,0c0,0,0-0.1,0-0.1c0-0.1,0-0.1,0-0.2
	c0-0.1,0-0.1,0.1-0.2c0.1-0.1,0.2-0.1,0.3-0.2c0.1-0.1,0.2-0.3,0.1-0.4c0,0,0-0.1,0-0.1c0,0,0,0,0,0c0-0.1,0-0.1,0.1-0.2
	c0.1-0.1,0.1-0.2,0.2-0.3c0.1-0.1,0.2-0.2,0.4-0.3c0.2,0,0.4,0,0.6,0.2c0.2,0.2,0.3,0.4,0.3,0.7c0.1,0.2,0.1,0.4,0.3,0.6
	c0.1,0.1,0.2,0.2,0.4,0.1c0,0,0,0,0.1,0l0,0c0,0,0,0,0,0c0.1,0,0.1,0,0.2,0.1c0.1,0.1,0.2,0.2,0.2,0.3c0.1,0.1,0,0.1-0.1,0.1
	c-0.1,0-0.1,0-0.2,0c-0.1,0-0.1,0-0.2,0C41.9,57.9,41.4,58,41,58c0,0-0.1,0-0.1,0c-0.1,0-0.1,0-0.1,0.1c0,0,0,0,0,0c0,0,0,0.1,0,0.1
	c0,0.1,0,0.2,0,0.3c0.2,0.6,0.2,1.2,0.1,1.9c0,0.2,0,0.5,0.1,0.6c0.1,0.1,0.1,0.1,0.2,0.1c0,0,0.1,0,0.1,0c0.1,0.1,0.1,0.1,0.1,0.2
	c0,0.1,0.1,0.2,0.1,0.3c0.1,0.1,0.2,0.3,0.4,0.3c0,0,0,0,0.1,0c0.1,0,0.2,0,0.2-0.1c0,0,0,0,0,0c0.1-0.2,0.1-0.4,0.1-0.6
	c0-0.1-0.1-0.2-0.2-0.2c0,0,0,0,0,0c0,0-0.1,0-0.1,0l0,0c0,0,0,0-0.1,0h0c0,0,0,0,0,0c0,0,0,0,0,0c0,0,0,0,0,0
	c-0.1,0-0.1-0.1-0.1-0.2c-0.1-0.1-0.1-0.3,0-0.4c0,0,0-0.1,0-0.1c0-0.1,0-0.1,0-0.2c0-0.1,0-0.1,0-0.2c0-0.1-0.1-0.1-0.1-0.2l0,0
	c0,0-0.1,0-0.1-0.1c0,0,0,0,0,0c0,0,0-0.1,0-0.1c0-0.3,0.1-0.6,0-0.9c0-0.1,0-0.2,0.1-0.3c0.2-0.2,0.5,0,0.8,0
	c0.3,0.1,0.6,0.2,0.9,0.2h0c0.5,0,0.9-0.1,1.3-0.4c0,0,0,0,0.1,0c0.2,0.1,0.3,0.2,0.4,0.3c0.3,0.2,0.7,0.4,1.1,0.5
	c0.5,0.1,1.1,0,1.6,0c0.1,0,0.3,0,0.4,0.1c0,0,0.1,0,0,0.1c0,0.2-0.1,0.4-0.1,0.6c0,0.1,0.1,0.2,0.1,0.3c0,0.1,0.1,0.2,0.1,0.3
	l0.1,0.1c0.3,0.4,0.3,0.9,0,1.3c-0.2,0.2-0.4,0.4-0.7,0.5c-0.2,0.2-0.5,0.3-0.8,0.3c-0.2,0-0.4,0.1-0.5,0.2
	c-0.2,0.2-0.3,0.3-0.5,0.4c-0.1,0-0.1,0.1-0.2,0.2c-0.1,0.2-0.2,0.5-0.2,0.7c0,0.1,0.1,0.2,0.2,0.2c0.2,0,0.4-0.1,0.6-0.2
	c0.1,0,0.2-0.1,0.1-0.2c0,0,0,0,0,0l-0.1-0.2c0,0,0,0,0-0.1c0,0,0,0,0,0v0c0,0,0,0,0-0.1c0,0,0.1-0.1,0.1-0.1c0.1,0,0.1-0.1,0.2,0
	c0,0,0.1,0,0.1,0c0.2,0.1,0.5,0,0.6-0.2c0,0,0-0.1,0-0.1c0-0.1,0.1-0.1,0.2-0.2c0.5-0.3,1.1-0.6,1.6-0.8c0.1,0,0.1,0,0.1-0.1
	c0-0.1,0-0.1,0-0.2c0-0.2,0-0.4,0-0.6c0-0.1,0.1-0.4,0.2-0.4c0.1,0,0.1,0.1,0.2,0.1c0.2,0.2,0.4,0.4,0.7,0.5c0.1,0,0.2,0.1,0.2,0.1
	c0.2,0.1,0.4,0.3,0.4,0.5c0,0.1,0,0.3-0.1,0.4c-0.2,0.3-0.4,0.5-0.6,0.8c-0.1,0.1-0.2,0.3-0.3,0.4c-0.2,0.1-0.4,0.3-0.6,0.5
	c-0.2,0.1-0.3,0.2-0.4,0.4c-0.1,0.3-0.2,0.6-0.3,0.9c0,0.2,0.1,0.2,0.2,0.2c0.2-0.1,0.4-0.1,0.6-0.3c0,0,0.1,0,0.1-0.1
	c0,0,0-0.1,0-0.1c0-0.1,0-0.1-0.1-0.2c-0.1-0.1-0.1-0.2,0-0.3c0,0,0.1-0.1,0.1-0.1c0.2,0,0.3-0.1,0.5-0.1c0.2,0,0.4-0.1,0.6-0.3
	c0,0,0.1-0.1,0.1-0.1l0,0v0l0,0c0.2-0.7,0.6-1.2,1.2-1.5c0.1,0,0.1-0.1,0.1-0.2c0-0.1,0-0.2,0-0.2l-0.4-0.7
	c-0.1-0.2-0.2-0.4-0.2-0.6c0-0.2,0.1-0.5,0.2-0.7c0-0.1,0.1-0.1,0.1-0.2c0.1-0.2,0.2-0.2,0.3-0.4c0.1-0.2,0.2-0.3,0.3-0.5
	c0.1-0.2,0.2-0.4,0.2-0.7c0.1-0.2,0-0.4,0-0.6c0-0.1,0-0.1,0.1-0.2c0.1-0.1,0.2-0.2,0.3-0.2c0.1,0,0.3,0,0.4,0
	c0.2,0.1,0.4,0.2,0.6,0.2c0.1,0,0.3,0,0.4,0C54.8,57.8,54.9,57.7,55,57.5C55,57.6,55,57.5,55,57.5L55,57.5z M46.8,53.8
	c0,0.2-0.1,0.3-0.2,0.4c-0.1,0-0.2,0.1-0.2,0.1c-0.1,0-0.1-0.1-0.1-0.3c0-0.1,0-0.2,0-0.2c0-0.1,0-0.2,0-0.3c0-0.1,0-0.1,0-0.2
	s0-0.2,0-0.2c0-0.2,0-0.3,0-0.5c0-0.2-0.1-0.4-0.1-0.6c0-0.1-0.1-0.2-0.1-0.4c0-0.1-0.1-0.1-0.1-0.2c0-0.1-0.1-0.1-0.1-0.1
	c-0.1-0.1-0.1-0.1-0.2-0.1c0,0,0-0.1,0-0.1c0.2-0.1,0.5-0.1,0.7,0.1c0.3,0.3,0.5,0.6,0.5,1.1C46.9,52.6,46.9,53.2,46.8,53.8
	L46.8,53.8z M22.1,65.3h16.5c-1.5-1.7-2.4-3.8-2.4-6.1V59H21.1C21.2,61.1,21.5,63.2,22.1,65.3L22.1,65.3z M46,73.3H25.5
	c0.5,1,1.1,2,1.8,2.9c0.8,1.2,1.7,2.4,2.6,3.4H46L46,73.3z M72.6,44.8H57.4V46v2.7v1.6h15.1C72.5,48.5,72.5,46.7,72.6,44.8
	L72.6,44.8z M72.7,35.3C72.7,35.3,72.7,35.3,72.7,35.3c-2.8-1.1-5.5-2-8.4-2.7c-3.9-1-7.9-1.6-11.9-1.9c-1.9-0.2-3.6-0.2-5.5-0.3
	v6.2h25.7C72.7,36.2,72.7,35.8,72.7,35.3L72.7,35.3z M56.4,44.6l-19.4,0c0,0,0,0,0,0.1L37,59c0,2.6,1.2,5.1,3.2,6.7
	c1.8,1.6,4.2,2.5,6.6,2.5c1.8,0,3.5-0.5,5.1-1.4c1.9-1.1,3.4-2.9,4.2-5c0.3-0.7,0.4-1.5,0.4-2.2L56.4,44.6
	C56.5,44.6,56.5,44.6,56.4,44.6z M56,59.4c0,0.7-0.1,1.5-0.4,2.1c-0.7,2-2.1,3.7-4,4.8c-1.5,0.9-3.1,1.4-4.8,1.4
	c-2.3,0-4.5-0.9-6.3-2.4c-1.9-1.6-3-4-3.1-6.5l0-13.8c0,0,0-0.1,0-0.1L56,45c0,0,0,0,0,0c0,0,0,0,0,0L56,59.4z M50.4,68.3
	c-0.6,0.2-1.3,0.4-2,0.5l0,0c0,0.1,0,0.1,0.1,0.2c0.1,0.2,0.2,0.3,0.4,0.2c0.2,0,0.4-0.1,0.6-0.5c0,0,0.1-0.1,0.1,0
	c0.2,0.3,0.6,0.5,0.8,0.4c0.2-0.1,0.3-0.4,0.2-0.6c0,0,0,0,0,0L50.4,68.3z"/>
</svg>
