<?xml version="1.0" encoding="utf-8"?>
<!-- Generator: Adobe Illustrator 24.3.0, SVG Export Plug-In . SVG Version: 6.00 Build 0)  -->
<svg version="1.1" xmlns="http://www.w3.org/2000/svg" xmlns:xlink="http://www.w3.org/1999/xlink" x="0px" y="0px"
	 viewBox="0 0 1920 1080" style="enable-background:new 0 0 1920 1080;" xml:space="preserve">
<style type="text/css">
	.st0{opacity:0.7;fill:#FFFFFF;}
	.st1{fill:#004890;}
</style>
<g id="Слой_2">
</g>
<g id="Слой_1">
	<g>
		<path class="st0" d="M1779.2,494.2c-10-50.4-34.1-95.9-69.2-136.3c-48.2-55.6-107.7-99.3-175.4-133.7
			c-53.4-27.1-108.7-50.5-167.3-67.3c-65.8-18.9-132.2-35.4-200.7-43.6c-44-5.3-88.3-8.7-132.5-11.8c-78.4-5.5-156.7-2.3-234.6,6.1
			c-45.9,4.9-91.8,11.5-136.9,20.7c-42.2,8.6-83.9,20-124.8,32.9c-85.5,26.8-165.6,63.3-236.9,114.5c-60,43.1-110.4,92.9-140.1,158
			c-18.1,39.7-27.5,80.4-24.3,123.6c3,40.8,16.6,78.5,37.1,114.2c20.6,36,47.8,67.8,80.3,95.9c33.6,29.1,69.7,55.4,109.4,77.1
			c59.1,32.2,121.1,58.8,186.9,78.3c69.9,20.7,140.9,36.3,213.5,45.9c65,8.6,130.4,12,220,12.5c26.3-1.4,76.7-2.1,126.5-7.5
			c50.2-5.4,99.9-14.7,149.5-23.8c70.2-12.8,137.8-33.4,202.9-60.6c77.9-32.5,149.7-73,210.3-129.2c49.3-45.7,85.1-97.8,103-159.6
			C1786.2,565.5,1786.2,529.4,1779.2,494.2z M1733.5,579.6c-10.3,49.1-35.6,91.1-70.8,128.7c-40.2,43-88.1,77.2-141.4,106
			c-43.4,23.5-88.3,43.5-135.5,59.2c-57.9,19.2-116.9,35.1-177.8,44.6c-38,5.9-76.1,13.3-114.5,16c-70.4,5-140.9,10.9-211.6,3.2
			c-41.6-4.5-83.7-5.4-124.9-11.7c-47.3-7.3-94.4-17.2-140.6-28.9c-41.3-10.4-82-23.3-121.8-37.8c-73.5-26.8-140.7-63.9-199-112.8
			c-51.3-43.1-92.2-93.1-108-156.3c-14.5-58.2-3.6-113.2,28.7-165.5c41.9-68.1,105.3-115.4,176.3-155.9
			c44.3-25.3,91.7-44.7,140.4-61.4c51.2-17.5,103.4-32.3,157.4-40.7c45.2-7,90.4-14.7,135.8-20.4c27.3-3.4,55.2-3.9,82.8-5
			c16.7-0.7,33.5-0.1,50.2-0.1c0.1-1.3,0.2-2.6,0.3-3.9c60.9,5,122.2,7.5,182.6,15.6c58.2,7.8,116.3,18.9,173.1,33
			c69.6,17.3,135.9,42.9,198.6,76.1c46.9,24.9,90,53.8,128.1,88.7c37.9,34.7,67.4,74.9,84,121.5
			C1738.4,506.7,1741.2,542.9,1733.5,579.6z"/>
		<path class="st1" d="M1726,471.8c-16.5-46.6-46.1-86.8-84-121.5c-38.1-34.9-81.3-63.8-128.1-88.7
			c-62.7-33.2-129.1-58.8-198.6-76.1c-56.8-14.1-114.9-25.2-173.1-33c-60.4-8.1-121.7-10.7-182.6-15.6c-0.1,1.3-0.2,2.6-0.3,3.9
			c-16.7,0-33.5-0.6-50.2,0.1c-27.6,1.1-55.5,1.5-82.8,5c-45.4,5.7-90.6,13.3-135.8,20.4c-54.1,8.4-106.3,23.2-157.4,40.7
			c-48.7,16.7-96.1,36.2-140.4,61.4c-71.1,40.5-134.4,87.9-176.3,155.9c-32.2,52.3-43.2,107.3-28.7,165.5
			c15.8,63.2,56.6,113.3,108,156.3c58.3,48.9,125.5,86,199,112.8c39.8,14.5,80.5,27.4,121.8,37.8c46.3,11.7,93.3,21.6,140.6,28.9
			c41.2,6.3,83.3,7.2,124.9,11.7c70.8,7.7,141.3,1.7,211.6-3.2c38.4-2.7,76.4-10.1,114.5-16c60.9-9.5,119.9-25.4,177.8-44.6
			c47.2-15.7,92.2-35.7,135.5-59.2c53.3-28.9,101.2-63.1,141.4-106c35.2-37.6,60.5-79.6,70.8-128.7
			C1741.2,542.9,1738.4,506.7,1726,471.8z M1218.7,355c41.6-6.5,83.3-13,125-19.1c16.5-2.4,24.2-11.8,27.8-25.6
			c5.4-20.2,11-40.4,17-60.5c1-3.3,4.4-6.1,6.7-9.1c2.2,3,5.5,5.7,6.5,9c6.4,21.4,12.5,42.8,18.5,64.3c3.7,13.1,11.3,19.4,26.2,21.7
			c42.4,6.5,84.7,13.1,127.1,19.9c3,0.5,5.7,2.4,8.6,3.7c-0.1,0.9-0.3,1.9-0.4,2.8c-5.1,1.1-10.1,2.5-15.3,3.2
			c-39.6,5.9-79.1,11.9-118.7,17.4c-15.5,2.1-23.8,9.7-27.5,23c-6,21.8-12.4,43.5-19,65.1c-0.8,2.7-3.9,4.9-5.9,7.3
			c-2.1-2.4-5.2-4.6-6-7.3c-6.2-20.4-12.6-40.8-17.5-61.4c-3.8-16-13.2-24.6-31.2-27c-40.7-5.5-81.2-11.9-121.8-18.1
			c-3.4-0.5-6.7-1.5-10-2.2c-0.1-1.2-0.2-2.3-0.3-3.5C1211.7,357.3,1215.1,355.5,1218.7,355z M1087.6,545.6
			c5.5-21.6,12.1-42.9,18.7-64.2c0.9-3.1,4.1-5.6,6.2-8.3c2.4,2.9,6.1,5.4,7.1,8.6c6.4,21,12.6,42.1,18.2,63.3
			c3.7,13.8,13.5,19.9,28.4,22.1c41.4,6.1,82.6,12.8,123.9,19.3c3.2,0.5,6.3,1.8,9.5,2.7c0,1.2,0,2.3,0,3.4
			c-9.2,1.8-18.3,3.8-27.6,5.2c-35.9,5.4-71.9,10.5-107.9,15.8c-13.1,1.9-21.8,8.3-25.2,20.3c-6.4,22.4-12.8,44.8-19.7,67.1
			c-0.9,3-4.2,5.3-6.4,8c-2.2-2.7-5.5-5.1-6.4-8.1c-6.8-21.9-13.4-44-19.3-66.1c-3.6-13.7-13.6-19.3-27.8-21.4
			c-40.6-6-81.2-12.1-121.8-18.2c-3.7-0.6-7.3-1.6-11-2.5c-0.1-1.4-0.1-2.8-0.2-4.2c11.5-2.1,22.8-4.4,34.3-6.2
			c34.1-5.4,68.2-10.6,102.3-16C1076,564.1,1084.4,558,1087.6,545.6z M592.4,519.4c-5.7-17.1-18.5-28.4-38.6-31.1
			c-46.5-6-93.2-11.7-139.8-17.5c-42.3-5.3-84.5-10.6-126.8-15.9c-13-1.6-26-2.9-38.9-5.1c-4.3-0.7-8.2-3.7-12.3-5.7
			c3.8-1.9,7.4-5,11.5-5.6c33.9-4.5,67.8-8.6,101.7-12.9c67.5-8.5,135-17.1,202.5-25.4c20.4-2.5,33.3-13.2,39-30.3
			c18.4-54.7,36.2-109.6,54.4-164.3c1.3-4.1,4.2-7.7,6.3-11.5c1.3,0,2.6,0,3.9-0.1c1.9,3.1,4.5,5.9,5.6,9.2
			c9.3,27.8,18.3,55.8,27.4,83.6c9.1,27.9,17.8,55.9,27.6,83.6c5.9,16.6,18.5,27.2,38.5,29.7c87,10.6,174.1,21.5,261.1,32.2
			c14.8,1.8,29.6,3.5,44.3,6c4.3,0.7,8,4,12,6.1c-4.2,1.9-8.2,4.9-12.7,5.5c-49,6.5-98.1,12.6-147.2,18.9
			c-52,6.6-103.9,13.7-156,19.7c-21.6,2.5-34.4,12.9-40.4,31.2c-17.6,53.9-35,107.8-52.9,161.6c-1.3,3.9-5.5,7.1-8.4,10.6
			c-3.1-3.7-7.7-7-9.1-11.1C627.3,627.2,610.2,573.2,592.4,519.4z M1015.2,790.9c-13.8,2.3-27.5,4.8-41.3,6.9
			c-32.3,5-64.7,9.7-97,14.8c-12,1.9-20.1,8.2-23.3,19.6c-6.2,22.4-12.9,44.8-19.7,67.1c-0.8,2.7-3.4,5-5.2,7.5
			c-1.9-2.6-4.9-4.9-5.7-7.7c-6.4-21.4-12.4-42.9-18.5-64.3c-4.3-15.2-10.4-20-27.6-22.6c-42-6.4-84.1-13.1-126.1-19.7
			c-3.3-0.5-6.4-1.9-9.6-2.9c0-0.9-0.1-1.8-0.1-2.7c4.2-1.3,8.2-3.1,12.5-3.7c39.9-6,79.9-11.9,119.9-17.7
			c21.1-3.1,26.5-7.8,31.6-26.2c5.9-21.1,12.4-42.2,18.7-63.2c0.7-2.4,2.1-4.6,4.4-9.6c3,5.2,5.3,7.9,6.2,11
			c6.7,22.3,13.4,44.7,19.7,67.1c3.1,11.3,10.6,17.8,23,19.6c42.4,6.4,84.8,12.7,127.2,19.2c3.9,0.6,7.6,2.2,11.4,3.3
			C1015.5,788.1,1015.4,789.5,1015.2,790.9z M1451.6,762c-17.8,2.9-35.6,6-53.4,8.8c-31.3,4.9-62.6,9.4-93.8,14.4
			c-12.6,2-20.9,9.3-24.2,20.4c-7.1,23.6-13.5,47.4-20.7,71c-0.9,3.1-4.1,5.6-6.3,8.3c-2.1-2.8-5.2-5.3-6.2-8.3
			c-7.3-22.9-14.2-45.8-21.3-68.8c-4.2-13.5-13.9-20.8-29.3-23.1c-44.6-6.7-89.1-13.9-133.6-20.9c-3-0.5-6-1.4-9-2.2
			c-0.2-0.9-0.4-1.9-0.6-2.9c3.5-1.3,6.9-3.2,10.6-3.7c44.9-6.8,89.9-13.4,134.9-19.9c14.6-2.2,23.3-10.1,27.2-22.7
			c6.9-22.6,13.5-45.3,20.8-67.8c1-3.2,5-5.5,7.5-8.3c2,2.8,4.9,5.4,5.8,8.5c7,23,13.5,46,20.2,69c3.6,12.6,13,19.5,26.9,21.6
			c45,6.6,90,13,134.9,19.7c3.6,0.5,6.9,2.4,10.4,3.6C1452.1,759.8,1451.8,760.9,1451.6,762z M1713.9,593
			c-8.4,1.6-16.8,3.5-25.2,4.7c-36,5.3-71.9,10.4-107.9,15.7c-13.7,2-23.3,8-26.9,21.1c-5.8,20.8-12.5,41.4-18.9,62.1
			c-1.3,4.3-3.2,8.5-4.9,12.7c-1.1,0.2-2.2,0.4-3.3,0.5c-1.7-3.1-3.9-6-4.9-9.2c-6.4-21.4-13.2-42.7-18.6-64.2
			c-3.6-14.1-13.2-20.6-27.8-22.8c-41.3-6.2-82.7-12.2-123.9-18.6c-3.7-0.6-7-3-10.4-4.6c3.4-1.4,6.6-3.4,10.1-4
			c42.7-6.9,85.4-13.5,128.1-20.2c12.3-1.9,20.2-8.3,23.3-19.5c6.1-21.8,12.4-43.5,19-65.2c0.9-3.1,3.9-5.8,5.9-8.6
			c2.1,2.7,5,5.2,6,8.2c6.9,21.6,13.9,43.1,20,64.9c3.4,12.3,11.9,18.5,24.9,20.5c33,5.2,66,10.2,99.1,15.3c9.7,1.5,19.4,2.9,29,4.7
			c2.8,0.5,5.5,2.2,8.2,3.3C1714.4,590.8,1714.1,591.9,1713.9,593z"/>
		<path class="st0" d="M1071.8,444.7c-4.2,1.9-8.2,4.9-12.7,5.5c-49,6.5-98.1,12.6-147.2,18.9c-52,6.6-103.9,13.7-156,19.7
			c-21.6,2.5-34.4,12.9-40.4,31.2c-17.6,53.9-35,107.8-52.9,161.6c-1.3,3.9-5.5,7.1-8.4,10.6c-3.1-3.7-7.7-7-9.1-11.1
			c-17.8-53.8-34.9-107.8-52.8-161.6c-5.7-17.1-18.5-28.4-38.6-31.1c-46.5-6-93.2-11.7-139.8-17.5c-42.3-5.3-84.5-10.6-126.8-15.9
			c-13-1.6-26-2.9-38.9-5.1c-4.3-0.7-8.2-3.7-12.3-5.7c3.8-1.9,7.4-5,11.5-5.6c33.9-4.5,67.8-8.6,101.7-12.9
			c67.5-8.5,135-17.1,202.5-25.4c20.4-2.5,33.3-13.2,39-30.3c18.4-54.7,36.2-109.6,54.4-164.3c1.3-4.1,4.2-7.7,6.3-11.5
			c1.3,0,2.6,0,3.9-0.1c1.9,3.1,4.5,5.9,5.6,9.2c9.3,27.8,18.3,55.8,27.4,83.6c9.1,27.9,17.8,55.9,27.6,83.6
			c5.9,16.6,18.5,27.2,38.5,29.7c87,10.6,174.1,21.5,261.1,32.2c14.8,1.8,29.6,3.5,44.3,6C1064.1,439.3,1067.8,442.5,1071.8,444.7z"
			/>
		<path class="st0" d="M1452.3,758.7c-0.3,1.1-0.5,2.2-0.8,3.4c-17.8,2.9-35.6,6-53.4,8.8c-31.3,4.9-62.6,9.4-93.8,14.4
			c-12.6,2-20.9,9.3-24.2,20.4c-7.1,23.6-13.5,47.4-20.7,71c-0.9,3.1-4.1,5.6-6.3,8.3c-2.1-2.8-5.2-5.3-6.2-8.3
			c-7.3-22.9-14.2-45.8-21.3-68.8c-4.2-13.5-13.9-20.8-29.3-23.1c-44.6-6.7-89.1-13.9-133.6-20.9c-3-0.5-6-1.4-9-2.2
			c-0.2-0.9-0.4-1.9-0.6-2.9c3.5-1.3,6.9-3.2,10.6-3.7c44.9-6.8,89.9-13.4,134.9-19.9c14.6-2.2,23.3-10.1,27.2-22.7
			c6.9-22.6,13.5-45.3,20.8-67.8c1-3.2,5-5.5,7.5-8.3c2,2.8,4.9,5.4,5.8,8.5c7,23,13.5,46,20.2,69c3.6,12.6,13,19.5,26.9,21.6
			c45,6.6,90,13,134.9,19.7C1445.6,755.6,1448.9,757.4,1452.3,758.7z"/>
		<path class="st0" d="M1582,359.2c-0.1,0.9-0.3,1.9-0.4,2.8c-5.1,1.1-10.1,2.5-15.3,3.2c-39.6,5.9-79.1,11.9-118.7,17.4
			c-15.5,2.1-23.8,9.7-27.5,23c-6,21.8-12.4,43.5-19,65.1c-0.8,2.7-3.9,4.9-5.9,7.3c-2.1-2.4-5.2-4.6-6-7.3
			c-6.2-20.4-12.6-40.8-17.5-61.4c-3.8-16-13.2-24.6-31.2-27c-40.7-5.5-81.2-11.9-121.8-18.1c-3.4-0.5-6.7-1.5-10-2.2
			c-0.1-1.2-0.2-2.3-0.3-3.5c3.5-1.2,6.8-3,10.4-3.6c41.6-6.5,83.3-13,125-19.1c16.5-2.4,24.2-11.8,27.8-25.6
			c5.4-20.2,11-40.4,17-60.5c1-3.3,4.4-6.1,6.7-9.1c2.2,3,5.5,5.7,6.5,9c6.4,21.4,12.5,42.8,18.5,64.3c3.7,13.1,11.3,19.4,26.2,21.7
			c42.4,6.5,84.7,13.1,127.1,19.9C1576.4,356,1579.1,357.9,1582,359.2z"/>
		<path class="st0" d="M1299.6,592.6c-9.2,1.8-18.3,3.8-27.6,5.2c-35.9,5.4-71.9,10.5-107.9,15.8c-13.1,1.9-21.8,8.3-25.2,20.3
			c-6.4,22.4-12.8,44.8-19.7,67.1c-0.9,3-4.2,5.3-6.4,8c-2.2-2.7-5.5-5.1-6.4-8.1c-6.8-21.9-13.4-44-19.3-66.1
			c-3.6-13.7-13.6-19.3-27.8-21.4c-40.6-6-81.2-12.1-121.8-18.2c-3.7-0.6-7.3-1.6-11-2.5c-0.1-1.4-0.1-2.8-0.2-4.2
			c11.5-2.1,22.8-4.4,34.3-6.2c34.1-5.4,68.2-10.6,102.3-16c13-2.1,21.4-8.1,24.6-20.6c5.5-21.6,12.1-42.9,18.7-64.2
			c0.9-3.1,4.1-5.6,6.2-8.3c2.4,2.9,6.1,5.4,7.1,8.6c6.4,21,12.6,42.1,18.2,63.3c3.7,13.8,13.5,19.9,28.4,22.1
			c41.4,6.1,82.6,12.8,123.9,19.3c3.2,0.5,6.3,1.8,9.5,2.7C1299.6,590.3,1299.6,591.5,1299.6,592.6z"/>
		<path class="st0" d="M1714.6,589.8c-0.2,1.1-0.5,2.2-0.7,3.2c-8.4,1.6-16.8,3.5-25.2,4.7c-36,5.3-71.9,10.4-107.9,15.7
			c-13.7,2-23.3,8-26.9,21.1c-5.8,20.8-12.5,41.4-18.9,62.1c-1.3,4.3-3.2,8.5-4.9,12.7c-1.1,0.2-2.2,0.4-3.3,0.5
			c-1.7-3.1-3.9-6-4.9-9.2c-6.4-21.4-13.2-42.7-18.6-64.2c-3.6-14.1-13.2-20.6-27.8-22.8c-41.3-6.2-82.7-12.2-123.9-18.6
			c-3.7-0.6-7-3-10.4-4.6c3.4-1.4,6.6-3.4,10.1-4c42.7-6.9,85.4-13.5,128.1-20.2c12.3-1.9,20.2-8.3,23.3-19.5
			c6.1-21.8,12.4-43.5,19-65.2c0.9-3.1,3.9-5.8,5.9-8.6c2.1,2.7,5,5.2,6,8.2c6.9,21.6,13.9,43.1,20,64.9
			c3.4,12.3,11.9,18.5,24.9,20.5c33,5.2,66,10.2,99.1,15.3c9.7,1.5,19.4,2.9,29,4.7C1709.3,587,1711.9,588.6,1714.6,589.8z"/>
		<path class="st0" d="M1015.6,786.8c-0.1,1.4-0.2,2.8-0.3,4.1c-13.8,2.3-27.5,4.8-41.3,6.9c-32.3,5-64.7,9.7-97,14.8
			c-12,1.9-20.1,8.2-23.3,19.6c-6.2,22.4-12.9,44.8-19.7,67.1c-0.8,2.7-3.4,5-5.2,7.5c-1.9-2.6-4.9-4.9-5.7-7.7
			c-6.4-21.4-12.4-42.9-18.5-64.3c-4.3-15.2-10.4-20-27.6-22.6c-42-6.4-84.1-13.1-126.1-19.7c-3.3-0.5-6.4-1.9-9.6-2.9
			c0-0.9-0.1-1.8-0.1-2.7c4.2-1.3,8.2-3.1,12.5-3.7c39.9-6,79.9-11.9,119.9-17.7c21.1-3.1,26.5-7.8,31.6-26.2
			c5.9-21.1,12.4-42.2,18.7-63.2c0.7-2.4,2.1-4.6,4.4-9.6c3,5.2,5.3,7.9,6.2,11c6.7,22.3,13.4,44.7,19.7,67.1
			c3.1,11.3,10.6,17.8,23,19.6c42.4,6.4,84.8,12.7,127.2,19.2C1008.1,784.1,1011.8,785.7,1015.6,786.8z"/>
	</g>
</g>
</svg>
