<?xml version="1.0" encoding="utf-8"?>
<!-- Generator: Adobe Illustrator 24.3.0, SVG Export Plug-In . SVG Version: 6.00 Build 0)  -->
<svg version="1.1" id="Слой_1" xmlns="http://www.w3.org/2000/svg" xmlns:xlink="http://www.w3.org/1999/xlink" x="0px" y="0px"
	 viewBox="0 0 800 600" style="enable-background:new 0 0 800 600;" xml:space="preserve">
<style type="text/css">
	.st0{fill-rule:evenodd;clip-rule:evenodd;fill:#00509F;}
	.st1{opacity:0.7;fill-rule:evenodd;clip-rule:evenodd;fill:#FFFFFF;}
</style>
<g id="Слой_2_1_">
</g>
<g id="Layer_1">
	<g>
		<path class="st0" d="M315,455.4c-55.1-30.1-92.3-88.6-92.3-155.3c0-20.8,3.5-40.5,10.1-59L315,455.4z"/>
		<path class="st0" d="M444.9,471.7c-14.4,3.7-29.3,5.6-44.8,5.6c-16.5,0-32.4-2.1-47.5-6.4l0.2-3.7l45.8-118.7l45.8,118.7
			L444.9,471.7z"/>
		<path class="st0" d="M445.5,128.5l-44.8,123.9l-45-124.1c14.2-3.7,29.1-5.6,44.4-5.6C415.6,122.7,430.9,124.6,445.5,128.5z"/>
		<path class="st0" d="M536.2,186.6l-74.8,194.5L434.2,311H363l-27.2,70.2l-74-192.2c14-17.3,30.8-31.8,50-42.9L364,289.8h73.3
			l52-143.1C507.1,157.2,523,170.8,536.2,186.6z"/>
		<path class="st0" d="M400.1,63.3c-130.3,0-236.8,106.3-236.8,236.8c0,130.1,106.5,236.6,236.8,236.6s236.6-106.5,236.6-236.6
			C636.7,169.6,530.4,63.3,400.1,63.3z M400.1,506.4c-113.6,0-206.5-92.7-206.5-206.3c0-113.8,92.9-206.7,206.5-206.7
			s206.5,92.9,206.5,206.7C606.6,413.7,513.7,506.4,400.1,506.4z"/>
		<path class="st1" d="M400.1,93.4c-113.6,0-206.5,92.9-206.5,206.7c0,113.6,92.9,206.3,206.5,206.3s206.5-92.7,206.5-206.3
			C606.6,186.3,513.7,93.4,400.1,93.4z M400.1,122.7c15.5,0,30.8,1.9,45.4,5.8l-44.8,123.9l-45-124.1
			C369.9,124.6,384.8,122.7,400.1,122.7z M222.7,300.1c0-20.8,3.5-40.5,10.1-59L315,455.4C259.9,425.3,222.7,366.8,222.7,300.1z
			 M400.1,477.3c-16.5,0-32.4-2.1-47.5-6.4l0.2-3.7l45.8-118.7l45.8,118.7l0.5,4.5C430.5,475.4,415.6,477.3,400.1,477.3z M434.2,311
			H363l-27.2,70.2l-74-192.2c14-17.3,30.8-31.8,50-42.9L364,289.8h73.3l52-143.1c17.8,10.5,33.7,24.1,46.9,39.9l-74.8,194.5
			L434.2,311z M481.7,457.4l84.4-220.1c7.4,19.5,11.2,40.7,11.2,62.8C577.3,368.4,538.3,427.7,481.7,457.4z"/>
		<path class="st0" d="M577.3,300.1c0,68.3-39,127.6-95.6,157.3l84.4-220.1C573.5,256.8,577.3,278,577.3,300.1z"/>
	</g>
</g>
</svg>
