<?xml version="1.0" encoding="utf-8"?>
<!-- Generator: Adobe Illustrator 24.3.0, SVG Export Plug-In . SVG Version: 6.00 Build 0)  -->
<svg version="1.1" id="Слой_1" xmlns="http://www.w3.org/2000/svg" xmlns:xlink="http://www.w3.org/1999/xlink" x="0px" y="0px"
	 viewBox="0 0 713 505" style="enable-background:new 0 0 713 505;" xml:space="preserve">
<style type="text/css">
	.st0{display:none;}
	.st1{display:inline;fill:#303030;}
	.st2{fill:#CCCCCC;}
	.st3{fill:#FD7E14;}
</style>
<g id="Слой_2_1_" class="st0">
	<rect x="-587" y="-288" class="st1" width="2091" height="1176"/>
</g>
<g id="Слой_1_1_">
	<g>
		<path class="st2" d="M534.8,219.3c-117.5,0-234.5,0-351.7,0c-0.2,1.8-0.5,3.4-0.5,5c-0.8,42.2,4.7,83.5,20.5,122.8
			c13.8,34.3,34.7,63.3,66.2,83.7c6.5,4.2,13.6,7.6,20.5,11.4c2.7,1.5,6.6,2.5,4.4,6.8c-2,3.8-5,1.8-7.8,0.5
			c-41.2-19-69.3-50.6-87.3-91.5c-19.9-45.1-26.2-92.6-24.2-141.5c0.2-4.7,2.7-5.3,6.5-5.3c48.7,0.1,97.3,0,146,0
			c69.3,0,138.6,0,208,0c7.2,0,7.6,0.3,7.7,7.6c0.1,11.1,0,22.3,0,33.6c16.7-6.1,33.4-11.1,51.2-10.3c3.8,0.2,7.7,0.6,11.4,1.5
			c18.3,4.6,28,20.2,25,39.7c-3,19.9-12.7,36.7-25.1,52c-25.4,31.4-57.8,52.8-95.3,67c-2.7,1-5.5,1.8-6.8-1.5
			c-1.5-3.6,1.3-5,4.1-6.1c29.1-10.8,55.2-26.5,77.4-48.3c15-14.7,27.7-31.1,34.7-51.3c1.5-4.2,2.5-8.7,3.2-13.1
			c2.6-18.4-7.7-30.7-26.3-31.9c-15.4-1-30,2.9-44.5,7.5c-2.7,0.9-5.8,0.8-9.2,1.2c-1.1,8.9-2.1,19-3.7,28.9
			c-6.3,38.9-18.5,75.6-42,107.9c-17.5,24-39.8,41.9-66.7,54.3c-2.6,1.2-5.3,2.1-6.9-1.2c-1.6-3.3,0.8-4.9,3.4-6.1
			c14.8-6.7,28.4-15.4,40.5-26.2c24.5-21.9,40.6-49.2,51.3-79.8c12.9-37.1,17.6-75.4,16.5-114.6C535,221.2,534.9,220.4,534.8,219.3z
			"/>
		<path class="st2" d="M358.9,459.1c77.6,0,155.3,0,232.9,0c6.8,0,7.8,1.3,6.6,8.1c-2.7,14.8-13.9,23.9-29.3,23.9
			c-138.8,0-277.6,0-416.4,0c-8.7,0-16.9-0.8-23.8-6.9c-5.5-4.8-8.8-10.8-9.7-18c-0.8-5.8,0.5-7.2,6.3-7.2c31.8,0,63.7,0,95.5,0
			C266.9,459.1,312.9,459.1,358.9,459.1L358.9,459.1z M127.7,467.4c0.5,1.6,0.6,2.8,1.1,3.8c4.3,9.2,12,12,21.7,12
			c120.2-0.1,240.3,0,360.5,0c19.5,0,39,0.1,58.5,0c10.9-0.1,18.7-6.2,20.2-15.7C435.9,467.4,282.1,467.4,127.7,467.4z"/>
		<path class="st2" d="M194.4,245.7c0-4.2,0-8.3,0-12.5c0-2.8,0.3-5.8,3.9-5.9c3.6-0.1,4,2.8,4.1,5.6c0.5,11,0.6,22,1.6,33
			c4,42.5,15.3,82.5,42.3,116.6c13.9,17.6,30.9,31.6,51.3,41.3c0.2,0.1,0.3,0.1,0.5,0.2c2.7,1.3,6.1,2.6,4.1,6.5
			c-1.8,3.5-4.8,2.2-7.3,0.8c-6.8-3.8-13.9-7.2-20.3-11.7c-33.3-22.9-54.1-55-66.6-92.9C199.4,300.4,195.5,273.3,194.4,245.7z"/>
		<path class="st2" d="M590.3,258.1c2.3,0.1,4.5,0.1,6.6,0.4c14.6,1.8,20.2,9.5,17.6,24.2c-2.6,14.3-9.3,26.7-17.9,38.1
			c-20.7,27.6-47.8,47-79,60.9c-1.6,0.7-5.3-0.1-6.2-1.4c-1.9-3,0.8-4.8,3.4-5.9c20.3-9.2,38.9-21,55.3-36.2
			c13.4-12.5,25.2-26.2,32.2-43.3c2.4-5.9,3.7-12.4,4.4-18.8c0.6-5.5-1.9-7.8-7.3-8.9c-11.4-2.2-22.5,0.2-33.6,2.6
			c-5.7,1.3-11.2,3.1-16.8,4.9c-2.8,0.9-5.5,0.6-5.9-2.4c-0.2-1.5,1.7-4.4,3.3-5C560.8,261.8,575.4,258.8,590.3,258.1z"/>
		<path class="st2" d="M358.8,18.5c1.3,1,3,1.7,3.3,2.9c0.4,1.3,0.1,3.3-0.6,4.5c-2.4,3.6-5.6,6.7-7.8,10.3
			c-9.1,14.8-9.2,30-0.1,44.8c3.4,5.5,7.7,10.4,11.7,15.5c8.4,10.6,13.9,22.4,13.5,36.1c-0.4,14.3-6.4,26.3-16.5,36.3
			c-1.2,1.2-4.5,1.6-5.9,0.8c-2.7-1.7-1.6-4.3,0.3-6.3c0.2-0.2,0.5-0.5,0.7-0.7c17.4-19.6,17.6-41.4,1.1-61.9
			c-5.5-6.8-11-13.9-14.9-21.7c-9.5-19.2-4.5-43.1,11.2-57.8C356,20.4,357.3,19.7,358.8,18.5z"/>
		<path class="st2" d="M442.9,171.5c-1.2-0.9-3-1.6-3.4-2.7c-0.4-1.3-0.1-3.3,0.7-4.5c1.3-1.9,3.3-3.3,4.8-5
			c7.3-8.5,7.7-18,0.8-26.8c-2.9-3.7-6.4-6.8-9.5-10.2c-13.4-14.5-12.5-31.8,2.2-44.8c0.7-0.7,1.6-1.7,2.4-1.7
			c1.6,0,3.7,0.1,4.8,1.1c0.8,0.8,0.8,3.2,0.2,4.4c-1,1.8-2.9,3.1-4.4,4.7c-8.6,9.3-8.8,20.1-0.4,29.5c2.9,3.2,6.1,6.1,9,9.4
			c12.8,14.4,11.3,32.2-3.6,44.3C445.6,170,444.4,170.6,442.9,171.5z"/>
		<path class="st2" d="M275.5,171c-3.9-0.2-5.6-3.6-3.7-6.3c1.3-1.7,3-3.1,4.5-4.7c8.3-9.1,8.7-19.3,0.8-28.8
			c-2.9-3.4-6.3-6.4-9.3-9.8c-12.9-14.4-11.7-31.8,3.1-44.4c2.2-1.9,4.5-3.3,6.9-0.5c2.2,2.5,0.6,4.6-1.4,6.4
			c-1,0.9-1.9,1.8-2.8,2.8c-8.7,9.3-8.9,20-0.5,29.5c3,3.4,6.4,6.4,9.3,9.7c12.5,14.5,11,31.8-3.8,43.9
			C277.6,170,276.2,170.6,275.5,171z"/>
	</g>
	<g>
		<path class="st3" d="M352.7,264.4c4.8,0,9.7,0,14.5,0c0.2,0.1,0.3,0.2,0.5,0.3c2.9,1,4.9,2.9,5.5,6c0.8,3.7,1.5,7.4,2.2,11.1
			c0.2,0.9,0.5,1.6,1.5,1.9c1.1,0.3,2.1,0.8,3.1,1.3c0.6,0.3,1.1,0.3,1.7-0.1c3.1-2.1,6.3-4.2,9.4-6.3c3.8-2.4,7.6-2,10.8,1.2
			c2.4,2.4,4.8,4.8,7.2,7.2c2.9,2.9,3.4,6.9,1.1,10.4c-2.1,3.2-4.2,6.4-6.4,9.6c-0.4,0.6-0.4,1-0.1,1.7c0.6,1.2,1,2.4,1.6,3.6
			c0.1,0.3,0.5,0.6,0.8,0.7c3.6,0.8,7.3,1.5,10.9,2.3c2.5,0.5,4.6,1.5,5.9,3.7c0.5,0.8,0.8,1.7,1.3,2.6c0,4.8,0,9.7,0,14.5
			c-0.1,0.2-0.2,0.3-0.3,0.5c-0.9,2.8-2.8,4.8-5.6,5.5c-3.8,0.9-7.6,1.6-11.4,2.3c-0.9,0.2-1.6,0.5-1.9,1.5
			c-0.3,1.1-0.8,2.1-1.3,3.1c-0.3,0.6-0.3,1.1,0.1,1.7c2.2,3.3,4.4,6.6,6.6,10c2,3.1,1.5,7.2-1,9.8c-2.6,2.7-5.2,5.3-7.9,7.9
			c-2.7,2.6-6.6,3.1-9.8,1c-3.4-2.1-6.6-4.4-10-6.5c-0.4-0.2-1-0.4-1.4-0.2c-1.3,0.5-2.6,1-3.8,1.6c-0.3,0.1-0.6,0.5-0.7,0.8
			c-0.8,3.6-1.6,7.3-2.3,10.9c-0.5,2.7-1.7,4.9-4.2,6.2c-0.7,0.4-1.4,0.6-2,0.9c-4.8,0-9.7,0-14.5,0c-0.2-0.1-0.3-0.2-0.5-0.3
			c-2.9-1-4.9-2.9-5.5-6c-0.8-3.7-1.5-7.4-2.2-11.1c-0.2-0.9-0.5-1.6-1.5-1.9c-1.1-0.3-2.1-0.8-3.1-1.3c-0.6-0.3-1.1-0.3-1.7,0.1
			c-3.3,2.2-6.5,4.4-9.8,6.5c-3.2,2-7.2,1.6-9.9-1c-2.7-2.6-5.3-5.2-7.9-7.9c-2.6-2.6-3-6.6-1.1-9.7c2.1-3.4,4.4-6.7,6.6-10.1
			c0.2-0.4,0.4-1,0.2-1.4c-0.5-1.3-1-2.6-1.6-3.8c-0.1-0.3-0.5-0.6-0.8-0.7c-3.6-0.8-7.3-1.5-10.9-2.3c-2.5-0.5-4.6-1.5-5.9-3.7
			c-0.5-0.8-0.9-1.7-1.3-2.6c0-4.8,0-9.7,0-14.5c0.1-0.2,0.2-0.3,0.3-0.5c1-2.9,2.9-4.9,6-5.5c3.7-0.8,7.4-1.5,11.1-2.2
			c0.9-0.2,1.6-0.5,1.9-1.5c0.3-1.1,0.8-2.1,1.3-3.1c0.3-0.6,0.3-1.1-0.1-1.7c-2.1-3.1-4.2-6.3-6.3-9.4c-2.4-3.8-2-7.6,1.2-10.8
			c2.4-2.4,4.8-4.8,7.2-7.2c2.9-2.9,6.9-3.4,10.4-1.1c3.2,2.1,6.4,4.3,9.6,6.4c0.4,0.2,1,0.4,1.4,0.2c1.3-0.5,2.6-1,3.8-1.6
			c0.3-0.1,0.6-0.5,0.7-0.8c0.8-3.6,1.5-7.3,2.3-10.9c0.5-2.4,1.5-4.6,3.7-5.9C351,265.2,351.9,264.9,352.7,264.4z M365.4,384.7
			c0.8-3.9,1.7-7.6,2.3-11.4c0.5-2.6,1.5-4.8,3.9-6.1c1.6-0.9,3.4-1.3,5-2.2c3.6-1.9,6.8-1.3,10,0.9c2.7,2,5.6,3.7,8.4,5.6
			c0.7,0.5,1,0.4,1.6-0.1c2-2.1,4.1-4.2,6.2-6.2c0.6-0.6,0.7-0.9,0.2-1.7c-2.1-3.1-4.2-6.3-6.3-9.4c-1.7-2.6-2-5.3-0.6-8.2
			c0.5-1.1,1.1-2.2,1.4-3.4c1.2-4,4-5.8,7.9-6.4c3.6-0.6,7.1-1.4,10.7-2.1c0-3.7,0-7.2,0-10.8c-3.7-0.7-7.3-1.4-10.9-2.1
			c-2.9-0.5-5.4-1.6-6.8-4.3c-0.8-1.5-1.3-3.2-2-4.7c-1.9-3.6-1.3-6.8,1-10c2-2.7,3.7-5.6,5.6-8.4c0.4-0.6,0.4-1-0.1-1.5
			c-2.1-2.1-4.2-4.2-6.3-6.3c-0.6-0.6-1-0.6-1.7-0.1c-3.1,2.1-6.2,4.2-9.3,6.2c-2.6,1.7-5.4,2-8.3,0.6c-1.4-0.7-2.9-1.2-4.3-1.8
			c-2.9-1.1-4.5-3.2-5.2-6.2c-0.8-4-1.6-8-2.4-12.1c-3.7,0-7.3,0-10.8,0c-0.8,3.9-1.7,7.6-2.3,11.4c-0.5,2.6-1.5,4.8-3.9,6.1
			c-1.6,0.9-3.4,1.3-5,2.2c-3.6,1.9-6.8,1.4-10-0.9c-2.7-1.9-5.5-3.7-8.3-5.6c-0.7-0.5-1.1-0.5-1.8,0.1c-2,2.1-4,4.1-6.1,6.1
			c-0.6,0.6-0.7,0.9-0.2,1.7c2.1,3.1,4.2,6.3,6.3,9.4c1.7,2.6,2,5.3,0.6,8.2c-0.5,1.1-1.1,2.2-1.4,3.4c-1.2,4-4,5.8-7.9,6.4
			c-3.6,0.6-7.1,1.4-10.7,2.1c0,3.7,0,7.2,0,10.8c3.7,0.7,7.3,1.4,10.9,2.1c2.9,0.5,5.4,1.6,6.8,4.3c0.8,1.5,1.3,3.2,2,4.7
			c1.9,3.6,1.3,6.8-1,10c-1.9,2.7-3.7,5.5-5.6,8.3c-0.5,0.7-0.5,1.1,0.1,1.7c2.1,2,4.1,4,6.1,6.1c0.6,0.6,1,0.7,1.8,0.2
			c3.1-2.1,6.2-4.2,9.3-6.2c2.6-1.7,5.4-2,8.3-0.6c1.4,0.7,2.9,1.2,4.3,1.8c2.9,1.1,4.5,3.2,5.2,6.2c0.8,4,1.6,8,2.4,12.1
			C358.2,384.7,361.8,384.7,365.4,384.7z"/>
		<path class="st3" d="M360,356.6c-15.5,0.2-27.2-12.4-28-25.9c-1.1-18.3,13.1-29.5,25.9-30.2c18.3-1.1,29.4,13.2,30.2,25.9
			C389.2,344.5,374.4,357.1,360,356.6z M384.6,328.6c-0.4-13.8-10.7-24.5-24.6-24.5c-13.8,0-24.4,10.6-24.5,24.4
			c-0.1,13.9,10.6,24.6,24.5,24.6C373.8,353.1,384.2,342.5,384.6,328.6z"/>
		<path class="st3" d="M344,328.6c-0.3-8.7,7.2-15.6,14.8-16c10.5-0.6,16.8,7.8,17.3,14.7c0.7,10.6-7.8,16.9-14.8,17.4
			C350.9,345.3,343.6,336.6,344,328.6z M360,340.6c6.8-0.3,12-5,12-12c0.1-6.9-5-12.1-12-12c-6.9,0-12,5.1-12,12
			S353.1,340.2,360,340.6z"/>
	</g>
</g>
</svg>
