<?xml version="1.0" encoding="utf-8"?>
<!-- Generator: Adobe Illustrator 24.3.0, SVG Export Plug-In . SVG Version: 6.00 Build 0)  -->
<svg version="1.1" id="Слой_1" xmlns="http://www.w3.org/2000/svg" xmlns:xlink="http://www.w3.org/1999/xlink" x="0px" y="0px"
	 viewBox="0 0 1016 703" style="enable-background:new 0 0 1016 703;" xml:space="preserve">
<style type="text/css">
	.st0{fill:#FD7E14;}
	.st1{fill:#CCCCCC;}
</style>
<path class="st0" d="M908,665.3c-6.1,9.4-14.7,13.4-26,13.2c-21.5-0.4-43-0.1-64.5-0.1c-1.8,0-3.6,0-4.9,0c4-35.4,1-70.6,1.8-105.8
	c0.2-9.4-2.6-18.1-9.3-25.2c-5-5.3-11-8.3-18.6-8.2c-8.3,0.2-16.6,0-25.5,0c0-3.6,0-6.8,0-9.9c0-16.2,0.5-32.3-0.1-48.5
	c-0.3-9.1,3.5-14.8,11.2-18.1c5.1-2.2,10.8-4.3,16.2-4.4c31-0.4,62-0.5,92.9,0c10.9,0.2,20.9,4.3,26.7,14.8
	C908,537.3,908,601.3,908,665.3z"/>
<path class="st0" d="M108,473.3c5.9-10.2,15.6-14.6,26.7-14.9c26.3-0.6,52.6-0.3,78.9-0.4c9.7,0,19.3-0.3,28.5,3.7
	c9.7,4.3,12.9,8.6,12.9,19c0,18,0,36,0,53.9c0,1.3-0.1,2.6-0.3,4.6c-8.8,0-17.4,0-26,0c-4.5,0-9,0-13.5-0.1
	c-12.3-0.3-20.8,5.6-25.3,16.6c-2.2,5.2-3.7,11.2-3.8,16.8c-0.4,29.8-0.3,59.6,0,89.4c0,5.2,1.5,10.4,2.3,16
	c-0.8,0.1-2.1,0.3-3.3,0.3c-17.3,0-34.6-0.3-52,0.1c-11.1,0.3-19.1-4.2-25.1-13.2C108,601.3,108,537.3,108,473.3z"/>
<path class="st1" d="M500.4,678.4c-94.7,0-189.3,0-284,0c-11.1,0-15.3-4-15.5-15.4c-0.2-12.2-0.1-24.3-0.1-36.5
	c0-16.7-0.1-33.3,0-50c0-3.6,0.2-7.4,1.1-10.9c2.2-8.3,6.5-11.4,15.1-11.4c96.7,0,193.3,0.1,290,0.1c92.7,0,185.3,0,278-0.2
	c5.9,0,9.8,2.4,11.8,7.4c1.6,3.9,2.6,8.3,2.7,12.5c0.2,28.2,0.2,56.3,0.1,84.5c0,2.3,0,4.7-0.3,7c-1.3,10-4.6,12.8-14.3,12.8
	C690.1,678.4,595.3,678.4,500.4,678.4z"/>
<path class="st1" d="M515.8,539c0-17,0-33.5,0-49.9c0-45.3,0-90.6,0.1-135.9c0-5-0.3-10.1,0.9-14.9c3.2-12.7,13.1-20,26.5-20
	c58.3-0.1,116.6,0,174.9,0c24.7,0,49.3,0,74,0c16.8,0,28.1,10.9,28.2,27.7c0.2,22.6,0,45.3,0,68c0,9.5,0,18.9,0,29.1
	c-3.4,0-6.5-0.1-9.6,0c-12.6,0.3-25.5-1.6-37.6,3.3c-6.2,2.5-12.3,5.8-17.6,9.9c-6.6,5.1-9.5,12.5-9.5,21.1c0.1,19.2,0,38.3,0,57.5
	c0,1.3-0.1,2.6-0.2,4.2C669.3,539,593,539,515.8,539z"/>
<path class="st1" d="M269.8,539c0-10.7,0-21,0-31.3c0-9.5-0.4-19,0.1-28.5c0.6-12.4-5.2-21-15-27.5c-9.3-6.2-19.8-8.4-30.8-8.6
	c-9.3-0.2-18.6,0-28.6,0c0-2.4,0-4.1,0-5.9c0-30,0-60,0-89.9c0-18,10.9-29,28.9-29c82.3,0,164.6,0,246.9,0c18.1,0,28.7,10.7,28.7,29
	c0,62.5,0.1,124.9,0.1,187.4c0,1.3-0.2,2.6-0.3,4.3C423.4,539,347,539,269.8,539z"/>
<path class="st1" d="M612.9,124.1c-0.1,57.8-47.1,104.7-104.7,104.6c-57.7-0.1-104.7-47.1-104.6-104.7
	c0.1-57.7,47.1-104.7,104.7-104.6C566,19.5,612.9,66.5,612.9,124.1z M508.4,38.5c-47.2-0.1-85.6,38.2-85.7,85.5
	c-0.1,47.2,38.2,85.6,85.4,85.8c47.2,0.1,85.6-38.2,85.8-85.5C593.9,77,555.6,38.6,508.4,38.5z"/>
<path class="st0" d="M517.7,92.5c0,8.5,0,17.1,0.1,25.6c0,1.1,0.6,2.5,1.3,3.3c7.4,7.5,14.9,14.9,22.3,22.4
	c5.1,5.2,3.9,12.8-2.4,15.8c-3.3,1.5-6.5,1.1-9.5-1c-0.8-0.6-1.6-1.3-2.3-2.1c-8.2-8.2-16.4-16.4-24.6-24.6
	c-2.6-2.6-3.9-5.5-3.9-9.3c0.1-18.4,0-36.7,0.1-55.1c0-5.4,3.4-9.5,8.2-10c5.9-0.6,10.7,3.5,10.7,9.5
	C517.7,75.6,517.7,84.1,517.7,92.5z"/>
</svg>
