<?xml version="1.0" encoding="utf-8"?>
<!-- Generator: Adobe Illustrator 24.3.0, SVG Export Plug-In . SVG Version: 6.00 Build 0)  -->
<svg version="1.1" id="WIFI_Icon" xmlns="http://www.w3.org/2000/svg" xmlns:xlink="http://www.w3.org/1999/xlink" x="0px" y="0px"
	 viewBox="0 0 220 160" style="enable-background:new 0 0 220 160;" xml:space="preserve">
<style type="text/css">
	.st0{fill:#CCCCCC;}
	.st1{fill:#FD7E14;}
</style>
<path class="st0" d="M210.6,46.5C154.8-8.9,64.7-8.8,9.1,46.8c-3.1,3.6-2.7,8.9,0.9,12c3.2,2.7,7.9,2.7,11.1,0
	c49-49,128.3-49.1,177.4-0.3c3.2,3.5,8.6,3.7,12,0.5s3.7-8.6,0.5-12l0,0C210.9,46.8,210.8,46.7,210.6,46.5z"/>
<path class="st0" d="M37.1,74.7c-3.1,3.5-2.8,8.9,0.7,12c3.2,2.9,8.1,2.9,11.3,0c33.6-33.6,88.1-33.6,121.8,0
	c3.5,3.1,8.9,2.8,12-0.7c2.9-3.2,2.9-8.1,0-11.3C142.6,34.5,77.3,34.5,37.1,74.7z"/>
<path class="st0" d="M65,102c-3.1,3.6-2.7,8.9,0.9,12c3.2,2.7,7.9,2.7,11.1,0c18.2-18.2,47.7-18.2,65.9,0c3.1,3.6,8.4,4,12,0.9
	c3.6-3.1,4-8.4,0.9-12c-0.3-0.3-0.6-0.6-0.9-0.9C130,77.2,89.8,77.2,65,102z"/>
<circle class="st1" cx="110" cy="138.1" r="16.9"/>
</svg>
